G04 Layer_Physical_Order=4*
G04 Layer_Color=16711680*
%FSLAX25Y25*%
%MOIN*%
G70*
G01*
G75*
%ADD10R,0.15984X0.05984*%
%ADD28C,0.01799*%
%ADD29C,0.00800*%
%ADD33C,0.06000*%
%ADD34R,0.06000X0.06000*%
%ADD35C,0.03800*%
%ADD36C,0.02200*%
%ADD37C,0.02362*%
G36*
X308878Y123092D02*
X292908D01*
Y121029D01*
X289985D01*
X289802Y121302D01*
X288976Y121855D01*
X288000Y122049D01*
X287024Y121855D01*
X286198Y121302D01*
X285645Y120475D01*
X285451Y119500D01*
X285645Y118525D01*
X285799Y118294D01*
X285636Y117901D01*
X285074Y117525D01*
X284698Y116963D01*
X284566Y116299D01*
X284648Y115887D01*
X284650Y115602D01*
X284291Y115345D01*
X283989Y115285D01*
X283426Y114909D01*
X283060Y114361D01*
X282972Y114347D01*
X282632D01*
X282544Y114361D01*
X282178Y114909D01*
X281615Y115285D01*
X280952Y115417D01*
X280289Y115285D01*
X279726Y114909D01*
X279360Y114361D01*
X279272Y114347D01*
X278932D01*
X278844Y114361D01*
X278478Y114909D01*
X277915Y115285D01*
X277820Y115515D01*
X277901Y115636D01*
X278032Y116299D01*
X277901Y116963D01*
X277525Y117525D01*
X276962Y117901D01*
X276299Y118033D01*
X275636Y117901D01*
X275074Y117525D01*
X274698Y116963D01*
X274635Y116645D01*
X274381Y116295D01*
X274093Y116289D01*
X273677Y116372D01*
X273511Y116339D01*
X272949Y116721D01*
X272901Y116963D01*
X272525Y117525D01*
X271962Y117901D01*
X271299Y118033D01*
X270636Y117901D01*
X270074Y117525D01*
X269698Y116963D01*
X269566Y116299D01*
X269698Y115636D01*
X269378Y115214D01*
X268884Y114884D01*
X268508Y114321D01*
X268376Y113658D01*
X268508Y112995D01*
X268884Y112433D01*
X269446Y112057D01*
X270110Y111925D01*
X270773Y112057D01*
X271335Y112433D01*
X271711Y112995D01*
X271807Y113478D01*
X272325Y113603D01*
X272452Y113413D01*
X273014Y113037D01*
X273677Y112905D01*
X274341Y113037D01*
X274903Y113413D01*
X275032Y113607D01*
X275557Y113491D01*
X275651Y113020D01*
X276026Y112458D01*
X276589Y112082D01*
X277252Y111950D01*
X277915Y112082D01*
X278478Y112458D01*
X278844Y113005D01*
X278932Y113020D01*
X279272D01*
X279360Y113005D01*
X279726Y112458D01*
X280289Y112082D01*
X280952Y111950D01*
X281615Y112082D01*
X282178Y112458D01*
X282544Y113005D01*
X282632Y113020D01*
X282972D01*
X283060Y113005D01*
X283426Y112458D01*
X283989Y112082D01*
X284652Y111950D01*
X285315Y112082D01*
X285878Y112458D01*
X286244Y113005D01*
X286332Y113020D01*
X286672D01*
X286760Y113005D01*
X287126Y112458D01*
X287689Y112082D01*
X288352Y111950D01*
X289015Y112082D01*
X289578Y112458D01*
X289953Y113020D01*
X290080Y113659D01*
X290173Y113714D01*
X290499Y113829D01*
X290563Y113843D01*
X291117Y113473D01*
X291780Y113341D01*
X292444Y113473D01*
X293006Y113848D01*
X293382Y114411D01*
X293514Y115074D01*
X293447Y115408D01*
X293824Y115908D01*
X308878D01*
Y103092D01*
X292908D01*
Y101029D01*
X289985D01*
X289802Y101302D01*
X288976Y101855D01*
X288000Y102049D01*
X287024Y101855D01*
X286198Y101302D01*
X285977Y100973D01*
X285506Y101168D01*
X285532Y101299D01*
X285401Y101962D01*
X285025Y102525D01*
X284462Y102901D01*
X283799Y103033D01*
X283136Y102901D01*
X282574Y102525D01*
X282198Y101962D01*
X282066Y101299D01*
X282198Y100636D01*
X282574Y100074D01*
X283136Y99698D01*
X283799Y99566D01*
X284462Y99698D01*
X285025Y100074D01*
X285068Y100138D01*
X285539Y99943D01*
X285451Y99500D01*
X285645Y98524D01*
X285799Y98294D01*
X285636Y97901D01*
X285074Y97525D01*
X284698Y96962D01*
X284566Y96299D01*
X284698Y95636D01*
X285074Y95074D01*
X285636Y94698D01*
X286299Y94566D01*
X286963Y94698D01*
X287525Y95074D01*
X287901Y95636D01*
X288033Y96299D01*
X287997Y96479D01*
X288000Y96951D01*
X288360Y97023D01*
X288976Y97145D01*
X289415Y97438D01*
X289775Y97078D01*
X289698Y96962D01*
X289566Y96299D01*
X289698Y95636D01*
X290074Y95074D01*
X290636Y94698D01*
X291299Y94566D01*
X291963Y94698D01*
X292525Y95074D01*
X292901Y95636D01*
X292955Y95908D01*
X308878D01*
Y92000D01*
Y4591D01*
X73457D01*
Y83409D01*
X78740D01*
X79411Y83498D01*
X80036Y83756D01*
X80572Y84168D01*
X80984Y84705D01*
X81243Y85330D01*
X81331Y86000D01*
Y152441D01*
X81243Y153112D01*
X80984Y153736D01*
X80572Y154273D01*
X80036Y154685D01*
X79411Y154943D01*
X78740Y155032D01*
X73457D01*
Y214323D01*
X308878D01*
Y123092D01*
D02*
G37*
%LPC*%
G36*
X261299Y68032D02*
X260636Y67901D01*
X260074Y67525D01*
X259698Y66962D01*
X259566Y66299D01*
X259698Y65636D01*
X260074Y65074D01*
X260636Y64698D01*
X261299Y64566D01*
X261963Y64698D01*
X262525Y65074D01*
X262901Y65636D01*
X263033Y66299D01*
X262901Y66962D01*
X262525Y67525D01*
X261963Y67901D01*
X261299Y68032D01*
D02*
G37*
G36*
X251299D02*
X250636Y67901D01*
X250074Y67525D01*
X249698Y66962D01*
X249566Y66299D01*
X249698Y65636D01*
X250074Y65074D01*
X250636Y64698D01*
X251299Y64566D01*
X251962Y64698D01*
X252525Y65074D01*
X252901Y65636D01*
X253032Y66299D01*
X252901Y66962D01*
X252525Y67525D01*
X251962Y67901D01*
X251299Y68032D01*
D02*
G37*
G36*
X266299D02*
X265636Y67901D01*
X265074Y67525D01*
X264698Y66962D01*
X264566Y66299D01*
X264698Y65636D01*
X265074Y65074D01*
X265636Y64698D01*
X266299Y64566D01*
X266963Y64698D01*
X267525Y65074D01*
X267901Y65636D01*
X268033Y66299D01*
X267901Y66962D01*
X267525Y67525D01*
X266963Y67901D01*
X266299Y68032D01*
D02*
G37*
G36*
X281299D02*
X280636Y67901D01*
X280074Y67525D01*
X279698Y66962D01*
X279566Y66299D01*
X279698Y65636D01*
X280074Y65074D01*
X280636Y64698D01*
X281299Y64566D01*
X281962Y64698D01*
X282525Y65074D01*
X282901Y65636D01*
X283032Y66299D01*
X282901Y66962D01*
X282525Y67525D01*
X281962Y67901D01*
X281299Y68032D01*
D02*
G37*
G36*
X276299D02*
X275636Y67901D01*
X275074Y67525D01*
X274698Y66962D01*
X274566Y66299D01*
X274698Y65636D01*
X275074Y65074D01*
X275636Y64698D01*
X276299Y64566D01*
X276962Y64698D01*
X277525Y65074D01*
X277901Y65636D01*
X278032Y66299D01*
X277901Y66962D01*
X277525Y67525D01*
X276962Y67901D01*
X276299Y68032D01*
D02*
G37*
G36*
X271299D02*
X270636Y67901D01*
X270074Y67525D01*
X269698Y66962D01*
X269566Y66299D01*
X269698Y65636D01*
X270074Y65074D01*
X270636Y64698D01*
X271299Y64566D01*
X271962Y64698D01*
X272525Y65074D01*
X272901Y65636D01*
X273032Y66299D01*
X272901Y66962D01*
X272525Y67525D01*
X271962Y67901D01*
X271299Y68032D01*
D02*
G37*
G36*
X235489Y65623D02*
X234826Y65491D01*
X234264Y65115D01*
X233888Y64553D01*
X233756Y63890D01*
X233888Y63226D01*
X234264Y62664D01*
X234826Y62288D01*
X235489Y62156D01*
X236153Y62288D01*
X236715Y62664D01*
X237091Y63226D01*
X237223Y63890D01*
X237091Y64553D01*
X236715Y65115D01*
X236153Y65491D01*
X235489Y65623D01*
D02*
G37*
G36*
X210348D02*
X209684Y65491D01*
X209122Y65115D01*
X208746Y64553D01*
X208614Y63890D01*
X208746Y63226D01*
X209122Y62664D01*
X209684Y62288D01*
X210348Y62156D01*
X211011Y62288D01*
X211573Y62664D01*
X211949Y63226D01*
X212081Y63890D01*
X211949Y64553D01*
X211573Y65115D01*
X211011Y65491D01*
X210348Y65623D01*
D02*
G37*
G36*
X204848D02*
X204184Y65491D01*
X203622Y65115D01*
X203246Y64553D01*
X203114Y63890D01*
X203246Y63226D01*
X203622Y62664D01*
X204184Y62288D01*
X204848Y62156D01*
X205511Y62288D01*
X206073Y62664D01*
X206449Y63226D01*
X206581Y63890D01*
X206449Y64553D01*
X206073Y65115D01*
X205511Y65491D01*
X204848Y65623D01*
D02*
G37*
G36*
X176420Y66233D02*
X175757Y66101D01*
X175195Y65726D01*
X174819Y65163D01*
X174687Y64500D01*
X174819Y63837D01*
X175195Y63274D01*
X175757Y62899D01*
X176420Y62767D01*
X177083Y62899D01*
X177646Y63274D01*
X178022Y63837D01*
X178153Y64500D01*
X178022Y65163D01*
X177646Y65726D01*
X177083Y66101D01*
X176420Y66233D01*
D02*
G37*
G36*
X246489Y65623D02*
X245826Y65491D01*
X245264Y65115D01*
X244888Y64553D01*
X244756Y63890D01*
X244888Y63226D01*
X245264Y62664D01*
X245826Y62288D01*
X246489Y62156D01*
X247153Y62288D01*
X247715Y62664D01*
X248091Y63226D01*
X248223Y63890D01*
X248091Y64553D01*
X247715Y65115D01*
X247153Y65491D01*
X246489Y65623D01*
D02*
G37*
G36*
X240989D02*
X240326Y65491D01*
X239764Y65115D01*
X239388Y64553D01*
X239256Y63890D01*
X239388Y63226D01*
X239764Y62664D01*
X240326Y62288D01*
X240989Y62156D01*
X241653Y62288D01*
X242215Y62664D01*
X242591Y63226D01*
X242723Y63890D01*
X242591Y64553D01*
X242215Y65115D01*
X241653Y65491D01*
X240989Y65623D01*
D02*
G37*
G36*
X288799Y73032D02*
X288136Y72901D01*
X287574Y72525D01*
X287198Y71962D01*
X287066Y71299D01*
X287198Y70636D01*
X287574Y70074D01*
X288136Y69698D01*
X288799Y69566D01*
X289462Y69698D01*
X290025Y70074D01*
X290401Y70636D01*
X290532Y71299D01*
X290401Y71962D01*
X290025Y72525D01*
X289462Y72901D01*
X288799Y73032D01*
D02*
G37*
G36*
X283799D02*
X283136Y72901D01*
X282574Y72525D01*
X282198Y71962D01*
X282066Y71299D01*
X282198Y70636D01*
X282574Y70074D01*
X283136Y69698D01*
X283799Y69566D01*
X284462Y69698D01*
X285025Y70074D01*
X285401Y70636D01*
X285532Y71299D01*
X285401Y71962D01*
X285025Y72525D01*
X284462Y72901D01*
X283799Y73032D01*
D02*
G37*
G36*
X278799D02*
X278136Y72901D01*
X277574Y72525D01*
X277198Y71962D01*
X277066Y71299D01*
X277198Y70636D01*
X277574Y70074D01*
X278136Y69698D01*
X278799Y69566D01*
X279463Y69698D01*
X280025Y70074D01*
X280401Y70636D01*
X280533Y71299D01*
X280401Y71962D01*
X280025Y72525D01*
X279463Y72901D01*
X278799Y73032D01*
D02*
G37*
G36*
X303799D02*
X303136Y72901D01*
X302574Y72525D01*
X302198Y71962D01*
X302066Y71299D01*
X302198Y70636D01*
X302574Y70074D01*
X303136Y69698D01*
X303799Y69566D01*
X304463Y69698D01*
X305025Y70074D01*
X305401Y70636D01*
X305533Y71299D01*
X305401Y71962D01*
X305025Y72525D01*
X304463Y72901D01*
X303799Y73032D01*
D02*
G37*
G36*
X298799D02*
X298136Y72901D01*
X297574Y72525D01*
X297198Y71962D01*
X297066Y71299D01*
X297198Y70636D01*
X297574Y70074D01*
X298136Y69698D01*
X298799Y69566D01*
X299463Y69698D01*
X300025Y70074D01*
X300401Y70636D01*
X300533Y71299D01*
X300401Y71962D01*
X300025Y72525D01*
X299463Y72901D01*
X298799Y73032D01*
D02*
G37*
G36*
X293799D02*
X293136Y72901D01*
X292574Y72525D01*
X292198Y71962D01*
X292066Y71299D01*
X292198Y70636D01*
X292574Y70074D01*
X293136Y69698D01*
X293799Y69566D01*
X294462Y69698D01*
X295025Y70074D01*
X295401Y70636D01*
X295532Y71299D01*
X295401Y71962D01*
X295025Y72525D01*
X294462Y72901D01*
X293799Y73032D01*
D02*
G37*
G36*
X296299Y68032D02*
X295636Y67901D01*
X295074Y67525D01*
X294698Y66962D01*
X294566Y66299D01*
X294698Y65636D01*
X295074Y65074D01*
X295636Y64698D01*
X296299Y64566D01*
X296962Y64698D01*
X297525Y65074D01*
X297901Y65636D01*
X298032Y66299D01*
X297901Y66962D01*
X297525Y67525D01*
X296962Y67901D01*
X296299Y68032D01*
D02*
G37*
G36*
X291299D02*
X290636Y67901D01*
X290074Y67525D01*
X289698Y66962D01*
X289566Y66299D01*
X289698Y65636D01*
X290074Y65074D01*
X290636Y64698D01*
X291299Y64566D01*
X291963Y64698D01*
X292525Y65074D01*
X292901Y65636D01*
X293033Y66299D01*
X292901Y66962D01*
X292525Y67525D01*
X291963Y67901D01*
X291299Y68032D01*
D02*
G37*
G36*
X286299D02*
X285636Y67901D01*
X285074Y67525D01*
X284698Y66962D01*
X284566Y66299D01*
X284698Y65636D01*
X285074Y65074D01*
X285636Y64698D01*
X286299Y64566D01*
X286963Y64698D01*
X287525Y65074D01*
X287901Y65636D01*
X288033Y66299D01*
X287901Y66962D01*
X287525Y67525D01*
X286963Y67901D01*
X286299Y68032D01*
D02*
G37*
G36*
X273799Y73032D02*
X273136Y72901D01*
X272574Y72525D01*
X272198Y71962D01*
X272066Y71299D01*
X272198Y70636D01*
X272574Y70074D01*
X273136Y69698D01*
X273799Y69566D01*
X274463Y69698D01*
X275025Y70074D01*
X275401Y70636D01*
X275533Y71299D01*
X275401Y71962D01*
X275025Y72525D01*
X274463Y72901D01*
X273799Y73032D01*
D02*
G37*
G36*
X268799D02*
X268136Y72901D01*
X267574Y72525D01*
X267198Y71962D01*
X267066Y71299D01*
X267198Y70636D01*
X267574Y70074D01*
X268136Y69698D01*
X268799Y69566D01*
X269462Y69698D01*
X270025Y70074D01*
X270401Y70636D01*
X270532Y71299D01*
X270401Y71962D01*
X270025Y72525D01*
X269462Y72901D01*
X268799Y73032D01*
D02*
G37*
G36*
X301299Y68032D02*
X300636Y67901D01*
X300074Y67525D01*
X299698Y66962D01*
X299566Y66299D01*
X299698Y65636D01*
X300074Y65074D01*
X300636Y64698D01*
X301299Y64566D01*
X301962Y64698D01*
X302525Y65074D01*
X302901Y65636D01*
X303032Y66299D01*
X302901Y66962D01*
X302525Y67525D01*
X301962Y67901D01*
X301299Y68032D01*
D02*
G37*
G36*
X291299Y58033D02*
X290636Y57901D01*
X290074Y57525D01*
X289698Y56963D01*
X289566Y56299D01*
X289698Y55636D01*
X290074Y55074D01*
X290636Y54698D01*
X291299Y54566D01*
X291963Y54698D01*
X292525Y55074D01*
X292901Y55636D01*
X293033Y56299D01*
X292901Y56963D01*
X292525Y57525D01*
X291963Y57901D01*
X291299Y58033D01*
D02*
G37*
G36*
X286299D02*
X285636Y57901D01*
X285074Y57525D01*
X284698Y56963D01*
X284566Y56299D01*
X284698Y55636D01*
X285074Y55074D01*
X285636Y54698D01*
X286299Y54566D01*
X286963Y54698D01*
X287525Y55074D01*
X287901Y55636D01*
X288033Y56299D01*
X287901Y56963D01*
X287525Y57525D01*
X286963Y57901D01*
X286299Y58033D01*
D02*
G37*
G36*
X281299D02*
X280636Y57901D01*
X280074Y57525D01*
X279698Y56963D01*
X279566Y56299D01*
X279698Y55636D01*
X280074Y55074D01*
X280636Y54698D01*
X281299Y54566D01*
X281962Y54698D01*
X282525Y55074D01*
X282901Y55636D01*
X283032Y56299D01*
X282901Y56963D01*
X282525Y57525D01*
X281962Y57901D01*
X281299Y58033D01*
D02*
G37*
G36*
X180581Y62733D02*
X179918Y62601D01*
X179356Y62226D01*
X178980Y61663D01*
X178848Y61000D01*
X178980Y60337D01*
X179356Y59774D01*
X179918Y59399D01*
X180581Y59267D01*
X181245Y59399D01*
X181807Y59774D01*
X182183Y60337D01*
X182315Y61000D01*
X182183Y61663D01*
X181807Y62226D01*
X181245Y62601D01*
X180581Y62733D01*
D02*
G37*
G36*
X301299Y58033D02*
X300636Y57901D01*
X300074Y57525D01*
X299698Y56963D01*
X299566Y56299D01*
X299698Y55636D01*
X300074Y55074D01*
X300636Y54698D01*
X301299Y54566D01*
X301962Y54698D01*
X302525Y55074D01*
X302901Y55636D01*
X303032Y56299D01*
X302901Y56963D01*
X302525Y57525D01*
X301962Y57901D01*
X301299Y58033D01*
D02*
G37*
G36*
X296299D02*
X295636Y57901D01*
X295074Y57525D01*
X294698Y56963D01*
X294566Y56299D01*
X294698Y55636D01*
X295074Y55074D01*
X295636Y54698D01*
X296299Y54566D01*
X296962Y54698D01*
X297525Y55074D01*
X297901Y55636D01*
X298032Y56299D01*
X297901Y56963D01*
X297525Y57525D01*
X296962Y57901D01*
X296299Y58033D01*
D02*
G37*
G36*
X261299D02*
X260636Y57901D01*
X260074Y57525D01*
X259698Y56963D01*
X259566Y56299D01*
X259698Y55636D01*
X260074Y55074D01*
X260636Y54698D01*
X261299Y54566D01*
X261963Y54698D01*
X262525Y55074D01*
X262901Y55636D01*
X263033Y56299D01*
X262901Y56963D01*
X262525Y57525D01*
X261963Y57901D01*
X261299Y58033D01*
D02*
G37*
G36*
X256299D02*
X255636Y57901D01*
X255074Y57525D01*
X254698Y56963D01*
X254566Y56299D01*
X254698Y55636D01*
X255074Y55074D01*
X255636Y54698D01*
X256299Y54566D01*
X256962Y54698D01*
X257525Y55074D01*
X257901Y55636D01*
X258032Y56299D01*
X257901Y56963D01*
X257525Y57525D01*
X256962Y57901D01*
X256299Y58033D01*
D02*
G37*
G36*
X251299D02*
X250636Y57901D01*
X250074Y57525D01*
X249698Y56963D01*
X249566Y56299D01*
X249698Y55636D01*
X250074Y55074D01*
X250636Y54698D01*
X251299Y54566D01*
X251962Y54698D01*
X252525Y55074D01*
X252901Y55636D01*
X253032Y56299D01*
X252901Y56963D01*
X252525Y57525D01*
X251962Y57901D01*
X251299Y58033D01*
D02*
G37*
G36*
X276299D02*
X275636Y57901D01*
X275074Y57525D01*
X274698Y56963D01*
X274566Y56299D01*
X274698Y55636D01*
X275074Y55074D01*
X275636Y54698D01*
X276299Y54566D01*
X276962Y54698D01*
X277525Y55074D01*
X277901Y55636D01*
X278032Y56299D01*
X277901Y56963D01*
X277525Y57525D01*
X276962Y57901D01*
X276299Y58033D01*
D02*
G37*
G36*
X271299D02*
X270636Y57901D01*
X270074Y57525D01*
X269698Y56963D01*
X269566Y56299D01*
X269698Y55636D01*
X270074Y55074D01*
X270636Y54698D01*
X271299Y54566D01*
X271962Y54698D01*
X272525Y55074D01*
X272901Y55636D01*
X273032Y56299D01*
X272901Y56963D01*
X272525Y57525D01*
X271962Y57901D01*
X271299Y58033D01*
D02*
G37*
G36*
X266299D02*
X265636Y57901D01*
X265074Y57525D01*
X264698Y56963D01*
X264566Y56299D01*
X264698Y55636D01*
X265074Y55074D01*
X265636Y54698D01*
X266299Y54566D01*
X266963Y54698D01*
X267525Y55074D01*
X267901Y55636D01*
X268033Y56299D01*
X267901Y56963D01*
X267525Y57525D01*
X266963Y57901D01*
X266299Y58033D01*
D02*
G37*
G36*
X293799Y63033D02*
X293136Y62901D01*
X292574Y62525D01*
X292198Y61962D01*
X292066Y61299D01*
X292198Y60636D01*
X292574Y60074D01*
X293136Y59698D01*
X293799Y59566D01*
X294462Y59698D01*
X295025Y60074D01*
X295401Y60636D01*
X295532Y61299D01*
X295401Y61962D01*
X295025Y62525D01*
X294462Y62901D01*
X293799Y63033D01*
D02*
G37*
G36*
X288799D02*
X288136Y62901D01*
X287574Y62525D01*
X287198Y61962D01*
X287066Y61299D01*
X287198Y60636D01*
X287574Y60074D01*
X288136Y59698D01*
X288799Y59566D01*
X289462Y59698D01*
X290025Y60074D01*
X290401Y60636D01*
X290532Y61299D01*
X290401Y61962D01*
X290025Y62525D01*
X289462Y62901D01*
X288799Y63033D01*
D02*
G37*
G36*
X283799D02*
X283136Y62901D01*
X282574Y62525D01*
X282198Y61962D01*
X282066Y61299D01*
X282198Y60636D01*
X282574Y60074D01*
X283136Y59698D01*
X283799Y59566D01*
X284462Y59698D01*
X285025Y60074D01*
X285401Y60636D01*
X285532Y61299D01*
X285401Y61962D01*
X285025Y62525D01*
X284462Y62901D01*
X283799Y63033D01*
D02*
G37*
G36*
X198997Y65623D02*
X198334Y65491D01*
X197772Y65115D01*
X197396Y64553D01*
X197264Y63890D01*
X197396Y63226D01*
X197772Y62664D01*
X198334Y62288D01*
X198997Y62156D01*
X199661Y62288D01*
X200223Y62664D01*
X200599Y63226D01*
X200731Y63890D01*
X200599Y64553D01*
X200223Y65115D01*
X199661Y65491D01*
X198997Y65623D01*
D02*
G37*
G36*
X303799Y63033D02*
X303136Y62901D01*
X302574Y62525D01*
X302198Y61962D01*
X302066Y61299D01*
X302198Y60636D01*
X302574Y60074D01*
X303136Y59698D01*
X303799Y59566D01*
X304463Y59698D01*
X305025Y60074D01*
X305401Y60636D01*
X305533Y61299D01*
X305401Y61962D01*
X305025Y62525D01*
X304463Y62901D01*
X303799Y63033D01*
D02*
G37*
G36*
X298799D02*
X298136Y62901D01*
X297574Y62525D01*
X297198Y61962D01*
X297066Y61299D01*
X297198Y60636D01*
X297574Y60074D01*
X298136Y59698D01*
X298799Y59566D01*
X299463Y59698D01*
X300025Y60074D01*
X300401Y60636D01*
X300533Y61299D01*
X300401Y61962D01*
X300025Y62525D01*
X299463Y62901D01*
X298799Y63033D01*
D02*
G37*
G36*
X263799D02*
X263136Y62901D01*
X262574Y62525D01*
X262198Y61962D01*
X262066Y61299D01*
X262198Y60636D01*
X262574Y60074D01*
X263136Y59698D01*
X263799Y59566D01*
X264462Y59698D01*
X265025Y60074D01*
X265401Y60636D01*
X265532Y61299D01*
X265401Y61962D01*
X265025Y62525D01*
X264462Y62901D01*
X263799Y63033D01*
D02*
G37*
G36*
X258799D02*
X258136Y62901D01*
X257574Y62525D01*
X257198Y61962D01*
X257066Y61299D01*
X257198Y60636D01*
X257574Y60074D01*
X258136Y59698D01*
X258799Y59566D01*
X259462Y59698D01*
X260025Y60074D01*
X260401Y60636D01*
X260532Y61299D01*
X260401Y61962D01*
X260025Y62525D01*
X259462Y62901D01*
X258799Y63033D01*
D02*
G37*
G36*
X253799D02*
X253136Y62901D01*
X252574Y62525D01*
X252198Y61962D01*
X252066Y61299D01*
X252198Y60636D01*
X252574Y60074D01*
X253136Y59698D01*
X253799Y59566D01*
X254463Y59698D01*
X255025Y60074D01*
X255401Y60636D01*
X255533Y61299D01*
X255401Y61962D01*
X255025Y62525D01*
X254463Y62901D01*
X253799Y63033D01*
D02*
G37*
G36*
X278799D02*
X278136Y62901D01*
X277574Y62525D01*
X277198Y61962D01*
X277066Y61299D01*
X277198Y60636D01*
X277574Y60074D01*
X278136Y59698D01*
X278799Y59566D01*
X279463Y59698D01*
X280025Y60074D01*
X280401Y60636D01*
X280533Y61299D01*
X280401Y61962D01*
X280025Y62525D01*
X279463Y62901D01*
X278799Y63033D01*
D02*
G37*
G36*
X273799D02*
X273136Y62901D01*
X272574Y62525D01*
X272198Y61962D01*
X272066Y61299D01*
X272198Y60636D01*
X272574Y60074D01*
X273136Y59698D01*
X273799Y59566D01*
X274463Y59698D01*
X275025Y60074D01*
X275401Y60636D01*
X275533Y61299D01*
X275401Y61962D01*
X275025Y62525D01*
X274463Y62901D01*
X273799Y63033D01*
D02*
G37*
G36*
X268799D02*
X268136Y62901D01*
X267574Y62525D01*
X267198Y61962D01*
X267066Y61299D01*
X267198Y60636D01*
X267574Y60074D01*
X268136Y59698D01*
X268799Y59566D01*
X269462Y59698D01*
X270025Y60074D01*
X270401Y60636D01*
X270532Y61299D01*
X270401Y61962D01*
X270025Y62525D01*
X269462Y62901D01*
X268799Y63033D01*
D02*
G37*
G36*
X172500Y97670D02*
X171837Y97538D01*
X171274Y97163D01*
X170899Y96600D01*
X170767Y95937D01*
X170899Y95274D01*
X171274Y94711D01*
X171837Y94336D01*
X172500Y94204D01*
X173163Y94336D01*
X173726Y94711D01*
X174101Y95274D01*
X174233Y95937D01*
X174101Y96600D01*
X173726Y97163D01*
X173163Y97538D01*
X172500Y97670D01*
D02*
G37*
G36*
X282000Y97390D02*
X281337Y97258D01*
X280774Y96882D01*
X280399Y96320D01*
X280267Y95657D01*
X280399Y94994D01*
X280774Y94431D01*
X281337Y94055D01*
X282000Y93924D01*
X282663Y94055D01*
X283226Y94431D01*
X283601Y94994D01*
X283733Y95657D01*
X283601Y96320D01*
X283226Y96882D01*
X282663Y97258D01*
X282000Y97390D01*
D02*
G37*
G36*
X249343D02*
X248680Y97258D01*
X248117Y96882D01*
X247742Y96320D01*
X247610Y95657D01*
X247742Y94994D01*
X248117Y94431D01*
X248680Y94055D01*
X249343Y93924D01*
X250006Y94055D01*
X250569Y94431D01*
X250944Y94994D01*
X251076Y95657D01*
X250944Y96320D01*
X250569Y96882D01*
X250006Y97258D01*
X249343Y97390D01*
D02*
G37*
G36*
X172500Y103354D02*
X171837Y103221D01*
X171274Y102846D01*
X170899Y102284D01*
X170767Y101620D01*
X170899Y100957D01*
X171274Y100395D01*
X171837Y100019D01*
X172500Y99887D01*
X173163Y100019D01*
X173726Y100395D01*
X174101Y100957D01*
X174233Y101620D01*
X174101Y102284D01*
X173726Y102846D01*
X173163Y103221D01*
X172500Y103354D01*
D02*
G37*
G36*
X278799Y103033D02*
X278136Y102901D01*
X277574Y102525D01*
X277198Y101962D01*
X277066Y101299D01*
X277198Y100636D01*
X277574Y100074D01*
X278136Y99698D01*
X278799Y99566D01*
X279463Y99698D01*
X280025Y100074D01*
X280401Y100636D01*
X280533Y101299D01*
X280401Y101962D01*
X280025Y102525D01*
X279463Y102901D01*
X278799Y103033D01*
D02*
G37*
G36*
X190000Y97733D02*
X189337Y97601D01*
X188774Y97226D01*
X188399Y96663D01*
X188267Y96000D01*
X188399Y95337D01*
X188774Y94774D01*
X189337Y94399D01*
X190000Y94267D01*
X190663Y94399D01*
X191226Y94774D01*
X191601Y95337D01*
X191733Y96000D01*
X191601Y96663D01*
X191226Y97226D01*
X190663Y97601D01*
X190000Y97733D01*
D02*
G37*
G36*
X288799Y93032D02*
X288136Y92901D01*
X287574Y92525D01*
X287198Y91962D01*
X287066Y91299D01*
X287198Y90636D01*
X287574Y90074D01*
X288136Y89698D01*
X288799Y89566D01*
X289462Y89698D01*
X290025Y90074D01*
X290401Y90636D01*
X290532Y91299D01*
X290401Y91962D01*
X290025Y92525D01*
X289462Y92901D01*
X288799Y93032D01*
D02*
G37*
G36*
X263799D02*
X263136Y92901D01*
X262574Y92525D01*
X262198Y91962D01*
X262066Y91299D01*
X262198Y90636D01*
X262574Y90074D01*
X263136Y89698D01*
X263799Y89566D01*
X264462Y89698D01*
X265025Y90074D01*
X265401Y90636D01*
X265532Y91299D01*
X265401Y91962D01*
X265025Y92525D01*
X264462Y92901D01*
X263799Y93032D01*
D02*
G37*
G36*
X258799D02*
X258136Y92901D01*
X257574Y92525D01*
X257198Y91962D01*
X257066Y91299D01*
X257198Y90636D01*
X257574Y90074D01*
X258136Y89698D01*
X258799Y89566D01*
X259462Y89698D01*
X260025Y90074D01*
X260401Y90636D01*
X260532Y91299D01*
X260401Y91962D01*
X260025Y92525D01*
X259462Y92901D01*
X258799Y93032D01*
D02*
G37*
G36*
X303799D02*
X303136Y92901D01*
X302574Y92525D01*
X302198Y91962D01*
X302066Y91299D01*
X302198Y90636D01*
X302574Y90074D01*
X303136Y89698D01*
X303799Y89566D01*
X304463Y89698D01*
X305025Y90074D01*
X305401Y90636D01*
X305533Y91299D01*
X305401Y91962D01*
X305025Y92525D01*
X304463Y92901D01*
X303799Y93032D01*
D02*
G37*
G36*
X298799D02*
X298136Y92901D01*
X297574Y92525D01*
X297198Y91962D01*
X297066Y91299D01*
X297198Y90636D01*
X297574Y90074D01*
X298136Y89698D01*
X298799Y89566D01*
X299463Y89698D01*
X300025Y90074D01*
X300401Y90636D01*
X300533Y91299D01*
X300401Y91962D01*
X300025Y92525D01*
X299463Y92901D01*
X298799Y93032D01*
D02*
G37*
G36*
X293799D02*
X293136Y92901D01*
X292574Y92525D01*
X292198Y91962D01*
X292066Y91299D01*
X292198Y90636D01*
X292574Y90074D01*
X293136Y89698D01*
X293799Y89566D01*
X294462Y89698D01*
X295025Y90074D01*
X295401Y90636D01*
X295532Y91299D01*
X295401Y91962D01*
X295025Y92525D01*
X294462Y92901D01*
X293799Y93032D01*
D02*
G37*
G36*
X226500Y110619D02*
X225805Y110481D01*
X225216Y110087D01*
X224822Y109498D01*
X224684Y108803D01*
X224822Y108108D01*
X225216Y107519D01*
X225805Y107125D01*
X226500Y106987D01*
X227195Y107125D01*
X227784Y107519D01*
X228178Y108108D01*
X228316Y108803D01*
X228178Y109498D01*
X227784Y110087D01*
X227195Y110481D01*
X226500Y110619D01*
D02*
G37*
G36*
X231224Y110619D02*
X230529Y110481D01*
X229940Y110087D01*
X229547Y109498D01*
X229408Y108803D01*
X229547Y108108D01*
X229940Y107519D01*
X230529Y107125D01*
X231224Y106987D01*
X231919Y107125D01*
X232508Y107519D01*
X232902Y108108D01*
X233040Y108803D01*
X232902Y109498D01*
X232508Y110087D01*
X231919Y110481D01*
X231224Y110619D01*
D02*
G37*
G36*
X221776D02*
X221081Y110481D01*
X220492Y110087D01*
X220098Y109498D01*
X219960Y108803D01*
X220098Y108108D01*
X220492Y107519D01*
X221081Y107125D01*
X221776Y106987D01*
X222470Y107125D01*
X223060Y107519D01*
X223453Y108108D01*
X223592Y108803D01*
X223453Y109498D01*
X223060Y110087D01*
X222470Y110481D01*
X221776Y110619D01*
D02*
G37*
G36*
X231224Y115344D02*
X230529Y115205D01*
X229940Y114812D01*
X229547Y114223D01*
X229408Y113528D01*
X229547Y112833D01*
X229940Y112243D01*
X230529Y111850D01*
X231224Y111712D01*
X231919Y111850D01*
X232508Y112243D01*
X232902Y112833D01*
X233040Y113528D01*
X232902Y114223D01*
X232508Y114812D01*
X231919Y115205D01*
X231224Y115344D01*
D02*
G37*
G36*
X221776D02*
X221081Y115205D01*
X220492Y114812D01*
X220098Y114223D01*
X219960Y113528D01*
X220098Y112833D01*
X220492Y112243D01*
X221081Y111850D01*
X221776Y111712D01*
X222470Y111850D01*
X223060Y112243D01*
X223453Y112833D01*
X223592Y113528D01*
X223453Y114223D01*
X223060Y114812D01*
X222470Y115205D01*
X221776Y115344D01*
D02*
G37*
G36*
X172500Y114670D02*
X171837Y114538D01*
X171274Y114163D01*
X170899Y113600D01*
X170767Y112937D01*
X170899Y112274D01*
X171274Y111711D01*
X171837Y111336D01*
X172500Y111204D01*
X173163Y111336D01*
X173726Y111711D01*
X174101Y112274D01*
X174233Y112937D01*
X174101Y113600D01*
X173726Y114163D01*
X173163Y114538D01*
X172500Y114670D01*
D02*
G37*
G36*
X231224Y105895D02*
X230529Y105756D01*
X229940Y105363D01*
X229547Y104774D01*
X229408Y104079D01*
X229547Y103384D01*
X229940Y102795D01*
X230529Y102401D01*
X231224Y102263D01*
X231919Y102401D01*
X232508Y102795D01*
X232902Y103384D01*
X233040Y104079D01*
X232902Y104774D01*
X232508Y105363D01*
X231919Y105756D01*
X231224Y105895D01*
D02*
G37*
G36*
X221776D02*
X221081Y105756D01*
X220492Y105363D01*
X220098Y104774D01*
X219960Y104079D01*
X220098Y103384D01*
X220492Y102795D01*
X221081Y102401D01*
X221776Y102263D01*
X222470Y102401D01*
X223060Y102795D01*
X223453Y103384D01*
X223592Y104079D01*
X223453Y104774D01*
X223060Y105363D01*
X222470Y105756D01*
X221776Y105895D01*
D02*
G37*
G36*
X226500Y105895D02*
X225805Y105756D01*
X225216Y105363D01*
X224822Y104774D01*
X224684Y104079D01*
X224822Y103384D01*
X225216Y102795D01*
X225805Y102401D01*
X226500Y102263D01*
X227195Y102401D01*
X227784Y102795D01*
X228178Y103384D01*
X228316Y104079D01*
X228178Y104774D01*
X227784Y105363D01*
X227195Y105756D01*
X226500Y105895D01*
D02*
G37*
G36*
X287247Y107137D02*
X286584Y107005D01*
X286021Y106629D01*
X285655Y106081D01*
X285567Y106067D01*
X285227D01*
X285139Y106081D01*
X284772Y106629D01*
X284210Y107005D01*
X283547Y107137D01*
X282884Y107005D01*
X282321Y106629D01*
X281955Y106081D01*
X281867Y106067D01*
X281527D01*
X281439Y106081D01*
X281072Y106629D01*
X280510Y107005D01*
X279847Y107137D01*
X279184Y107005D01*
X278621Y106629D01*
X278255Y106081D01*
X278167Y106067D01*
X277827D01*
X277739Y106081D01*
X277373Y106629D01*
X276810Y107005D01*
X276147Y107137D01*
X275484Y107005D01*
X274921Y106629D01*
X274546Y106067D01*
X274414Y105403D01*
X274546Y104740D01*
X274921Y104178D01*
X275484Y103802D01*
X276147Y103670D01*
X276810Y103802D01*
X277373Y104178D01*
X277739Y104726D01*
X277827Y104740D01*
X278167D01*
X278255Y104726D01*
X278621Y104178D01*
X279184Y103802D01*
X279847Y103670D01*
X280510Y103802D01*
X281072Y104178D01*
X281439Y104726D01*
X281527Y104740D01*
X281867D01*
X281955Y104726D01*
X282321Y104178D01*
X282884Y103802D01*
X283547Y103670D01*
X284210Y103802D01*
X284772Y104178D01*
X285139Y104726D01*
X285227Y104740D01*
X285567D01*
X285655Y104726D01*
X286021Y104178D01*
X286584Y103802D01*
X287247Y103670D01*
X287910Y103802D01*
X288473Y104178D01*
X288712Y104536D01*
X289243Y104431D01*
X289298Y104151D01*
X289674Y103589D01*
X290236Y103213D01*
X290900Y103081D01*
X291563Y103213D01*
X292125Y103589D01*
X292501Y104151D01*
X292633Y104815D01*
X292501Y105478D01*
X292125Y106040D01*
X291563Y106416D01*
X290900Y106548D01*
X290236Y106416D01*
X289674Y106040D01*
X289435Y105682D01*
X288904Y105787D01*
X288848Y106067D01*
X288473Y106629D01*
X287910Y107005D01*
X287247Y107137D01*
D02*
G37*
G36*
X172500Y109170D02*
X171837Y109038D01*
X171274Y108663D01*
X170899Y108100D01*
X170767Y107437D01*
X170899Y106774D01*
X171274Y106211D01*
X171837Y105836D01*
X172500Y105704D01*
X173163Y105836D01*
X173726Y106211D01*
X174101Y106774D01*
X174233Y107437D01*
X174101Y108100D01*
X173726Y108663D01*
X173163Y109038D01*
X172500Y109170D01*
D02*
G37*
G36*
X256299Y108033D02*
X255636Y107901D01*
X255074Y107525D01*
X254698Y106963D01*
X254566Y106299D01*
X254698Y105636D01*
X255074Y105074D01*
X255636Y104698D01*
X256299Y104566D01*
X256962Y104698D01*
X257525Y105074D01*
X257901Y105636D01*
X258032Y106299D01*
X257901Y106963D01*
X257525Y107525D01*
X256962Y107901D01*
X256299Y108033D01*
D02*
G37*
G36*
X273799Y83033D02*
X273136Y82901D01*
X272574Y82525D01*
X272198Y81963D01*
X272066Y81299D01*
X272198Y80636D01*
X272574Y80074D01*
X273136Y79698D01*
X273799Y79566D01*
X274463Y79698D01*
X275025Y80074D01*
X275401Y80636D01*
X275533Y81299D01*
X275401Y81963D01*
X275025Y82525D01*
X274463Y82901D01*
X273799Y83033D01*
D02*
G37*
G36*
X253799D02*
X253136Y82901D01*
X252574Y82525D01*
X252198Y81963D01*
X252066Y81299D01*
X252198Y80636D01*
X252574Y80074D01*
X253136Y79698D01*
X253799Y79566D01*
X254463Y79698D01*
X255025Y80074D01*
X255401Y80636D01*
X255533Y81299D01*
X255401Y81963D01*
X255025Y82525D01*
X254463Y82901D01*
X253799Y83033D01*
D02*
G37*
G36*
X301299Y78032D02*
X300636Y77901D01*
X300074Y77525D01*
X299698Y76963D01*
X299566Y76299D01*
X299698Y75636D01*
X300074Y75074D01*
X300636Y74698D01*
X301299Y74566D01*
X301962Y74698D01*
X302525Y75074D01*
X302901Y75636D01*
X303032Y76299D01*
X302901Y76963D01*
X302525Y77525D01*
X301962Y77901D01*
X301299Y78032D01*
D02*
G37*
G36*
X288799Y83033D02*
X288136Y82901D01*
X287574Y82525D01*
X287198Y81963D01*
X287066Y81299D01*
X287198Y80636D01*
X287574Y80074D01*
X288136Y79698D01*
X288799Y79566D01*
X289462Y79698D01*
X290025Y80074D01*
X290401Y80636D01*
X290532Y81299D01*
X290401Y81963D01*
X290025Y82525D01*
X289462Y82901D01*
X288799Y83033D01*
D02*
G37*
G36*
X282000Y86390D02*
X281337Y86258D01*
X280774Y85883D01*
X280399Y85320D01*
X280267Y84657D01*
X280399Y83994D01*
X280774Y83431D01*
X281337Y83056D01*
X282000Y82924D01*
X282385Y83000D01*
X282580Y82529D01*
X282574Y82525D01*
X282198Y81963D01*
X282066Y81299D01*
X282198Y80636D01*
X282574Y80074D01*
X283136Y79698D01*
X283799Y79566D01*
X284462Y79698D01*
X285025Y80074D01*
X285401Y80636D01*
X285532Y81299D01*
X285401Y81963D01*
X285025Y82525D01*
X284462Y82901D01*
X283799Y83033D01*
X283414Y82956D01*
X283219Y83427D01*
X283226Y83431D01*
X283601Y83994D01*
X283733Y84657D01*
X283601Y85320D01*
X283226Y85883D01*
X282663Y86258D01*
X282000Y86390D01*
D02*
G37*
G36*
X278799Y83033D02*
X278136Y82901D01*
X277574Y82525D01*
X277198Y81963D01*
X277066Y81299D01*
X277198Y80636D01*
X277574Y80074D01*
X278136Y79698D01*
X278799Y79566D01*
X279463Y79698D01*
X280025Y80074D01*
X280401Y80636D01*
X280533Y81299D01*
X280401Y81963D01*
X280025Y82525D01*
X279463Y82901D01*
X278799Y83033D01*
D02*
G37*
G36*
X281299Y78032D02*
X280636Y77901D01*
X280074Y77525D01*
X279698Y76963D01*
X279566Y76299D01*
X279698Y75636D01*
X280074Y75074D01*
X280636Y74698D01*
X281299Y74566D01*
X281962Y74698D01*
X282525Y75074D01*
X282901Y75636D01*
X283032Y76299D01*
X282901Y76963D01*
X282525Y77525D01*
X281962Y77901D01*
X281299Y78032D01*
D02*
G37*
G36*
X276299D02*
X275636Y77901D01*
X275074Y77525D01*
X274698Y76963D01*
X274566Y76299D01*
X274698Y75636D01*
X275074Y75074D01*
X275636Y74698D01*
X276299Y74566D01*
X276962Y74698D01*
X277525Y75074D01*
X277901Y75636D01*
X278032Y76299D01*
X277901Y76963D01*
X277525Y77525D01*
X276962Y77901D01*
X276299Y78032D01*
D02*
G37*
G36*
X271299D02*
X270636Y77901D01*
X270074Y77525D01*
X269698Y76963D01*
X269566Y76299D01*
X269698Y75636D01*
X270074Y75074D01*
X270636Y74698D01*
X271299Y74566D01*
X271962Y74698D01*
X272525Y75074D01*
X272901Y75636D01*
X273032Y76299D01*
X272901Y76963D01*
X272525Y77525D01*
X271962Y77901D01*
X271299Y78032D01*
D02*
G37*
G36*
X296299D02*
X295636Y77901D01*
X295074Y77525D01*
X294698Y76963D01*
X294566Y76299D01*
X294698Y75636D01*
X295074Y75074D01*
X295636Y74698D01*
X296299Y74566D01*
X296962Y74698D01*
X297525Y75074D01*
X297901Y75636D01*
X298032Y76299D01*
X297901Y76963D01*
X297525Y77525D01*
X296962Y77901D01*
X296299Y78032D01*
D02*
G37*
G36*
X291299D02*
X290636Y77901D01*
X290074Y77525D01*
X289698Y76963D01*
X289566Y76299D01*
X289698Y75636D01*
X290074Y75074D01*
X290636Y74698D01*
X291299Y74566D01*
X291963Y74698D01*
X292525Y75074D01*
X292901Y75636D01*
X293033Y76299D01*
X292901Y76963D01*
X292525Y77525D01*
X291963Y77901D01*
X291299Y78032D01*
D02*
G37*
G36*
X286299D02*
X285636Y77901D01*
X285074Y77525D01*
X284698Y76963D01*
X284566Y76299D01*
X284698Y75636D01*
X285074Y75074D01*
X285636Y74698D01*
X286299Y74566D01*
X286963Y74698D01*
X287525Y75074D01*
X287901Y75636D01*
X288033Y76299D01*
X287901Y76963D01*
X287525Y77525D01*
X286963Y77901D01*
X286299Y78032D01*
D02*
G37*
G36*
X301299Y88033D02*
X300636Y87901D01*
X300074Y87525D01*
X299698Y86962D01*
X299566Y86299D01*
X299698Y85636D01*
X300074Y85074D01*
X300636Y84698D01*
X301299Y84566D01*
X301962Y84698D01*
X302525Y85074D01*
X302901Y85636D01*
X303032Y86299D01*
X302901Y86962D01*
X302525Y87525D01*
X301962Y87901D01*
X301299Y88033D01*
D02*
G37*
G36*
X296299D02*
X295636Y87901D01*
X295074Y87525D01*
X294698Y86962D01*
X294566Y86299D01*
X294698Y85636D01*
X295074Y85074D01*
X295636Y84698D01*
X296299Y84566D01*
X296962Y84698D01*
X297525Y85074D01*
X297901Y85636D01*
X298032Y86299D01*
X297901Y86962D01*
X297525Y87525D01*
X296962Y87901D01*
X296299Y88033D01*
D02*
G37*
G36*
X291299D02*
X290636Y87901D01*
X290074Y87525D01*
X289698Y86962D01*
X289566Y86299D01*
X289698Y85636D01*
X290074Y85074D01*
X290636Y84698D01*
X291299Y84566D01*
X291963Y84698D01*
X292525Y85074D01*
X292901Y85636D01*
X293033Y86299D01*
X292901Y86962D01*
X292525Y87525D01*
X291963Y87901D01*
X291299Y88033D01*
D02*
G37*
G36*
X253799Y93032D02*
X253136Y92901D01*
X252574Y92525D01*
X252198Y91962D01*
X252066Y91299D01*
X252198Y90636D01*
X252574Y90074D01*
X253136Y89698D01*
X253799Y89566D01*
X254463Y89698D01*
X255025Y90074D01*
X255401Y90636D01*
X255533Y91299D01*
X255401Y91962D01*
X255025Y92525D01*
X254463Y92901D01*
X253799Y93032D01*
D02*
G37*
G36*
X172500Y92170D02*
X171837Y92038D01*
X171274Y91663D01*
X170899Y91100D01*
X170767Y90437D01*
X170899Y89774D01*
X171274Y89211D01*
X171837Y88836D01*
X172500Y88704D01*
X173163Y88836D01*
X173726Y89211D01*
X174101Y89774D01*
X174233Y90437D01*
X174101Y91100D01*
X173726Y91663D01*
X173163Y92038D01*
X172500Y92170D01*
D02*
G37*
G36*
X282000Y91890D02*
X281337Y91758D01*
X280774Y91382D01*
X280399Y90820D01*
X280267Y90157D01*
X280399Y89494D01*
X280774Y88931D01*
X281337Y88556D01*
X282000Y88424D01*
X282663Y88556D01*
X283226Y88931D01*
X283601Y89494D01*
X283733Y90157D01*
X283601Y90820D01*
X283226Y91382D01*
X282663Y91758D01*
X282000Y91890D01*
D02*
G37*
G36*
X303799Y83033D02*
X303136Y82901D01*
X302574Y82525D01*
X302198Y81963D01*
X302066Y81299D01*
X302198Y80636D01*
X302574Y80074D01*
X303136Y79698D01*
X303799Y79566D01*
X304463Y79698D01*
X305025Y80074D01*
X305401Y80636D01*
X305533Y81299D01*
X305401Y81963D01*
X305025Y82525D01*
X304463Y82901D01*
X303799Y83033D01*
D02*
G37*
G36*
X298799D02*
X298136Y82901D01*
X297574Y82525D01*
X297198Y81963D01*
X297066Y81299D01*
X297198Y80636D01*
X297574Y80074D01*
X298136Y79698D01*
X298799Y79566D01*
X299463Y79698D01*
X300025Y80074D01*
X300401Y80636D01*
X300533Y81299D01*
X300401Y81963D01*
X300025Y82525D01*
X299463Y82901D01*
X298799Y83033D01*
D02*
G37*
G36*
X293799D02*
X293136Y82901D01*
X292574Y82525D01*
X292198Y81963D01*
X292066Y81299D01*
X292198Y80636D01*
X292574Y80074D01*
X293136Y79698D01*
X293799Y79566D01*
X294462Y79698D01*
X295025Y80074D01*
X295401Y80636D01*
X295532Y81299D01*
X295401Y81963D01*
X295025Y82525D01*
X294462Y82901D01*
X293799Y83033D01*
D02*
G37*
G36*
X286299Y88033D02*
X285636Y87901D01*
X285074Y87525D01*
X284698Y86962D01*
X284566Y86299D01*
X284698Y85636D01*
X285074Y85074D01*
X285636Y84698D01*
X286299Y84566D01*
X286963Y84698D01*
X287525Y85074D01*
X287901Y85636D01*
X288033Y86299D01*
X287901Y86962D01*
X287525Y87525D01*
X286963Y87901D01*
X286299Y88033D01*
D02*
G37*
G36*
X261299D02*
X260636Y87901D01*
X260074Y87525D01*
X259698Y86962D01*
X259566Y86299D01*
X259698Y85636D01*
X260074Y85074D01*
X260636Y84698D01*
X261299Y84566D01*
X261963Y84698D01*
X262525Y85074D01*
X262901Y85636D01*
X263033Y86299D01*
X262901Y86962D01*
X262525Y87525D01*
X261963Y87901D01*
X261299Y88033D01*
D02*
G37*
G36*
X172500Y86733D02*
X171837Y86601D01*
X171274Y86226D01*
X170899Y85663D01*
X170767Y85000D01*
X170899Y84337D01*
X171274Y83774D01*
X171837Y83399D01*
X172500Y83267D01*
X173163Y83399D01*
X173726Y83774D01*
X174101Y84337D01*
X174233Y85000D01*
X174101Y85663D01*
X173726Y86226D01*
X173163Y86601D01*
X172500Y86733D01*
D02*
G37*
G36*
X303799Y53032D02*
X303136Y52901D01*
X302574Y52525D01*
X302198Y51963D01*
X302066Y51299D01*
X302198Y50636D01*
X302574Y50074D01*
X303136Y49698D01*
X303799Y49566D01*
X304463Y49698D01*
X305025Y50074D01*
X305401Y50636D01*
X305533Y51299D01*
X305401Y51963D01*
X305025Y52525D01*
X304463Y52901D01*
X303799Y53032D01*
D02*
G37*
G36*
X229383Y23012D02*
X228443Y22888D01*
X227568Y22526D01*
X226816Y21949D01*
X226239Y21197D01*
X225876Y20321D01*
X225752Y19381D01*
X225876Y18441D01*
X226239Y17566D01*
X226816Y16814D01*
X227568Y16236D01*
X228443Y15874D01*
X229383Y15750D01*
X230323Y15874D01*
X231199Y16236D01*
X231951Y16814D01*
X232528Y17566D01*
X232891Y18441D01*
X233014Y19381D01*
X232891Y20321D01*
X232528Y21197D01*
X231951Y21949D01*
X231199Y22526D01*
X230323Y22888D01*
X229383Y23012D01*
D02*
G37*
G36*
X219383D02*
X218443Y22888D01*
X217568Y22526D01*
X216816Y21949D01*
X216239Y21197D01*
X215876Y20321D01*
X215752Y19381D01*
X215876Y18441D01*
X216239Y17566D01*
X216816Y16814D01*
X217568Y16236D01*
X218443Y15874D01*
X219383Y15750D01*
X220323Y15874D01*
X221199Y16236D01*
X221951Y16814D01*
X222528Y17566D01*
X222890Y18441D01*
X223014Y19381D01*
X222890Y20321D01*
X222528Y21197D01*
X221951Y21949D01*
X221199Y22526D01*
X220323Y22888D01*
X219383Y23012D01*
D02*
G37*
G36*
X209383D02*
X208443Y22888D01*
X207568Y22526D01*
X206816Y21949D01*
X206239Y21197D01*
X205876Y20321D01*
X205752Y19381D01*
X205876Y18441D01*
X206239Y17566D01*
X206816Y16814D01*
X207568Y16236D01*
X208443Y15874D01*
X209383Y15750D01*
X210323Y15874D01*
X211199Y16236D01*
X211951Y16814D01*
X212528Y17566D01*
X212891Y18441D01*
X213014Y19381D01*
X212891Y20321D01*
X212528Y21197D01*
X211951Y21949D01*
X211199Y22526D01*
X210323Y22888D01*
X209383Y23012D01*
D02*
G37*
G36*
X259383D02*
X258443Y22888D01*
X257568Y22526D01*
X256816Y21949D01*
X256239Y21197D01*
X255876Y20321D01*
X255752Y19381D01*
X255876Y18441D01*
X256239Y17566D01*
X256816Y16814D01*
X257568Y16236D01*
X258443Y15874D01*
X259383Y15750D01*
X260323Y15874D01*
X261199Y16236D01*
X261951Y16814D01*
X262528Y17566D01*
X262891Y18441D01*
X263014Y19381D01*
X262891Y20321D01*
X262528Y21197D01*
X261951Y21949D01*
X261199Y22526D01*
X260323Y22888D01*
X259383Y23012D01*
D02*
G37*
G36*
X249383D02*
X248443Y22888D01*
X247568Y22526D01*
X246816Y21949D01*
X246239Y21197D01*
X245876Y20321D01*
X245752Y19381D01*
X245876Y18441D01*
X246239Y17566D01*
X246816Y16814D01*
X247568Y16236D01*
X248443Y15874D01*
X249383Y15750D01*
X250323Y15874D01*
X251199Y16236D01*
X251951Y16814D01*
X252528Y17566D01*
X252890Y18441D01*
X253014Y19381D01*
X252890Y20321D01*
X252528Y21197D01*
X251951Y21949D01*
X251199Y22526D01*
X250323Y22888D01*
X249383Y23012D01*
D02*
G37*
G36*
X239383D02*
X238443Y22888D01*
X237568Y22526D01*
X236816Y21949D01*
X236239Y21197D01*
X235876Y20321D01*
X235752Y19381D01*
X235876Y18441D01*
X236239Y17566D01*
X236816Y16814D01*
X237568Y16236D01*
X238443Y15874D01*
X239383Y15750D01*
X240323Y15874D01*
X241199Y16236D01*
X241951Y16814D01*
X242528Y17566D01*
X242891Y18441D01*
X243014Y19381D01*
X242891Y20321D01*
X242528Y21197D01*
X241951Y21949D01*
X241199Y22526D01*
X240323Y22888D01*
X239383Y23012D01*
D02*
G37*
G36*
X129383D02*
X128443Y22888D01*
X127568Y22526D01*
X126816Y21949D01*
X126239Y21197D01*
X125876Y20321D01*
X125752Y19381D01*
X125876Y18441D01*
X126239Y17566D01*
X126816Y16814D01*
X127568Y16236D01*
X128443Y15874D01*
X129383Y15750D01*
X130323Y15874D01*
X131199Y16236D01*
X131951Y16814D01*
X132528Y17566D01*
X132890Y18441D01*
X133014Y19381D01*
X132890Y20321D01*
X132528Y21197D01*
X131951Y21949D01*
X131199Y22526D01*
X130323Y22888D01*
X129383Y23012D01*
D02*
G37*
G36*
X119383D02*
X118443Y22888D01*
X117568Y22526D01*
X116816Y21949D01*
X116239Y21197D01*
X115876Y20321D01*
X115752Y19381D01*
X115876Y18441D01*
X116239Y17566D01*
X116816Y16814D01*
X117568Y16236D01*
X118443Y15874D01*
X119383Y15750D01*
X120323Y15874D01*
X121199Y16236D01*
X121951Y16814D01*
X122528Y17566D01*
X122890Y18441D01*
X123014Y19381D01*
X122890Y20321D01*
X122528Y21197D01*
X121951Y21949D01*
X121199Y22526D01*
X120323Y22888D01*
X119383Y23012D01*
D02*
G37*
G36*
X109383D02*
X108443Y22888D01*
X107568Y22526D01*
X106816Y21949D01*
X106239Y21197D01*
X105876Y20321D01*
X105752Y19381D01*
X105876Y18441D01*
X106239Y17566D01*
X106816Y16814D01*
X107568Y16236D01*
X108443Y15874D01*
X109383Y15750D01*
X110323Y15874D01*
X111199Y16236D01*
X111951Y16814D01*
X112528Y17566D01*
X112891Y18441D01*
X113014Y19381D01*
X112891Y20321D01*
X112528Y21197D01*
X111951Y21949D01*
X111199Y22526D01*
X110323Y22888D01*
X109383Y23012D01*
D02*
G37*
G36*
X199383D02*
X198443Y22888D01*
X197568Y22526D01*
X196816Y21949D01*
X196239Y21197D01*
X195876Y20321D01*
X195752Y19381D01*
X195876Y18441D01*
X196239Y17566D01*
X196816Y16814D01*
X197568Y16236D01*
X198443Y15874D01*
X199383Y15750D01*
X200323Y15874D01*
X201199Y16236D01*
X201951Y16814D01*
X202528Y17566D01*
X202890Y18441D01*
X203014Y19381D01*
X202890Y20321D01*
X202528Y21197D01*
X201951Y21949D01*
X201199Y22526D01*
X200323Y22888D01*
X199383Y23012D01*
D02*
G37*
G36*
X189383D02*
X188443Y22888D01*
X187568Y22526D01*
X186816Y21949D01*
X186239Y21197D01*
X185876Y20321D01*
X185752Y19381D01*
X185876Y18441D01*
X186239Y17566D01*
X186816Y16814D01*
X187568Y16236D01*
X188443Y15874D01*
X189383Y15750D01*
X190323Y15874D01*
X191199Y16236D01*
X191951Y16814D01*
X192528Y17566D01*
X192891Y18441D01*
X193014Y19381D01*
X192891Y20321D01*
X192528Y21197D01*
X191951Y21949D01*
X191199Y22526D01*
X190323Y22888D01*
X189383Y23012D01*
D02*
G37*
G36*
X139383D02*
X138443Y22888D01*
X137568Y22526D01*
X136816Y21949D01*
X136239Y21197D01*
X135876Y20321D01*
X135752Y19381D01*
X135876Y18441D01*
X136239Y17566D01*
X136816Y16814D01*
X137568Y16236D01*
X138443Y15874D01*
X139383Y15750D01*
X140323Y15874D01*
X141199Y16236D01*
X141951Y16814D01*
X142528Y17566D01*
X142891Y18441D01*
X143014Y19381D01*
X142891Y20321D01*
X142528Y21197D01*
X141951Y21949D01*
X141199Y22526D01*
X140323Y22888D01*
X139383Y23012D01*
D02*
G37*
G36*
X261299Y28032D02*
X260636Y27901D01*
X260074Y27525D01*
X259698Y26963D01*
X259566Y26299D01*
X259698Y25636D01*
X260074Y25074D01*
X260636Y24698D01*
X261299Y24566D01*
X261963Y24698D01*
X262525Y25074D01*
X262901Y25636D01*
X263033Y26299D01*
X262901Y26963D01*
X262525Y27525D01*
X261963Y27901D01*
X261299Y28032D01*
D02*
G37*
G36*
X256299D02*
X255636Y27901D01*
X255074Y27525D01*
X254698Y26963D01*
X254566Y26299D01*
X254698Y25636D01*
X255074Y25074D01*
X255636Y24698D01*
X256299Y24566D01*
X256962Y24698D01*
X257525Y25074D01*
X257901Y25636D01*
X258032Y26299D01*
X257901Y26963D01*
X257525Y27525D01*
X256962Y27901D01*
X256299Y28032D01*
D02*
G37*
G36*
X251299D02*
X250636Y27901D01*
X250074Y27525D01*
X249698Y26963D01*
X249566Y26299D01*
X249698Y25636D01*
X250074Y25074D01*
X250636Y24698D01*
X251299Y24566D01*
X251962Y24698D01*
X252525Y25074D01*
X252901Y25636D01*
X253032Y26299D01*
X252901Y26963D01*
X252525Y27525D01*
X251962Y27901D01*
X251299Y28032D01*
D02*
G37*
G36*
X276299D02*
X275636Y27901D01*
X275074Y27525D01*
X274698Y26963D01*
X274566Y26299D01*
X274698Y25636D01*
X275074Y25074D01*
X275636Y24698D01*
X276299Y24566D01*
X276962Y24698D01*
X277525Y25074D01*
X277901Y25636D01*
X278032Y26299D01*
X277901Y26963D01*
X277525Y27525D01*
X276962Y27901D01*
X276299Y28032D01*
D02*
G37*
G36*
X271299D02*
X270636Y27901D01*
X270074Y27525D01*
X269698Y26963D01*
X269566Y26299D01*
X269698Y25636D01*
X270074Y25074D01*
X270636Y24698D01*
X271299Y24566D01*
X271962Y24698D01*
X272525Y25074D01*
X272901Y25636D01*
X273032Y26299D01*
X272901Y26963D01*
X272525Y27525D01*
X271962Y27901D01*
X271299Y28032D01*
D02*
G37*
G36*
X266299D02*
X265636Y27901D01*
X265074Y27525D01*
X264698Y26963D01*
X264566Y26299D01*
X264698Y25636D01*
X265074Y25074D01*
X265636Y24698D01*
X266299Y24566D01*
X266963Y24698D01*
X267525Y25074D01*
X267901Y25636D01*
X268033Y26299D01*
X267901Y26963D01*
X267525Y27525D01*
X266963Y27901D01*
X266299Y28032D01*
D02*
G37*
G36*
X289383Y23012D02*
X288443Y22888D01*
X287568Y22526D01*
X286816Y21949D01*
X286239Y21197D01*
X285876Y20321D01*
X285752Y19381D01*
X285876Y18441D01*
X286239Y17566D01*
X286816Y16814D01*
X287568Y16236D01*
X288443Y15874D01*
X289383Y15750D01*
X290323Y15874D01*
X291199Y16236D01*
X291951Y16814D01*
X292528Y17566D01*
X292891Y18441D01*
X293014Y19381D01*
X292891Y20321D01*
X292528Y21197D01*
X291951Y21949D01*
X291199Y22526D01*
X290323Y22888D01*
X289383Y23012D01*
D02*
G37*
G36*
X279383D02*
X278443Y22888D01*
X277568Y22526D01*
X276816Y21949D01*
X276239Y21197D01*
X275876Y20321D01*
X275752Y19381D01*
X275876Y18441D01*
X276239Y17566D01*
X276816Y16814D01*
X277568Y16236D01*
X278443Y15874D01*
X279383Y15750D01*
X280323Y15874D01*
X281199Y16236D01*
X281951Y16814D01*
X282528Y17566D01*
X282891Y18441D01*
X283014Y19381D01*
X282891Y20321D01*
X282528Y21197D01*
X281951Y21949D01*
X281199Y22526D01*
X280323Y22888D01*
X279383Y23012D01*
D02*
G37*
G36*
X269383D02*
X268443Y22888D01*
X267568Y22526D01*
X266816Y21949D01*
X266239Y21197D01*
X265876Y20321D01*
X265752Y19381D01*
X265876Y18441D01*
X266239Y17566D01*
X266816Y16814D01*
X267568Y16236D01*
X268443Y15874D01*
X269383Y15750D01*
X270323Y15874D01*
X271199Y16236D01*
X271951Y16814D01*
X272528Y17566D01*
X272890Y18441D01*
X273014Y19381D01*
X272890Y20321D01*
X272528Y21197D01*
X271951Y21949D01*
X271199Y22526D01*
X270323Y22888D01*
X269383Y23012D01*
D02*
G37*
G36*
X209201Y36733D02*
X208538Y36601D01*
X207975Y36226D01*
X207599Y35663D01*
X207468Y35000D01*
X207516Y34757D01*
X202278Y29520D01*
X188619D01*
X188229Y29442D01*
X187898Y29221D01*
X181201Y22524D01*
X181199Y22526D01*
X180323Y22888D01*
X179383Y23012D01*
X178443Y22888D01*
X177568Y22526D01*
X176816Y21949D01*
X176239Y21197D01*
X176020Y20668D01*
X175520Y20767D01*
Y24000D01*
X175442Y24390D01*
X175221Y24721D01*
X173220Y26722D01*
Y33637D01*
X173426Y33774D01*
X173802Y34337D01*
X173934Y35000D01*
X173802Y35663D01*
X173426Y36226D01*
X172864Y36601D01*
X172201Y36733D01*
X171537Y36601D01*
X170975Y36226D01*
X170599Y35663D01*
X170467Y35000D01*
X170599Y34337D01*
X170975Y33774D01*
X171181Y33637D01*
Y26299D01*
X171259Y25909D01*
X171480Y25578D01*
X173480Y23578D01*
Y19670D01*
X172980Y19638D01*
X172890Y20321D01*
X172528Y21197D01*
X171951Y21949D01*
X171199Y22526D01*
X170323Y22888D01*
X169383Y23012D01*
X168443Y22888D01*
X167568Y22526D01*
X166816Y21949D01*
X166239Y21197D01*
X165876Y20321D01*
X165752Y19381D01*
X165876Y18441D01*
X166239Y17566D01*
X166816Y16814D01*
X167568Y16236D01*
X168443Y15874D01*
X169383Y15750D01*
X170323Y15874D01*
X171199Y16236D01*
X171951Y16814D01*
X172528Y17566D01*
X172890Y18441D01*
X172980Y19124D01*
X173480Y19092D01*
Y14383D01*
X173558Y13993D01*
X173779Y13662D01*
X176241Y11200D01*
X176239Y11197D01*
X175876Y10321D01*
X175752Y9381D01*
X175876Y8441D01*
X176239Y7565D01*
X176816Y6814D01*
X177568Y6236D01*
X178443Y5874D01*
X179383Y5750D01*
X180323Y5874D01*
X181199Y6236D01*
X181951Y6814D01*
X182528Y7565D01*
X182890Y8441D01*
X183014Y9381D01*
X182890Y10321D01*
X182528Y11197D01*
X181951Y11949D01*
X181199Y12526D01*
X180323Y12888D01*
X179383Y13012D01*
X178443Y12888D01*
X177732Y12594D01*
X175520Y14806D01*
Y17995D01*
X176020Y18094D01*
X176239Y17566D01*
X176816Y16814D01*
X177568Y16236D01*
X178443Y15874D01*
X179383Y15750D01*
X180323Y15874D01*
X181199Y16236D01*
X181951Y16814D01*
X182528Y17566D01*
X182890Y18441D01*
X183014Y19381D01*
X182890Y20321D01*
X182595Y21034D01*
X189041Y27480D01*
X202701D01*
X203091Y27558D01*
X203422Y27779D01*
X208958Y33315D01*
X209201Y33267D01*
X209864Y33399D01*
X210426Y33774D01*
X210802Y34337D01*
X210934Y35000D01*
X210802Y35663D01*
X210426Y36226D01*
X209864Y36601D01*
X209201Y36733D01*
D02*
G37*
G36*
X153701D02*
X153038Y36601D01*
X152475Y36226D01*
X152099Y35663D01*
X151968Y35000D01*
X152099Y34337D01*
X152475Y33774D01*
X152681Y33637D01*
Y21818D01*
X152181Y21648D01*
X151951Y21949D01*
X151199Y22526D01*
X150323Y22888D01*
X149383Y23012D01*
X148443Y22888D01*
X147568Y22526D01*
X146816Y21949D01*
X146239Y21197D01*
X145876Y20321D01*
X145752Y19381D01*
X145876Y18441D01*
X146239Y17566D01*
X146816Y16814D01*
X147568Y16236D01*
X148443Y15874D01*
X149383Y15750D01*
X150323Y15874D01*
X151199Y16236D01*
X151951Y16814D01*
X152181Y17114D01*
X152681Y16944D01*
Y15180D01*
X152759Y14790D01*
X152980Y14459D01*
X156240Y11199D01*
X156239Y11197D01*
X155876Y10321D01*
X155752Y9381D01*
X155876Y8441D01*
X156239Y7565D01*
X156816Y6814D01*
X157568Y6236D01*
X158443Y5874D01*
X159383Y5750D01*
X160323Y5874D01*
X161199Y6236D01*
X161951Y6814D01*
X162528Y7565D01*
X162891Y8441D01*
X163014Y9381D01*
X162891Y10321D01*
X162528Y11197D01*
X161951Y11949D01*
X161199Y12526D01*
X160323Y12888D01*
X159383Y13012D01*
X158443Y12888D01*
X157730Y12593D01*
X154720Y15603D01*
Y33637D01*
X154926Y33774D01*
X155302Y34337D01*
X155434Y35000D01*
X155302Y35663D01*
X154926Y36226D01*
X154364Y36601D01*
X153701Y36733D01*
D02*
G37*
G36*
X299383Y23012D02*
X298443Y22888D01*
X297568Y22526D01*
X296816Y21949D01*
X296239Y21197D01*
X295876Y20321D01*
X295752Y19381D01*
X295876Y18441D01*
X296239Y17566D01*
X296816Y16814D01*
X297568Y16236D01*
X298443Y15874D01*
X299383Y15750D01*
X300323Y15874D01*
X301199Y16236D01*
X301951Y16814D01*
X302528Y17566D01*
X302890Y18441D01*
X303014Y19381D01*
X302890Y20321D01*
X302528Y21197D01*
X301951Y21949D01*
X301199Y22526D01*
X300323Y22888D01*
X299383Y23012D01*
D02*
G37*
G36*
X189383Y13012D02*
X188443Y12888D01*
X187568Y12526D01*
X186816Y11949D01*
X186239Y11197D01*
X185876Y10321D01*
X185752Y9381D01*
X185876Y8441D01*
X186239Y7565D01*
X186816Y6814D01*
X187568Y6236D01*
X188443Y5874D01*
X189383Y5750D01*
X190323Y5874D01*
X191199Y6236D01*
X191951Y6814D01*
X192528Y7565D01*
X192891Y8441D01*
X193014Y9381D01*
X192891Y10321D01*
X192528Y11197D01*
X191951Y11949D01*
X191199Y12526D01*
X190323Y12888D01*
X189383Y13012D01*
D02*
G37*
G36*
X169383D02*
X168443Y12888D01*
X167568Y12526D01*
X166816Y11949D01*
X166239Y11197D01*
X165876Y10321D01*
X165752Y9381D01*
X165876Y8441D01*
X166239Y7565D01*
X166816Y6814D01*
X167568Y6236D01*
X168443Y5874D01*
X169383Y5750D01*
X170323Y5874D01*
X171199Y6236D01*
X171951Y6814D01*
X172528Y7565D01*
X172890Y8441D01*
X173014Y9381D01*
X172890Y10321D01*
X172528Y11197D01*
X171951Y11949D01*
X171199Y12526D01*
X170323Y12888D01*
X169383Y13012D01*
D02*
G37*
G36*
X149383D02*
X148443Y12888D01*
X147568Y12526D01*
X146816Y11949D01*
X146239Y11197D01*
X145876Y10321D01*
X145752Y9381D01*
X145876Y8441D01*
X146239Y7565D01*
X146816Y6814D01*
X147568Y6236D01*
X148443Y5874D01*
X149383Y5750D01*
X150323Y5874D01*
X151199Y6236D01*
X151951Y6814D01*
X152528Y7565D01*
X152891Y8441D01*
X153014Y9381D01*
X152891Y10321D01*
X152528Y11197D01*
X151951Y11949D01*
X151199Y12526D01*
X150323Y12888D01*
X149383Y13012D01*
D02*
G37*
G36*
X219383D02*
X218443Y12888D01*
X217568Y12526D01*
X216816Y11949D01*
X216239Y11197D01*
X215876Y10321D01*
X215752Y9381D01*
X215876Y8441D01*
X216239Y7565D01*
X216816Y6814D01*
X217568Y6236D01*
X218443Y5874D01*
X219383Y5750D01*
X220323Y5874D01*
X221199Y6236D01*
X221951Y6814D01*
X222528Y7565D01*
X222890Y8441D01*
X223014Y9381D01*
X222890Y10321D01*
X222528Y11197D01*
X221951Y11949D01*
X221199Y12526D01*
X220323Y12888D01*
X219383Y13012D01*
D02*
G37*
G36*
X209383D02*
X208443Y12888D01*
X207568Y12526D01*
X206816Y11949D01*
X206239Y11197D01*
X205876Y10321D01*
X205752Y9381D01*
X205876Y8441D01*
X206239Y7565D01*
X206816Y6814D01*
X207568Y6236D01*
X208443Y5874D01*
X209383Y5750D01*
X210323Y5874D01*
X211199Y6236D01*
X211951Y6814D01*
X212528Y7565D01*
X212891Y8441D01*
X213014Y9381D01*
X212891Y10321D01*
X212528Y11197D01*
X211951Y11949D01*
X211199Y12526D01*
X210323Y12888D01*
X209383Y13012D01*
D02*
G37*
G36*
X199383D02*
X198443Y12888D01*
X197568Y12526D01*
X196816Y11949D01*
X196239Y11197D01*
X195876Y10321D01*
X195752Y9381D01*
X195876Y8441D01*
X196239Y7565D01*
X196816Y6814D01*
X197568Y6236D01*
X198443Y5874D01*
X199383Y5750D01*
X200323Y5874D01*
X201199Y6236D01*
X201951Y6814D01*
X202528Y7565D01*
X202890Y8441D01*
X203014Y9381D01*
X202890Y10321D01*
X202528Y11197D01*
X201951Y11949D01*
X201199Y12526D01*
X200323Y12888D01*
X199383Y13012D01*
D02*
G37*
G36*
X109383D02*
X108443Y12888D01*
X107568Y12526D01*
X106816Y11949D01*
X106239Y11197D01*
X105876Y10321D01*
X105752Y9381D01*
X105876Y8441D01*
X106239Y7565D01*
X106816Y6814D01*
X107568Y6236D01*
X108443Y5874D01*
X109383Y5750D01*
X110323Y5874D01*
X111199Y6236D01*
X111951Y6814D01*
X112528Y7565D01*
X112891Y8441D01*
X113014Y9381D01*
X112891Y10321D01*
X112528Y11197D01*
X111951Y11949D01*
X111199Y12526D01*
X110323Y12888D01*
X109383Y13012D01*
D02*
G37*
G36*
X99383D02*
X98443Y12888D01*
X97568Y12526D01*
X96816Y11949D01*
X96239Y11197D01*
X95876Y10321D01*
X95752Y9381D01*
X95876Y8441D01*
X96239Y7565D01*
X96816Y6814D01*
X97568Y6236D01*
X98443Y5874D01*
X99383Y5750D01*
X100323Y5874D01*
X101199Y6236D01*
X101951Y6814D01*
X102528Y7565D01*
X102891Y8441D01*
X103014Y9381D01*
X102891Y10321D01*
X102528Y11197D01*
X101951Y11949D01*
X101199Y12526D01*
X100323Y12888D01*
X99383Y13012D01*
D02*
G37*
G36*
X89383D02*
X88443Y12888D01*
X87568Y12526D01*
X86816Y11949D01*
X86239Y11197D01*
X85876Y10321D01*
X85752Y9381D01*
X85876Y8441D01*
X86239Y7565D01*
X86816Y6814D01*
X87568Y6236D01*
X88443Y5874D01*
X89383Y5750D01*
X90323Y5874D01*
X91199Y6236D01*
X91951Y6814D01*
X92528Y7565D01*
X92891Y8441D01*
X93014Y9381D01*
X92891Y10321D01*
X92528Y11197D01*
X91951Y11949D01*
X91199Y12526D01*
X90323Y12888D01*
X89383Y13012D01*
D02*
G37*
G36*
X139383D02*
X138443Y12888D01*
X137568Y12526D01*
X136816Y11949D01*
X136239Y11197D01*
X135876Y10321D01*
X135752Y9381D01*
X135876Y8441D01*
X136239Y7565D01*
X136816Y6814D01*
X137568Y6236D01*
X138443Y5874D01*
X139383Y5750D01*
X140323Y5874D01*
X141199Y6236D01*
X141951Y6814D01*
X142528Y7565D01*
X142891Y8441D01*
X143014Y9381D01*
X142891Y10321D01*
X142528Y11197D01*
X141951Y11949D01*
X141199Y12526D01*
X140323Y12888D01*
X139383Y13012D01*
D02*
G37*
G36*
X129383D02*
X128443Y12888D01*
X127568Y12526D01*
X126816Y11949D01*
X126239Y11197D01*
X125876Y10321D01*
X125752Y9381D01*
X125876Y8441D01*
X126239Y7565D01*
X126816Y6814D01*
X127568Y6236D01*
X128443Y5874D01*
X129383Y5750D01*
X130323Y5874D01*
X131199Y6236D01*
X131951Y6814D01*
X132528Y7565D01*
X132890Y8441D01*
X133014Y9381D01*
X132890Y10321D01*
X132528Y11197D01*
X131951Y11949D01*
X131199Y12526D01*
X130323Y12888D01*
X129383Y13012D01*
D02*
G37*
G36*
X119383D02*
X118443Y12888D01*
X117568Y12526D01*
X116816Y11949D01*
X116239Y11197D01*
X115876Y10321D01*
X115752Y9381D01*
X115876Y8441D01*
X116239Y7565D01*
X116816Y6814D01*
X117568Y6236D01*
X118443Y5874D01*
X119383Y5750D01*
X120323Y5874D01*
X121199Y6236D01*
X121951Y6814D01*
X122528Y7565D01*
X122890Y8441D01*
X123014Y9381D01*
X122890Y10321D01*
X122528Y11197D01*
X121951Y11949D01*
X121199Y12526D01*
X120323Y12888D01*
X119383Y13012D01*
D02*
G37*
G36*
X82983Y12981D02*
X75783D01*
Y5781D01*
X82983D01*
Y12981D01*
D02*
G37*
G36*
X299383Y13012D02*
X298443Y12888D01*
X297568Y12526D01*
X296816Y11949D01*
X296239Y11197D01*
X295876Y10321D01*
X295752Y9381D01*
X295876Y8441D01*
X296239Y7565D01*
X296816Y6814D01*
X297568Y6236D01*
X298443Y5874D01*
X299383Y5750D01*
X300323Y5874D01*
X301199Y6236D01*
X301951Y6814D01*
X302528Y7565D01*
X302890Y8441D01*
X303014Y9381D01*
X302890Y10321D01*
X302528Y11197D01*
X301951Y11949D01*
X301199Y12526D01*
X300323Y12888D01*
X299383Y13012D01*
D02*
G37*
G36*
X289383D02*
X288443Y12888D01*
X287568Y12526D01*
X286816Y11949D01*
X286239Y11197D01*
X285876Y10321D01*
X285752Y9381D01*
X285876Y8441D01*
X286239Y7565D01*
X286816Y6814D01*
X287568Y6236D01*
X288443Y5874D01*
X289383Y5750D01*
X290323Y5874D01*
X291199Y6236D01*
X291951Y6814D01*
X292528Y7565D01*
X292891Y8441D01*
X293014Y9381D01*
X292891Y10321D01*
X292528Y11197D01*
X291951Y11949D01*
X291199Y12526D01*
X290323Y12888D01*
X289383Y13012D01*
D02*
G37*
G36*
X99383Y23012D02*
X98443Y22888D01*
X97568Y22526D01*
X96816Y21949D01*
X96239Y21197D01*
X95876Y20321D01*
X95752Y19381D01*
X95876Y18441D01*
X96239Y17566D01*
X96816Y16814D01*
X97568Y16236D01*
X98443Y15874D01*
X99383Y15750D01*
X100323Y15874D01*
X101199Y16236D01*
X101951Y16814D01*
X102528Y17566D01*
X102891Y18441D01*
X103014Y19381D01*
X102891Y20321D01*
X102528Y21197D01*
X101951Y21949D01*
X101199Y22526D01*
X100323Y22888D01*
X99383Y23012D01*
D02*
G37*
G36*
X89383D02*
X88443Y22888D01*
X87568Y22526D01*
X86816Y21949D01*
X86239Y21197D01*
X85876Y20321D01*
X85752Y19381D01*
X85876Y18441D01*
X86239Y17566D01*
X86816Y16814D01*
X87568Y16236D01*
X88443Y15874D01*
X89383Y15750D01*
X90323Y15874D01*
X91199Y16236D01*
X91951Y16814D01*
X92528Y17566D01*
X92891Y18441D01*
X93014Y19381D01*
X92891Y20321D01*
X92528Y21197D01*
X91951Y21949D01*
X91199Y22526D01*
X90323Y22888D01*
X89383Y23012D01*
D02*
G37*
G36*
X79383D02*
X78443Y22888D01*
X77568Y22526D01*
X76816Y21949D01*
X76239Y21197D01*
X75876Y20321D01*
X75752Y19381D01*
X75876Y18441D01*
X76239Y17566D01*
X76816Y16814D01*
X77568Y16236D01*
X78443Y15874D01*
X79383Y15750D01*
X80323Y15874D01*
X81199Y16236D01*
X81951Y16814D01*
X82528Y17566D01*
X82890Y18441D01*
X83014Y19381D01*
X82890Y20321D01*
X82528Y21197D01*
X81951Y21949D01*
X81199Y22526D01*
X80323Y22888D01*
X79383Y23012D01*
D02*
G37*
G36*
X249383Y13012D02*
X248443Y12888D01*
X247568Y12526D01*
X246816Y11949D01*
X246239Y11197D01*
X245876Y10321D01*
X245752Y9381D01*
X245876Y8441D01*
X246239Y7565D01*
X246816Y6814D01*
X247568Y6236D01*
X248443Y5874D01*
X249383Y5750D01*
X250323Y5874D01*
X251199Y6236D01*
X251951Y6814D01*
X252528Y7565D01*
X252890Y8441D01*
X253014Y9381D01*
X252890Y10321D01*
X252528Y11197D01*
X251951Y11949D01*
X251199Y12526D01*
X250323Y12888D01*
X249383Y13012D01*
D02*
G37*
G36*
X239383D02*
X238443Y12888D01*
X237568Y12526D01*
X236816Y11949D01*
X236239Y11197D01*
X235876Y10321D01*
X235752Y9381D01*
X235876Y8441D01*
X236239Y7565D01*
X236816Y6814D01*
X237568Y6236D01*
X238443Y5874D01*
X239383Y5750D01*
X240323Y5874D01*
X241199Y6236D01*
X241951Y6814D01*
X242528Y7565D01*
X242891Y8441D01*
X243014Y9381D01*
X242891Y10321D01*
X242528Y11197D01*
X241951Y11949D01*
X241199Y12526D01*
X240323Y12888D01*
X239383Y13012D01*
D02*
G37*
G36*
X229383D02*
X228443Y12888D01*
X227568Y12526D01*
X226816Y11949D01*
X226239Y11197D01*
X225876Y10321D01*
X225752Y9381D01*
X225876Y8441D01*
X226239Y7565D01*
X226816Y6814D01*
X227568Y6236D01*
X228443Y5874D01*
X229383Y5750D01*
X230323Y5874D01*
X231199Y6236D01*
X231951Y6814D01*
X232528Y7565D01*
X232891Y8441D01*
X233014Y9381D01*
X232891Y10321D01*
X232528Y11197D01*
X231951Y11949D01*
X231199Y12526D01*
X230323Y12888D01*
X229383Y13012D01*
D02*
G37*
G36*
X279383D02*
X278443Y12888D01*
X277568Y12526D01*
X276816Y11949D01*
X276239Y11197D01*
X275876Y10321D01*
X275752Y9381D01*
X275876Y8441D01*
X276239Y7565D01*
X276816Y6814D01*
X277568Y6236D01*
X278443Y5874D01*
X279383Y5750D01*
X280323Y5874D01*
X281199Y6236D01*
X281951Y6814D01*
X282528Y7565D01*
X282891Y8441D01*
X283014Y9381D01*
X282891Y10321D01*
X282528Y11197D01*
X281951Y11949D01*
X281199Y12526D01*
X280323Y12888D01*
X279383Y13012D01*
D02*
G37*
G36*
X269383D02*
X268443Y12888D01*
X267568Y12526D01*
X266816Y11949D01*
X266239Y11197D01*
X265876Y10321D01*
X265752Y9381D01*
X265876Y8441D01*
X266239Y7565D01*
X266816Y6814D01*
X267568Y6236D01*
X268443Y5874D01*
X269383Y5750D01*
X270323Y5874D01*
X271199Y6236D01*
X271951Y6814D01*
X272528Y7565D01*
X272890Y8441D01*
X273014Y9381D01*
X272890Y10321D01*
X272528Y11197D01*
X271951Y11949D01*
X271199Y12526D01*
X270323Y12888D01*
X269383Y13012D01*
D02*
G37*
G36*
X259383D02*
X258443Y12888D01*
X257568Y12526D01*
X256816Y11949D01*
X256239Y11197D01*
X255876Y10321D01*
X255752Y9381D01*
X255876Y8441D01*
X256239Y7565D01*
X256816Y6814D01*
X257568Y6236D01*
X258443Y5874D01*
X259383Y5750D01*
X260323Y5874D01*
X261199Y6236D01*
X261951Y6814D01*
X262528Y7565D01*
X262891Y8441D01*
X263014Y9381D01*
X262891Y10321D01*
X262528Y11197D01*
X261951Y11949D01*
X261199Y12526D01*
X260323Y12888D01*
X259383Y13012D01*
D02*
G37*
G36*
X281299Y28032D02*
X280636Y27901D01*
X280074Y27525D01*
X279698Y26963D01*
X279566Y26299D01*
X279698Y25636D01*
X280074Y25074D01*
X280636Y24698D01*
X281299Y24566D01*
X281962Y24698D01*
X282525Y25074D01*
X282901Y25636D01*
X283032Y26299D01*
X282901Y26963D01*
X282525Y27525D01*
X281962Y27901D01*
X281299Y28032D01*
D02*
G37*
G36*
X266299Y48033D02*
X265636Y47901D01*
X265074Y47525D01*
X264698Y46962D01*
X264566Y46299D01*
X264698Y45636D01*
X265074Y45074D01*
X265636Y44698D01*
X266299Y44566D01*
X266963Y44698D01*
X267525Y45074D01*
X267901Y45636D01*
X268033Y46299D01*
X267901Y46962D01*
X267525Y47525D01*
X266963Y47901D01*
X266299Y48033D01*
D02*
G37*
G36*
X261299D02*
X260636Y47901D01*
X260074Y47525D01*
X259698Y46962D01*
X259566Y46299D01*
X259698Y45636D01*
X260074Y45074D01*
X260636Y44698D01*
X261299Y44566D01*
X261963Y44698D01*
X262525Y45074D01*
X262901Y45636D01*
X263033Y46299D01*
X262901Y46962D01*
X262525Y47525D01*
X261963Y47901D01*
X261299Y48033D01*
D02*
G37*
G36*
X256299D02*
X255636Y47901D01*
X255074Y47525D01*
X254698Y46962D01*
X254566Y46299D01*
X254698Y45636D01*
X255074Y45074D01*
X255636Y44698D01*
X256299Y44566D01*
X256962Y44698D01*
X257525Y45074D01*
X257901Y45636D01*
X258032Y46299D01*
X257901Y46962D01*
X257525Y47525D01*
X256962Y47901D01*
X256299Y48033D01*
D02*
G37*
G36*
X281299D02*
X280636Y47901D01*
X280074Y47525D01*
X279698Y46962D01*
X279566Y46299D01*
X279698Y45636D01*
X280074Y45074D01*
X280636Y44698D01*
X281299Y44566D01*
X281962Y44698D01*
X282525Y45074D01*
X282901Y45636D01*
X283032Y46299D01*
X282901Y46962D01*
X282525Y47525D01*
X281962Y47901D01*
X281299Y48033D01*
D02*
G37*
G36*
X276299D02*
X275636Y47901D01*
X275074Y47525D01*
X274698Y46962D01*
X274566Y46299D01*
X274698Y45636D01*
X275074Y45074D01*
X275636Y44698D01*
X276299Y44566D01*
X276962Y44698D01*
X277525Y45074D01*
X277901Y45636D01*
X278032Y46299D01*
X277901Y46962D01*
X277525Y47525D01*
X276962Y47901D01*
X276299Y48033D01*
D02*
G37*
G36*
X271299D02*
X270636Y47901D01*
X270074Y47525D01*
X269698Y46962D01*
X269566Y46299D01*
X269698Y45636D01*
X270074Y45074D01*
X270636Y44698D01*
X271299Y44566D01*
X271962Y44698D01*
X272525Y45074D01*
X272901Y45636D01*
X273032Y46299D01*
X272901Y46962D01*
X272525Y47525D01*
X271962Y47901D01*
X271299Y48033D01*
D02*
G37*
G36*
X278799Y43033D02*
X278136Y42901D01*
X277574Y42525D01*
X277198Y41963D01*
X277066Y41299D01*
X277198Y40636D01*
X277574Y40074D01*
X278136Y39698D01*
X278799Y39566D01*
X279463Y39698D01*
X280025Y40074D01*
X280401Y40636D01*
X280533Y41299D01*
X280401Y41963D01*
X280025Y42525D01*
X279463Y42901D01*
X278799Y43033D01*
D02*
G37*
G36*
X273799D02*
X273136Y42901D01*
X272574Y42525D01*
X272198Y41963D01*
X272066Y41299D01*
X272198Y40636D01*
X272574Y40074D01*
X273136Y39698D01*
X273799Y39566D01*
X274463Y39698D01*
X275025Y40074D01*
X275401Y40636D01*
X275533Y41299D01*
X275401Y41963D01*
X275025Y42525D01*
X274463Y42901D01*
X273799Y43033D01*
D02*
G37*
G36*
X268799D02*
X268136Y42901D01*
X267574Y42525D01*
X267198Y41963D01*
X267066Y41299D01*
X267198Y40636D01*
X267574Y40074D01*
X268136Y39698D01*
X268799Y39566D01*
X269462Y39698D01*
X270025Y40074D01*
X270401Y40636D01*
X270532Y41299D01*
X270401Y41963D01*
X270025Y42525D01*
X269462Y42901D01*
X268799Y43033D01*
D02*
G37*
G36*
X251299Y48033D02*
X250636Y47901D01*
X250074Y47525D01*
X249698Y46962D01*
X249566Y46299D01*
X249698Y45636D01*
X250074Y45074D01*
X250636Y44698D01*
X251299Y44566D01*
X251962Y44698D01*
X252525Y45074D01*
X252901Y45636D01*
X253032Y46299D01*
X252901Y46962D01*
X252525Y47525D01*
X251962Y47901D01*
X251299Y48033D01*
D02*
G37*
G36*
X288799Y43033D02*
X288136Y42901D01*
X287574Y42525D01*
X287198Y41963D01*
X287066Y41299D01*
X287198Y40636D01*
X287574Y40074D01*
X288136Y39698D01*
X288799Y39566D01*
X289462Y39698D01*
X290025Y40074D01*
X290401Y40636D01*
X290532Y41299D01*
X290401Y41963D01*
X290025Y42525D01*
X289462Y42901D01*
X288799Y43033D01*
D02*
G37*
G36*
X283799D02*
X283136Y42901D01*
X282574Y42525D01*
X282198Y41963D01*
X282066Y41299D01*
X282198Y40636D01*
X282574Y40074D01*
X283136Y39698D01*
X283799Y39566D01*
X284462Y39698D01*
X285025Y40074D01*
X285401Y40636D01*
X285532Y41299D01*
X285401Y41963D01*
X285025Y42525D01*
X284462Y42901D01*
X283799Y43033D01*
D02*
G37*
G36*
Y53032D02*
X283136Y52901D01*
X282574Y52525D01*
X282198Y51963D01*
X282066Y51299D01*
X282198Y50636D01*
X282574Y50074D01*
X283136Y49698D01*
X283799Y49566D01*
X284462Y49698D01*
X285025Y50074D01*
X285401Y50636D01*
X285532Y51299D01*
X285401Y51963D01*
X285025Y52525D01*
X284462Y52901D01*
X283799Y53032D01*
D02*
G37*
G36*
X278799D02*
X278136Y52901D01*
X277574Y52525D01*
X277198Y51963D01*
X277066Y51299D01*
X277198Y50636D01*
X277574Y50074D01*
X278136Y49698D01*
X278799Y49566D01*
X279463Y49698D01*
X280025Y50074D01*
X280401Y50636D01*
X280533Y51299D01*
X280401Y51963D01*
X280025Y52525D01*
X279463Y52901D01*
X278799Y53032D01*
D02*
G37*
G36*
X273799D02*
X273136Y52901D01*
X272574Y52525D01*
X272198Y51963D01*
X272066Y51299D01*
X272198Y50636D01*
X272574Y50074D01*
X273136Y49698D01*
X273799Y49566D01*
X274463Y49698D01*
X275025Y50074D01*
X275401Y50636D01*
X275533Y51299D01*
X275401Y51963D01*
X275025Y52525D01*
X274463Y52901D01*
X273799Y53032D01*
D02*
G37*
G36*
X298799D02*
X298136Y52901D01*
X297574Y52525D01*
X297198Y51963D01*
X297066Y51299D01*
X297198Y50636D01*
X297574Y50074D01*
X298136Y49698D01*
X298799Y49566D01*
X299463Y49698D01*
X300025Y50074D01*
X300401Y50636D01*
X300533Y51299D01*
X300401Y51963D01*
X300025Y52525D01*
X299463Y52901D01*
X298799Y53032D01*
D02*
G37*
G36*
X293799D02*
X293136Y52901D01*
X292574Y52525D01*
X292198Y51963D01*
X292066Y51299D01*
X292198Y50636D01*
X292574Y50074D01*
X293136Y49698D01*
X293799Y49566D01*
X294462Y49698D01*
X295025Y50074D01*
X295401Y50636D01*
X295532Y51299D01*
X295401Y51963D01*
X295025Y52525D01*
X294462Y52901D01*
X293799Y53032D01*
D02*
G37*
G36*
X288799D02*
X288136Y52901D01*
X287574Y52525D01*
X287198Y51963D01*
X287066Y51299D01*
X287198Y50636D01*
X287574Y50074D01*
X288136Y49698D01*
X288799Y49566D01*
X289462Y49698D01*
X290025Y50074D01*
X290401Y50636D01*
X290532Y51299D01*
X290401Y51963D01*
X290025Y52525D01*
X289462Y52901D01*
X288799Y53032D01*
D02*
G37*
G36*
X253799D02*
X253136Y52901D01*
X252574Y52525D01*
X252198Y51963D01*
X252066Y51299D01*
X252198Y50636D01*
X252574Y50074D01*
X253136Y49698D01*
X253799Y49566D01*
X254463Y49698D01*
X255025Y50074D01*
X255401Y50636D01*
X255533Y51299D01*
X255401Y51963D01*
X255025Y52525D01*
X254463Y52901D01*
X253799Y53032D01*
D02*
G37*
G36*
X291299Y48033D02*
X290636Y47901D01*
X290074Y47525D01*
X289698Y46962D01*
X289566Y46299D01*
X289698Y45636D01*
X290074Y45074D01*
X290636Y44698D01*
X291299Y44566D01*
X291963Y44698D01*
X292525Y45074D01*
X292901Y45636D01*
X293033Y46299D01*
X292901Y46962D01*
X292525Y47525D01*
X291963Y47901D01*
X291299Y48033D01*
D02*
G37*
G36*
X286299D02*
X285636Y47901D01*
X285074Y47525D01*
X284698Y46962D01*
X284566Y46299D01*
X284698Y45636D01*
X285074Y45074D01*
X285636Y44698D01*
X286299Y44566D01*
X286963Y44698D01*
X287525Y45074D01*
X287901Y45636D01*
X288033Y46299D01*
X287901Y46962D01*
X287525Y47525D01*
X286963Y47901D01*
X286299Y48033D01*
D02*
G37*
G36*
X268799Y53032D02*
X268136Y52901D01*
X267574Y52525D01*
X267198Y51963D01*
X267066Y51299D01*
X267198Y50636D01*
X267574Y50074D01*
X268136Y49698D01*
X268799Y49566D01*
X269462Y49698D01*
X270025Y50074D01*
X270401Y50636D01*
X270532Y51299D01*
X270401Y51963D01*
X270025Y52525D01*
X269462Y52901D01*
X268799Y53032D01*
D02*
G37*
G36*
X263799D02*
X263136Y52901D01*
X262574Y52525D01*
X262198Y51963D01*
X262066Y51299D01*
X262198Y50636D01*
X262574Y50074D01*
X263136Y49698D01*
X263799Y49566D01*
X264462Y49698D01*
X265025Y50074D01*
X265401Y50636D01*
X265532Y51299D01*
X265401Y51963D01*
X265025Y52525D01*
X264462Y52901D01*
X263799Y53032D01*
D02*
G37*
G36*
X258799D02*
X258136Y52901D01*
X257574Y52525D01*
X257198Y51963D01*
X257066Y51299D01*
X257198Y50636D01*
X257574Y50074D01*
X258136Y49698D01*
X258799Y49566D01*
X259462Y49698D01*
X260025Y50074D01*
X260401Y50636D01*
X260532Y51299D01*
X260401Y51963D01*
X260025Y52525D01*
X259462Y52901D01*
X258799Y53032D01*
D02*
G37*
G36*
X273799Y33033D02*
X273136Y32901D01*
X272574Y32525D01*
X272198Y31962D01*
X272066Y31299D01*
X272198Y30636D01*
X272574Y30074D01*
X273136Y29698D01*
X273799Y29566D01*
X274463Y29698D01*
X275025Y30074D01*
X275401Y30636D01*
X275533Y31299D01*
X275401Y31962D01*
X275025Y32525D01*
X274463Y32901D01*
X273799Y33033D01*
D02*
G37*
G36*
X268799D02*
X268136Y32901D01*
X267574Y32525D01*
X267198Y31962D01*
X267066Y31299D01*
X267198Y30636D01*
X267574Y30074D01*
X268136Y29698D01*
X268799Y29566D01*
X269462Y29698D01*
X270025Y30074D01*
X270401Y30636D01*
X270532Y31299D01*
X270401Y31962D01*
X270025Y32525D01*
X269462Y32901D01*
X268799Y33033D01*
D02*
G37*
G36*
X263799D02*
X263136Y32901D01*
X262574Y32525D01*
X262198Y31962D01*
X262066Y31299D01*
X262198Y30636D01*
X262574Y30074D01*
X263136Y29698D01*
X263799Y29566D01*
X264462Y29698D01*
X265025Y30074D01*
X265401Y30636D01*
X265532Y31299D01*
X265401Y31962D01*
X265025Y32525D01*
X264462Y32901D01*
X263799Y33033D01*
D02*
G37*
G36*
X288799D02*
X288136Y32901D01*
X287574Y32525D01*
X287198Y31962D01*
X287066Y31299D01*
X287198Y30636D01*
X287574Y30074D01*
X288136Y29698D01*
X288799Y29566D01*
X289462Y29698D01*
X290025Y30074D01*
X290401Y30636D01*
X290532Y31299D01*
X290401Y31962D01*
X290025Y32525D01*
X289462Y32901D01*
X288799Y33033D01*
D02*
G37*
G36*
X283799D02*
X283136Y32901D01*
X282574Y32525D01*
X282198Y31962D01*
X282066Y31299D01*
X282198Y30636D01*
X282574Y30074D01*
X283136Y29698D01*
X283799Y29566D01*
X284462Y29698D01*
X285025Y30074D01*
X285401Y30636D01*
X285532Y31299D01*
X285401Y31962D01*
X285025Y32525D01*
X284462Y32901D01*
X283799Y33033D01*
D02*
G37*
G36*
X278799D02*
X278136Y32901D01*
X277574Y32525D01*
X277198Y31962D01*
X277066Y31299D01*
X277198Y30636D01*
X277574Y30074D01*
X278136Y29698D01*
X278799Y29566D01*
X279463Y29698D01*
X280025Y30074D01*
X280401Y30636D01*
X280533Y31299D01*
X280401Y31962D01*
X280025Y32525D01*
X279463Y32901D01*
X278799Y33033D01*
D02*
G37*
G36*
X296299Y28032D02*
X295636Y27901D01*
X295074Y27525D01*
X294698Y26963D01*
X294566Y26299D01*
X294698Y25636D01*
X295074Y25074D01*
X295636Y24698D01*
X296299Y24566D01*
X296962Y24698D01*
X297525Y25074D01*
X297901Y25636D01*
X298032Y26299D01*
X297901Y26963D01*
X297525Y27525D01*
X296962Y27901D01*
X296299Y28032D01*
D02*
G37*
G36*
X291299D02*
X290636Y27901D01*
X290074Y27525D01*
X289698Y26963D01*
X289566Y26299D01*
X289698Y25636D01*
X290074Y25074D01*
X290636Y24698D01*
X291299Y24566D01*
X291963Y24698D01*
X292525Y25074D01*
X292901Y25636D01*
X293033Y26299D01*
X292901Y26963D01*
X292525Y27525D01*
X291963Y27901D01*
X291299Y28032D01*
D02*
G37*
G36*
X286299D02*
X285636Y27901D01*
X285074Y27525D01*
X284698Y26963D01*
X284566Y26299D01*
X284698Y25636D01*
X285074Y25074D01*
X285636Y24698D01*
X286299Y24566D01*
X286963Y24698D01*
X287525Y25074D01*
X287901Y25636D01*
X288033Y26299D01*
X287901Y26963D01*
X287525Y27525D01*
X286963Y27901D01*
X286299Y28032D01*
D02*
G37*
G36*
X258799Y33033D02*
X258136Y32901D01*
X257574Y32525D01*
X257198Y31962D01*
X257066Y31299D01*
X257198Y30636D01*
X257574Y30074D01*
X258136Y29698D01*
X258799Y29566D01*
X259462Y29698D01*
X260025Y30074D01*
X260401Y30636D01*
X260532Y31299D01*
X260401Y31962D01*
X260025Y32525D01*
X259462Y32901D01*
X258799Y33033D01*
D02*
G37*
G36*
X253799D02*
X253136Y32901D01*
X252574Y32525D01*
X252198Y31962D01*
X252066Y31299D01*
X252198Y30636D01*
X252574Y30074D01*
X253136Y29698D01*
X253799Y29566D01*
X254463Y29698D01*
X255025Y30074D01*
X255401Y30636D01*
X255533Y31299D01*
X255401Y31962D01*
X255025Y32525D01*
X254463Y32901D01*
X253799Y33033D01*
D02*
G37*
G36*
X301299Y28032D02*
X300636Y27901D01*
X300074Y27525D01*
X299698Y26963D01*
X299566Y26299D01*
X299698Y25636D01*
X300074Y25074D01*
X300636Y24698D01*
X301299Y24566D01*
X301962Y24698D01*
X302525Y25074D01*
X302901Y25636D01*
X303032Y26299D01*
X302901Y26963D01*
X302525Y27525D01*
X301962Y27901D01*
X301299Y28032D01*
D02*
G37*
G36*
X286299Y38032D02*
X285636Y37901D01*
X285074Y37525D01*
X284698Y36963D01*
X284566Y36299D01*
X284698Y35636D01*
X285074Y35074D01*
X285636Y34698D01*
X286299Y34566D01*
X286963Y34698D01*
X287525Y35074D01*
X287901Y35636D01*
X288033Y36299D01*
X287901Y36963D01*
X287525Y37525D01*
X286963Y37901D01*
X286299Y38032D01*
D02*
G37*
G36*
X281299D02*
X280636Y37901D01*
X280074Y37525D01*
X279698Y36963D01*
X279566Y36299D01*
X279698Y35636D01*
X280074Y35074D01*
X280636Y34698D01*
X281299Y34566D01*
X281962Y34698D01*
X282525Y35074D01*
X282901Y35636D01*
X283032Y36299D01*
X282901Y36963D01*
X282525Y37525D01*
X281962Y37901D01*
X281299Y38032D01*
D02*
G37*
G36*
X276299D02*
X275636Y37901D01*
X275074Y37525D01*
X274698Y36963D01*
X274566Y36299D01*
X274698Y35636D01*
X275074Y35074D01*
X275636Y34698D01*
X276299Y34566D01*
X276962Y34698D01*
X277525Y35074D01*
X277901Y35636D01*
X278032Y36299D01*
X277901Y36963D01*
X277525Y37525D01*
X276962Y37901D01*
X276299Y38032D01*
D02*
G37*
G36*
X263799Y43033D02*
X263136Y42901D01*
X262574Y42525D01*
X262198Y41963D01*
X262066Y41299D01*
X262198Y40636D01*
X262574Y40074D01*
X263136Y39698D01*
X263799Y39566D01*
X264462Y39698D01*
X265025Y40074D01*
X265401Y40636D01*
X265532Y41299D01*
X265401Y41963D01*
X265025Y42525D01*
X264462Y42901D01*
X263799Y43033D01*
D02*
G37*
G36*
X258799D02*
X258136Y42901D01*
X257574Y42525D01*
X257198Y41963D01*
X257066Y41299D01*
X257198Y40636D01*
X257574Y40074D01*
X258136Y39698D01*
X258799Y39566D01*
X259462Y39698D01*
X260025Y40074D01*
X260401Y40636D01*
X260532Y41299D01*
X260401Y41963D01*
X260025Y42525D01*
X259462Y42901D01*
X258799Y43033D01*
D02*
G37*
G36*
X253799D02*
X253136Y42901D01*
X252574Y42525D01*
X252198Y41963D01*
X252066Y41299D01*
X252198Y40636D01*
X252574Y40074D01*
X253136Y39698D01*
X253799Y39566D01*
X254463Y39698D01*
X255025Y40074D01*
X255401Y40636D01*
X255533Y41299D01*
X255401Y41963D01*
X255025Y42525D01*
X254463Y42901D01*
X253799Y43033D01*
D02*
G37*
G36*
X256299Y38032D02*
X255636Y37901D01*
X255074Y37525D01*
X254698Y36963D01*
X254566Y36299D01*
X254698Y35636D01*
X255074Y35074D01*
X255636Y34698D01*
X256299Y34566D01*
X256962Y34698D01*
X257525Y35074D01*
X257901Y35636D01*
X258032Y36299D01*
X257901Y36963D01*
X257525Y37525D01*
X256962Y37901D01*
X256299Y38032D01*
D02*
G37*
G36*
X251299D02*
X250636Y37901D01*
X250074Y37525D01*
X249698Y36963D01*
X249566Y36299D01*
X249698Y35636D01*
X250074Y35074D01*
X250636Y34698D01*
X251299Y34566D01*
X251962Y34698D01*
X252525Y35074D01*
X252901Y35636D01*
X253032Y36299D01*
X252901Y36963D01*
X252525Y37525D01*
X251962Y37901D01*
X251299Y38032D01*
D02*
G37*
G36*
X185201Y41520D02*
X163500D01*
X163110Y41442D01*
X162779Y41221D01*
X158662Y37104D01*
X158441Y36773D01*
X158364Y36383D01*
Y22855D01*
X157568Y22526D01*
X156816Y21949D01*
X156239Y21197D01*
X155876Y20321D01*
X155752Y19381D01*
X155876Y18441D01*
X156239Y17566D01*
X156816Y16814D01*
X157568Y16236D01*
X158443Y15874D01*
X159383Y15750D01*
X160323Y15874D01*
X161199Y16236D01*
X161951Y16814D01*
X162528Y17566D01*
X162891Y18441D01*
X163014Y19381D01*
X162891Y20321D01*
X162528Y21197D01*
X161951Y21949D01*
X161199Y22526D01*
X160403Y22855D01*
Y35961D01*
X163922Y39480D01*
X184778D01*
X189016Y35243D01*
X188968Y35000D01*
X189099Y34337D01*
X189475Y33774D01*
X190038Y33399D01*
X190701Y33267D01*
X191364Y33399D01*
X191926Y33774D01*
X192302Y34337D01*
X192434Y35000D01*
X192302Y35663D01*
X191926Y36226D01*
X191364Y36601D01*
X190701Y36733D01*
X190458Y36685D01*
X185922Y41221D01*
X185591Y41442D01*
X185201Y41520D01*
D02*
G37*
G36*
X271299Y38032D02*
X270636Y37901D01*
X270074Y37525D01*
X269698Y36963D01*
X269566Y36299D01*
X269698Y35636D01*
X270074Y35074D01*
X270636Y34698D01*
X271299Y34566D01*
X271962Y34698D01*
X272525Y35074D01*
X272901Y35636D01*
X273032Y36299D01*
X272901Y36963D01*
X272525Y37525D01*
X271962Y37901D01*
X271299Y38032D01*
D02*
G37*
G36*
X266299D02*
X265636Y37901D01*
X265074Y37525D01*
X264698Y36963D01*
X264566Y36299D01*
X264698Y35636D01*
X265074Y35074D01*
X265636Y34698D01*
X266299Y34566D01*
X266963Y34698D01*
X267525Y35074D01*
X267901Y35636D01*
X268033Y36299D01*
X267901Y36963D01*
X267525Y37525D01*
X266963Y37901D01*
X266299Y38032D01*
D02*
G37*
G36*
X261299D02*
X260636Y37901D01*
X260074Y37525D01*
X259698Y36963D01*
X259566Y36299D01*
X259698Y35636D01*
X260074Y35074D01*
X260636Y34698D01*
X261299Y34566D01*
X261963Y34698D01*
X262525Y35074D01*
X262901Y35636D01*
X263033Y36299D01*
X262901Y36963D01*
X262525Y37525D01*
X261963Y37901D01*
X261299Y38032D01*
D02*
G37*
G36*
X226500Y115737D02*
X225805Y115599D01*
X225216Y115205D01*
X224822Y114616D01*
X224684Y113921D01*
X224822Y113226D01*
X225216Y112637D01*
X225805Y112243D01*
X226500Y112105D01*
X227195Y112243D01*
X227784Y112637D01*
X228178Y113226D01*
X228316Y113921D01*
X228178Y114616D01*
X227784Y115205D01*
X227195Y115599D01*
X226500Y115737D01*
D02*
G37*
G36*
X271299Y188032D02*
X270636Y187901D01*
X270074Y187525D01*
X269698Y186962D01*
X269566Y186299D01*
X269698Y185636D01*
X270074Y185074D01*
X270636Y184698D01*
X271299Y184566D01*
X271962Y184698D01*
X272525Y185074D01*
X272901Y185636D01*
X273032Y186299D01*
X272901Y186962D01*
X272525Y187525D01*
X271962Y187901D01*
X271299Y188032D01*
D02*
G37*
G36*
X266299D02*
X265636Y187901D01*
X265074Y187525D01*
X264698Y186962D01*
X264566Y186299D01*
X264698Y185636D01*
X265074Y185074D01*
X265636Y184698D01*
X266299Y184566D01*
X266963Y184698D01*
X267525Y185074D01*
X267901Y185636D01*
X268033Y186299D01*
X267901Y186962D01*
X267525Y187525D01*
X266963Y187901D01*
X266299Y188032D01*
D02*
G37*
G36*
X261299D02*
X260636Y187901D01*
X260074Y187525D01*
X259698Y186962D01*
X259566Y186299D01*
X259698Y185636D01*
X260074Y185074D01*
X260636Y184698D01*
X261299Y184566D01*
X261963Y184698D01*
X262525Y185074D01*
X262901Y185636D01*
X263033Y186299D01*
X262901Y186962D01*
X262525Y187525D01*
X261963Y187901D01*
X261299Y188032D01*
D02*
G37*
G36*
X286299D02*
X285636Y187901D01*
X285074Y187525D01*
X284698Y186962D01*
X284566Y186299D01*
X284698Y185636D01*
X285074Y185074D01*
X285636Y184698D01*
X286299Y184566D01*
X286963Y184698D01*
X287525Y185074D01*
X287901Y185636D01*
X288033Y186299D01*
X287901Y186962D01*
X287525Y187525D01*
X286963Y187901D01*
X286299Y188032D01*
D02*
G37*
G36*
X281299D02*
X280636Y187901D01*
X280074Y187525D01*
X279698Y186962D01*
X279566Y186299D01*
X279698Y185636D01*
X280074Y185074D01*
X280636Y184698D01*
X281299Y184566D01*
X281962Y184698D01*
X282525Y185074D01*
X282901Y185636D01*
X283032Y186299D01*
X282901Y186962D01*
X282525Y187525D01*
X281962Y187901D01*
X281299Y188032D01*
D02*
G37*
G36*
X276299D02*
X275636Y187901D01*
X275074Y187525D01*
X274698Y186962D01*
X274566Y186299D01*
X274698Y185636D01*
X275074Y185074D01*
X275636Y184698D01*
X276299Y184566D01*
X276962Y184698D01*
X277525Y185074D01*
X277901Y185636D01*
X278032Y186299D01*
X277901Y186962D01*
X277525Y187525D01*
X276962Y187901D01*
X276299Y188032D01*
D02*
G37*
G36*
X298799Y183033D02*
X298136Y182901D01*
X297574Y182525D01*
X297198Y181963D01*
X297066Y181299D01*
X297198Y180636D01*
X297574Y180074D01*
X298136Y179698D01*
X298799Y179566D01*
X299463Y179698D01*
X300025Y180074D01*
X300401Y180636D01*
X300533Y181299D01*
X300401Y181963D01*
X300025Y182525D01*
X299463Y182901D01*
X298799Y183033D01*
D02*
G37*
G36*
X293799D02*
X293136Y182901D01*
X292574Y182525D01*
X292198Y181963D01*
X292066Y181299D01*
X292198Y180636D01*
X292574Y180074D01*
X293136Y179698D01*
X293799Y179566D01*
X294462Y179698D01*
X295025Y180074D01*
X295401Y180636D01*
X295532Y181299D01*
X295401Y181963D01*
X295025Y182525D01*
X294462Y182901D01*
X293799Y183033D01*
D02*
G37*
G36*
X288799D02*
X288136Y182901D01*
X287574Y182525D01*
X287198Y181963D01*
X287066Y181299D01*
X287198Y180636D01*
X287574Y180074D01*
X288136Y179698D01*
X288799Y179566D01*
X289462Y179698D01*
X290025Y180074D01*
X290401Y180636D01*
X290532Y181299D01*
X290401Y181963D01*
X290025Y182525D01*
X289462Y182901D01*
X288799Y183033D01*
D02*
G37*
G36*
X256299Y188032D02*
X255636Y187901D01*
X255074Y187525D01*
X254698Y186962D01*
X254566Y186299D01*
X254698Y185636D01*
X255074Y185074D01*
X255636Y184698D01*
X256299Y184566D01*
X256962Y184698D01*
X257525Y185074D01*
X257901Y185636D01*
X258032Y186299D01*
X257901Y186962D01*
X257525Y187525D01*
X256962Y187901D01*
X256299Y188032D01*
D02*
G37*
G36*
X251299D02*
X250636Y187901D01*
X250074Y187525D01*
X249698Y186962D01*
X249566Y186299D01*
X249698Y185636D01*
X250074Y185074D01*
X250636Y184698D01*
X251299Y184566D01*
X251962Y184698D01*
X252525Y185074D01*
X252901Y185636D01*
X253032Y186299D01*
X252901Y186962D01*
X252525Y187525D01*
X251962Y187901D01*
X251299Y188032D01*
D02*
G37*
G36*
X303799Y183033D02*
X303136Y182901D01*
X302574Y182525D01*
X302198Y181963D01*
X302066Y181299D01*
X302198Y180636D01*
X302574Y180074D01*
X303136Y179698D01*
X303799Y179566D01*
X304463Y179698D01*
X305025Y180074D01*
X305401Y180636D01*
X305533Y181299D01*
X305401Y181963D01*
X305025Y182525D01*
X304463Y182901D01*
X303799Y183033D01*
D02*
G37*
G36*
X258799Y193033D02*
X258136Y192901D01*
X257574Y192525D01*
X257198Y191963D01*
X257066Y191299D01*
X257198Y190636D01*
X257574Y190074D01*
X258136Y189698D01*
X258799Y189566D01*
X259462Y189698D01*
X260025Y190074D01*
X260401Y190636D01*
X260532Y191299D01*
X260401Y191963D01*
X260025Y192525D01*
X259462Y192901D01*
X258799Y193033D01*
D02*
G37*
G36*
X253799D02*
X253136Y192901D01*
X252574Y192525D01*
X252198Y191963D01*
X252066Y191299D01*
X252198Y190636D01*
X252574Y190074D01*
X253136Y189698D01*
X253799Y189566D01*
X254463Y189698D01*
X255025Y190074D01*
X255401Y190636D01*
X255533Y191299D01*
X255401Y191963D01*
X255025Y192525D01*
X254463Y192901D01*
X253799Y193033D01*
D02*
G37*
G36*
X152500Y189233D02*
X151837Y189101D01*
X151274Y188726D01*
X150899Y188163D01*
X150767Y187500D01*
X150899Y186837D01*
X151274Y186274D01*
X151837Y185899D01*
X152500Y185767D01*
X153163Y185899D01*
X153726Y186274D01*
X154101Y186837D01*
X154233Y187500D01*
X154101Y188163D01*
X153726Y188726D01*
X153163Y189101D01*
X152500Y189233D01*
D02*
G37*
G36*
X273799Y193033D02*
X273136Y192901D01*
X272574Y192525D01*
X272198Y191963D01*
X272066Y191299D01*
X272198Y190636D01*
X272574Y190074D01*
X273136Y189698D01*
X273799Y189566D01*
X274463Y189698D01*
X275025Y190074D01*
X275401Y190636D01*
X275533Y191299D01*
X275401Y191963D01*
X275025Y192525D01*
X274463Y192901D01*
X273799Y193033D01*
D02*
G37*
G36*
X268799D02*
X268136Y192901D01*
X267574Y192525D01*
X267198Y191963D01*
X267066Y191299D01*
X267198Y190636D01*
X267574Y190074D01*
X268136Y189698D01*
X268799Y189566D01*
X269462Y189698D01*
X270025Y190074D01*
X270401Y190636D01*
X270532Y191299D01*
X270401Y191963D01*
X270025Y192525D01*
X269462Y192901D01*
X268799Y193033D01*
D02*
G37*
G36*
X263799D02*
X263136Y192901D01*
X262574Y192525D01*
X262198Y191963D01*
X262066Y191299D01*
X262198Y190636D01*
X262574Y190074D01*
X263136Y189698D01*
X263799Y189566D01*
X264462Y189698D01*
X265025Y190074D01*
X265401Y190636D01*
X265532Y191299D01*
X265401Y191963D01*
X265025Y192525D01*
X264462Y192901D01*
X263799Y193033D01*
D02*
G37*
G36*
X301299Y188032D02*
X300636Y187901D01*
X300074Y187525D01*
X299698Y186962D01*
X299566Y186299D01*
X299698Y185636D01*
X300074Y185074D01*
X300636Y184698D01*
X301299Y184566D01*
X301962Y184698D01*
X302525Y185074D01*
X302901Y185636D01*
X303032Y186299D01*
X302901Y186962D01*
X302525Y187525D01*
X301962Y187901D01*
X301299Y188032D01*
D02*
G37*
G36*
X296299D02*
X295636Y187901D01*
X295074Y187525D01*
X294698Y186962D01*
X294566Y186299D01*
X294698Y185636D01*
X295074Y185074D01*
X295636Y184698D01*
X296299Y184566D01*
X296962Y184698D01*
X297525Y185074D01*
X297901Y185636D01*
X298032Y186299D01*
X297901Y186962D01*
X297525Y187525D01*
X296962Y187901D01*
X296299Y188032D01*
D02*
G37*
G36*
X291299D02*
X290636Y187901D01*
X290074Y187525D01*
X289698Y186962D01*
X289566Y186299D01*
X289698Y185636D01*
X290074Y185074D01*
X290636Y184698D01*
X291299Y184566D01*
X291963Y184698D01*
X292525Y185074D01*
X292901Y185636D01*
X293033Y186299D01*
X292901Y186962D01*
X292525Y187525D01*
X291963Y187901D01*
X291299Y188032D01*
D02*
G37*
G36*
X138500Y189233D02*
X137837Y189101D01*
X137274Y188726D01*
X136899Y188163D01*
X136767Y187500D01*
X136899Y186837D01*
X137274Y186274D01*
X137837Y185899D01*
X138500Y185767D01*
X139163Y185899D01*
X139726Y186274D01*
X140101Y186837D01*
X140233Y187500D01*
X140101Y188163D01*
X139726Y188726D01*
X139163Y189101D01*
X138500Y189233D01*
D02*
G37*
G36*
X123000D02*
X122337Y189101D01*
X121774Y188726D01*
X121399Y188163D01*
X121267Y187500D01*
X121399Y186837D01*
X121774Y186274D01*
X122337Y185899D01*
X123000Y185767D01*
X123663Y185899D01*
X124226Y186274D01*
X124601Y186837D01*
X124733Y187500D01*
X124601Y188163D01*
X124226Y188726D01*
X123663Y189101D01*
X123000Y189233D01*
D02*
G37*
G36*
X108000D02*
X107337Y189101D01*
X106774Y188726D01*
X106399Y188163D01*
X106267Y187500D01*
X106399Y186837D01*
X106774Y186274D01*
X107337Y185899D01*
X108000Y185767D01*
X108663Y185899D01*
X109226Y186274D01*
X109601Y186837D01*
X109733Y187500D01*
X109601Y188163D01*
X109226Y188726D01*
X108663Y189101D01*
X108000Y189233D01*
D02*
G37*
G36*
X271299Y178033D02*
X270636Y177901D01*
X270074Y177525D01*
X269698Y176962D01*
X269566Y176299D01*
X269698Y175636D01*
X270074Y175074D01*
X270636Y174698D01*
X271299Y174566D01*
X271962Y174698D01*
X272525Y175074D01*
X272901Y175636D01*
X273032Y176299D01*
X272901Y176962D01*
X272525Y177525D01*
X271962Y177901D01*
X271299Y178033D01*
D02*
G37*
G36*
X266299D02*
X265636Y177901D01*
X265074Y177525D01*
X264698Y176962D01*
X264566Y176299D01*
X264698Y175636D01*
X265074Y175074D01*
X265636Y174698D01*
X266299Y174566D01*
X266963Y174698D01*
X267525Y175074D01*
X267901Y175636D01*
X268033Y176299D01*
X267901Y176962D01*
X267525Y177525D01*
X266963Y177901D01*
X266299Y178033D01*
D02*
G37*
G36*
X261299D02*
X260636Y177901D01*
X260074Y177525D01*
X259698Y176962D01*
X259566Y176299D01*
X259698Y175636D01*
X260074Y175074D01*
X260636Y174698D01*
X261299Y174566D01*
X261963Y174698D01*
X262525Y175074D01*
X262901Y175636D01*
X263033Y176299D01*
X262901Y176962D01*
X262525Y177525D01*
X261963Y177901D01*
X261299Y178033D01*
D02*
G37*
G36*
X286299D02*
X285636Y177901D01*
X285074Y177525D01*
X284698Y176962D01*
X284566Y176299D01*
X284698Y175636D01*
X285074Y175074D01*
X285636Y174698D01*
X286299Y174566D01*
X286963Y174698D01*
X287525Y175074D01*
X287901Y175636D01*
X288033Y176299D01*
X287901Y176962D01*
X287525Y177525D01*
X286963Y177901D01*
X286299Y178033D01*
D02*
G37*
G36*
X281299D02*
X280636Y177901D01*
X280074Y177525D01*
X279698Y176962D01*
X279566Y176299D01*
X279698Y175636D01*
X280074Y175074D01*
X280636Y174698D01*
X281299Y174566D01*
X281962Y174698D01*
X282525Y175074D01*
X282901Y175636D01*
X283032Y176299D01*
X282901Y176962D01*
X282525Y177525D01*
X281962Y177901D01*
X281299Y178033D01*
D02*
G37*
G36*
X276299D02*
X275636Y177901D01*
X275074Y177525D01*
X274698Y176962D01*
X274566Y176299D01*
X274698Y175636D01*
X275074Y175074D01*
X275636Y174698D01*
X276299Y174566D01*
X276962Y174698D01*
X277525Y175074D01*
X277901Y175636D01*
X278032Y176299D01*
X277901Y176962D01*
X277525Y177525D01*
X276962Y177901D01*
X276299Y178033D01*
D02*
G37*
G36*
X303799Y173032D02*
X303136Y172901D01*
X302574Y172525D01*
X302198Y171962D01*
X302066Y171299D01*
X302198Y170636D01*
X302574Y170074D01*
X303136Y169698D01*
X303799Y169566D01*
X304463Y169698D01*
X305025Y170074D01*
X305401Y170636D01*
X305533Y171299D01*
X305401Y171962D01*
X305025Y172525D01*
X304463Y172901D01*
X303799Y173032D01*
D02*
G37*
G36*
X298799D02*
X298136Y172901D01*
X297574Y172525D01*
X297198Y171962D01*
X297066Y171299D01*
X297198Y170636D01*
X297574Y170074D01*
X298136Y169698D01*
X298799Y169566D01*
X299463Y169698D01*
X300025Y170074D01*
X300401Y170636D01*
X300533Y171299D01*
X300401Y171962D01*
X300025Y172525D01*
X299463Y172901D01*
X298799Y173032D01*
D02*
G37*
G36*
X293799D02*
X293136Y172901D01*
X292574Y172525D01*
X292198Y171962D01*
X292066Y171299D01*
X292198Y170636D01*
X292574Y170074D01*
X293136Y169698D01*
X293799Y169566D01*
X294462Y169698D01*
X295025Y170074D01*
X295401Y170636D01*
X295532Y171299D01*
X295401Y171962D01*
X295025Y172525D01*
X294462Y172901D01*
X293799Y173032D01*
D02*
G37*
G36*
X256299Y178033D02*
X255636Y177901D01*
X255074Y177525D01*
X254698Y176962D01*
X254566Y176299D01*
X254698Y175636D01*
X255074Y175074D01*
X255636Y174698D01*
X256299Y174566D01*
X256962Y174698D01*
X257525Y175074D01*
X257901Y175636D01*
X258032Y176299D01*
X257901Y176962D01*
X257525Y177525D01*
X256962Y177901D01*
X256299Y178033D01*
D02*
G37*
G36*
X251299D02*
X250636Y177901D01*
X250074Y177525D01*
X249698Y176962D01*
X249566Y176299D01*
X249698Y175636D01*
X250074Y175074D01*
X250636Y174698D01*
X251299Y174566D01*
X251962Y174698D01*
X252525Y175074D01*
X252901Y175636D01*
X253032Y176299D01*
X252901Y176962D01*
X252525Y177525D01*
X251962Y177901D01*
X251299Y178033D01*
D02*
G37*
G36*
X218500Y173233D02*
X217837Y173101D01*
X217274Y172726D01*
X216899Y172163D01*
X216767Y171500D01*
X216899Y170837D01*
X217274Y170274D01*
X217837Y169899D01*
X218500Y169767D01*
X219163Y169899D01*
X219726Y170274D01*
X220101Y170837D01*
X220233Y171500D01*
X220101Y172163D01*
X219726Y172726D01*
X219163Y173101D01*
X218500Y173233D01*
D02*
G37*
G36*
X268799Y183033D02*
X268136Y182901D01*
X267574Y182525D01*
X267198Y181963D01*
X267066Y181299D01*
X267198Y180636D01*
X267574Y180074D01*
X268136Y179698D01*
X268799Y179566D01*
X269462Y179698D01*
X270025Y180074D01*
X270401Y180636D01*
X270532Y181299D01*
X270401Y181963D01*
X270025Y182525D01*
X269462Y182901D01*
X268799Y183033D01*
D02*
G37*
G36*
X263799D02*
X263136Y182901D01*
X262574Y182525D01*
X262198Y181963D01*
X262066Y181299D01*
X262198Y180636D01*
X262574Y180074D01*
X263136Y179698D01*
X263799Y179566D01*
X264462Y179698D01*
X265025Y180074D01*
X265401Y180636D01*
X265532Y181299D01*
X265401Y181963D01*
X265025Y182525D01*
X264462Y182901D01*
X263799Y183033D01*
D02*
G37*
G36*
X258799D02*
X258136Y182901D01*
X257574Y182525D01*
X257198Y181963D01*
X257066Y181299D01*
X257198Y180636D01*
X257574Y180074D01*
X258136Y179698D01*
X258799Y179566D01*
X259462Y179698D01*
X260025Y180074D01*
X260401Y180636D01*
X260532Y181299D01*
X260401Y181963D01*
X260025Y182525D01*
X259462Y182901D01*
X258799Y183033D01*
D02*
G37*
G36*
X283799D02*
X283136Y182901D01*
X282574Y182525D01*
X282198Y181963D01*
X282066Y181299D01*
X282198Y180636D01*
X282574Y180074D01*
X283136Y179698D01*
X283799Y179566D01*
X284462Y179698D01*
X285025Y180074D01*
X285401Y180636D01*
X285532Y181299D01*
X285401Y181963D01*
X285025Y182525D01*
X284462Y182901D01*
X283799Y183033D01*
D02*
G37*
G36*
X278799D02*
X278136Y182901D01*
X277574Y182525D01*
X277198Y181963D01*
X277066Y181299D01*
X277198Y180636D01*
X277574Y180074D01*
X278136Y179698D01*
X278799Y179566D01*
X279463Y179698D01*
X280025Y180074D01*
X280401Y180636D01*
X280533Y181299D01*
X280401Y181963D01*
X280025Y182525D01*
X279463Y182901D01*
X278799Y183033D01*
D02*
G37*
G36*
X273799D02*
X273136Y182901D01*
X272574Y182525D01*
X272198Y181963D01*
X272066Y181299D01*
X272198Y180636D01*
X272574Y180074D01*
X273136Y179698D01*
X273799Y179566D01*
X274463Y179698D01*
X275025Y180074D01*
X275401Y180636D01*
X275533Y181299D01*
X275401Y181963D01*
X275025Y182525D01*
X274463Y182901D01*
X273799Y183033D01*
D02*
G37*
G36*
X301299Y178033D02*
X300636Y177901D01*
X300074Y177525D01*
X299698Y176962D01*
X299566Y176299D01*
X299698Y175636D01*
X300074Y175074D01*
X300636Y174698D01*
X301299Y174566D01*
X301962Y174698D01*
X302525Y175074D01*
X302901Y175636D01*
X303032Y176299D01*
X302901Y176962D01*
X302525Y177525D01*
X301962Y177901D01*
X301299Y178033D01*
D02*
G37*
G36*
X296299D02*
X295636Y177901D01*
X295074Y177525D01*
X294698Y176962D01*
X294566Y176299D01*
X294698Y175636D01*
X295074Y175074D01*
X295636Y174698D01*
X296299Y174566D01*
X296962Y174698D01*
X297525Y175074D01*
X297901Y175636D01*
X298032Y176299D01*
X297901Y176962D01*
X297525Y177525D01*
X296962Y177901D01*
X296299Y178033D01*
D02*
G37*
G36*
X291299D02*
X290636Y177901D01*
X290074Y177525D01*
X289698Y176962D01*
X289566Y176299D01*
X289698Y175636D01*
X290074Y175074D01*
X290636Y174698D01*
X291299Y174566D01*
X291963Y174698D01*
X292525Y175074D01*
X292901Y175636D01*
X293033Y176299D01*
X292901Y176962D01*
X292525Y177525D01*
X291963Y177901D01*
X291299Y178033D01*
D02*
G37*
G36*
X253799Y183033D02*
X253136Y182901D01*
X252574Y182525D01*
X252198Y181963D01*
X252066Y181299D01*
X252198Y180636D01*
X252574Y180074D01*
X253136Y179698D01*
X253799Y179566D01*
X254463Y179698D01*
X255025Y180074D01*
X255401Y180636D01*
X255533Y181299D01*
X255401Y181963D01*
X255025Y182525D01*
X254463Y182901D01*
X253799Y183033D01*
D02*
G37*
G36*
X229500Y181733D02*
X228837Y181601D01*
X228274Y181226D01*
X227899Y180663D01*
X227767Y180000D01*
X227899Y179337D01*
X228274Y178774D01*
X228837Y178399D01*
X229500Y178267D01*
X230163Y178399D01*
X230726Y178774D01*
X231101Y179337D01*
X231233Y180000D01*
X231101Y180663D01*
X230726Y181226D01*
X230163Y181601D01*
X229500Y181733D01*
D02*
G37*
G36*
X207500D02*
X206837Y181601D01*
X206274Y181226D01*
X205899Y180663D01*
X205767Y180000D01*
X205899Y179337D01*
X206274Y178774D01*
X206837Y178399D01*
X207500Y178267D01*
X208163Y178399D01*
X208726Y178774D01*
X209101Y179337D01*
X209233Y180000D01*
X209101Y180663D01*
X208726Y181226D01*
X208163Y181601D01*
X207500Y181733D01*
D02*
G37*
G36*
X278799Y193033D02*
X278136Y192901D01*
X277574Y192525D01*
X277198Y191963D01*
X277066Y191299D01*
X277198Y190636D01*
X277574Y190074D01*
X278136Y189698D01*
X278799Y189566D01*
X279463Y189698D01*
X280025Y190074D01*
X280401Y190636D01*
X280533Y191299D01*
X280401Y191963D01*
X280025Y192525D01*
X279463Y192901D01*
X278799Y193033D01*
D02*
G37*
G36*
X139383Y213012D02*
X138443Y212888D01*
X137568Y212526D01*
X136816Y211949D01*
X136239Y211197D01*
X135876Y210321D01*
X135752Y209381D01*
X135876Y208441D01*
X136239Y207565D01*
X136816Y206814D01*
X137568Y206236D01*
X138443Y205874D01*
X139383Y205750D01*
X140323Y205874D01*
X141199Y206236D01*
X141951Y206814D01*
X142528Y207565D01*
X142891Y208441D01*
X143014Y209381D01*
X142891Y210321D01*
X142528Y211197D01*
X141951Y211949D01*
X141199Y212526D01*
X140323Y212888D01*
X139383Y213012D01*
D02*
G37*
G36*
X129383D02*
X128443Y212888D01*
X127568Y212526D01*
X126816Y211949D01*
X126239Y211197D01*
X125876Y210321D01*
X125752Y209381D01*
X125876Y208441D01*
X126239Y207565D01*
X126816Y206814D01*
X127568Y206236D01*
X128443Y205874D01*
X129383Y205750D01*
X130323Y205874D01*
X131199Y206236D01*
X131951Y206814D01*
X132528Y207565D01*
X132890Y208441D01*
X133014Y209381D01*
X132890Y210321D01*
X132528Y211197D01*
X131951Y211949D01*
X131199Y212526D01*
X130323Y212888D01*
X129383Y213012D01*
D02*
G37*
G36*
X119383D02*
X118443Y212888D01*
X117568Y212526D01*
X116816Y211949D01*
X116239Y211197D01*
X115876Y210321D01*
X115752Y209381D01*
X115876Y208441D01*
X116239Y207565D01*
X116816Y206814D01*
X117568Y206236D01*
X118443Y205874D01*
X119383Y205750D01*
X120323Y205874D01*
X121199Y206236D01*
X121951Y206814D01*
X122528Y207565D01*
X122890Y208441D01*
X123014Y209381D01*
X122890Y210321D01*
X122528Y211197D01*
X121951Y211949D01*
X121199Y212526D01*
X120323Y212888D01*
X119383Y213012D01*
D02*
G37*
G36*
X179383D02*
X178443Y212888D01*
X177568Y212526D01*
X176816Y211949D01*
X176239Y211197D01*
X175876Y210321D01*
X175752Y209381D01*
X175876Y208441D01*
X176239Y207565D01*
X176816Y206814D01*
X177568Y206236D01*
X178443Y205874D01*
X179383Y205750D01*
X180323Y205874D01*
X181199Y206236D01*
X181951Y206814D01*
X182528Y207565D01*
X182890Y208441D01*
X183014Y209381D01*
X182890Y210321D01*
X182528Y211197D01*
X181951Y211949D01*
X181199Y212526D01*
X180323Y212888D01*
X179383Y213012D01*
D02*
G37*
G36*
X169383D02*
X168443Y212888D01*
X167568Y212526D01*
X166816Y211949D01*
X166239Y211197D01*
X165876Y210321D01*
X165752Y209381D01*
X165876Y208441D01*
X166239Y207565D01*
X166816Y206814D01*
X167568Y206236D01*
X168443Y205874D01*
X169383Y205750D01*
X170323Y205874D01*
X171199Y206236D01*
X171951Y206814D01*
X172528Y207565D01*
X172890Y208441D01*
X173014Y209381D01*
X172890Y210321D01*
X172528Y211197D01*
X171951Y211949D01*
X171199Y212526D01*
X170323Y212888D01*
X169383Y213012D01*
D02*
G37*
G36*
X159383D02*
X158443Y212888D01*
X157568Y212526D01*
X156816Y211949D01*
X156239Y211197D01*
X155876Y210321D01*
X155752Y209381D01*
X155876Y208441D01*
X156239Y207565D01*
X156816Y206814D01*
X157568Y206236D01*
X158443Y205874D01*
X159383Y205750D01*
X160323Y205874D01*
X161199Y206236D01*
X161951Y206814D01*
X162528Y207565D01*
X162891Y208441D01*
X163014Y209381D01*
X162891Y210321D01*
X162528Y211197D01*
X161951Y211949D01*
X161199Y212526D01*
X160323Y212888D01*
X159383Y213012D01*
D02*
G37*
G36*
X79383D02*
X78443Y212888D01*
X77568Y212526D01*
X76816Y211949D01*
X76239Y211197D01*
X75876Y210321D01*
X75752Y209381D01*
X75876Y208441D01*
X76239Y207565D01*
X76816Y206814D01*
X77568Y206236D01*
X78443Y205874D01*
X79383Y205750D01*
X80323Y205874D01*
X81199Y206236D01*
X81951Y206814D01*
X82528Y207565D01*
X82890Y208441D01*
X83014Y209381D01*
X82890Y210321D01*
X82528Y211197D01*
X81951Y211949D01*
X81199Y212526D01*
X80323Y212888D01*
X79383Y213012D01*
D02*
G37*
G36*
X149383D02*
X148443Y212888D01*
X147568Y212526D01*
X146816Y211949D01*
X146239Y211197D01*
X145876Y210321D01*
X145752Y209381D01*
X145876Y208441D01*
X146239Y207565D01*
X146816Y206814D01*
X147568Y206236D01*
X148443Y205874D01*
X149383Y205750D01*
X150323Y205874D01*
X151199Y206236D01*
X151201Y206238D01*
X153480Y203959D01*
Y199671D01*
X152980Y199638D01*
X152891Y200321D01*
X152528Y201197D01*
X151951Y201949D01*
X151199Y202526D01*
X150323Y202888D01*
X149383Y203012D01*
X148443Y202888D01*
X147568Y202526D01*
X146816Y201949D01*
X146239Y201197D01*
X145876Y200321D01*
X145752Y199381D01*
X145876Y198441D01*
X146239Y197565D01*
X146816Y196813D01*
X147568Y196236D01*
X148364Y195907D01*
Y195617D01*
X148441Y195227D01*
X148662Y194896D01*
X193880Y149678D01*
Y102917D01*
X193774Y102846D01*
X193399Y102284D01*
X193267Y101620D01*
X193399Y100957D01*
X193774Y100395D01*
X194337Y100019D01*
X195000Y99887D01*
X195663Y100019D01*
X196226Y100395D01*
X196601Y100957D01*
X196733Y101620D01*
X196601Y102284D01*
X196226Y102846D01*
X195920Y103050D01*
Y105937D01*
X196113Y106063D01*
X196420Y106156D01*
X196900Y105836D01*
X197563Y105704D01*
X198226Y105836D01*
X198789Y106211D01*
X199164Y106774D01*
X199296Y107437D01*
X199164Y108100D01*
X198789Y108663D01*
X198583Y108800D01*
Y114641D01*
X207922Y123980D01*
X235000D01*
X235390Y124058D01*
X235721Y124279D01*
X237922Y126480D01*
X240843D01*
X241110Y125980D01*
X240899Y125663D01*
X240767Y125000D01*
X240899Y124337D01*
X241274Y123774D01*
X241480Y123637D01*
Y106422D01*
X233078Y98020D01*
X213500D01*
X213110Y97942D01*
X212779Y97721D01*
X206078Y91020D01*
X190000D01*
X189610Y90942D01*
X189279Y90721D01*
X159279Y60721D01*
X159058Y60390D01*
X158980Y60000D01*
Y47363D01*
X158774Y47226D01*
X158399Y46663D01*
X158267Y46000D01*
X158399Y45337D01*
X158774Y44774D01*
X159337Y44399D01*
X160000Y44267D01*
X160663Y44399D01*
X161226Y44774D01*
X161601Y45337D01*
X161733Y46000D01*
X161601Y46663D01*
X161226Y47226D01*
X161020Y47363D01*
Y59578D01*
X170414Y68972D01*
X170875Y68726D01*
X170830Y68500D01*
X170962Y67837D01*
X171337Y67274D01*
X171900Y66899D01*
X172563Y66767D01*
X173226Y66899D01*
X173789Y67274D01*
X174164Y67837D01*
X174296Y68500D01*
X174164Y69163D01*
X173789Y69726D01*
X173226Y70101D01*
X172563Y70233D01*
X172337Y70188D01*
X172091Y70649D01*
X190422Y88980D01*
X206500D01*
X206890Y89058D01*
X207221Y89279D01*
X213922Y95980D01*
X233500D01*
X233890Y96058D01*
X234221Y96279D01*
X243221Y105279D01*
X243442Y105610D01*
X243520Y106000D01*
Y123637D01*
X243726Y123774D01*
X244101Y124337D01*
X244233Y125000D01*
X244101Y125663D01*
X243889Y125980D01*
X244157Y126480D01*
X249343D01*
X249733Y126558D01*
X250064Y126779D01*
X253221Y129936D01*
X253442Y130267D01*
X253520Y130657D01*
Y133637D01*
X253726Y133774D01*
X254101Y134337D01*
X254233Y135000D01*
X254101Y135663D01*
X253726Y136226D01*
X253163Y136601D01*
X252500Y136733D01*
X251837Y136601D01*
X251274Y136226D01*
X250899Y135663D01*
X250767Y135000D01*
X250899Y134337D01*
X251274Y133774D01*
X251480Y133637D01*
Y131079D01*
X249275Y128874D01*
X248887Y129193D01*
X249101Y129514D01*
X249233Y130177D01*
X249101Y130841D01*
X248726Y131403D01*
X248163Y131779D01*
X247500Y131911D01*
X246837Y131779D01*
X246274Y131403D01*
X246137Y131197D01*
X244628D01*
X240403Y135422D01*
Y150499D01*
X240903Y150689D01*
X241337Y150399D01*
X242000Y150267D01*
X242663Y150399D01*
X243226Y150774D01*
X243480Y151156D01*
X243980Y151004D01*
Y136344D01*
X243774Y136206D01*
X243399Y135644D01*
X243267Y134980D01*
X243399Y134317D01*
X243774Y133755D01*
X244337Y133379D01*
X245000Y133247D01*
X245663Y133379D01*
X246226Y133755D01*
X246601Y134317D01*
X246733Y134980D01*
X246601Y135644D01*
X246226Y136206D01*
X246020Y136344D01*
Y151004D01*
X246520Y151156D01*
X246774Y150774D01*
X247337Y150399D01*
X248000Y150267D01*
X248663Y150399D01*
X249226Y150774D01*
X249601Y151337D01*
X249733Y152000D01*
X249601Y152663D01*
X249226Y153226D01*
X248663Y153601D01*
X248000Y153733D01*
X247337Y153601D01*
X246774Y153226D01*
X246520Y152844D01*
X246020Y152996D01*
Y175000D01*
X245942Y175390D01*
X245721Y175721D01*
X233721Y187721D01*
X233390Y187942D01*
X233000Y188020D01*
X172422D01*
X170403Y190039D01*
Y195907D01*
X171199Y196236D01*
X171951Y196813D01*
X172528Y197565D01*
X172890Y198441D01*
X173014Y199381D01*
X172890Y200321D01*
X172528Y201197D01*
X171951Y201949D01*
X171199Y202526D01*
X170323Y202888D01*
X169383Y203012D01*
X168443Y202888D01*
X167568Y202526D01*
X166816Y201949D01*
X166239Y201197D01*
X165876Y200321D01*
X165752Y199381D01*
X165876Y198441D01*
X166239Y197565D01*
X166816Y196813D01*
X167568Y196236D01*
X168364Y195907D01*
Y189617D01*
X168441Y189227D01*
X168662Y188896D01*
X171279Y186279D01*
X171610Y186058D01*
X172000Y185980D01*
X232578D01*
X243980Y174578D01*
Y152996D01*
X243480Y152844D01*
X243226Y153226D01*
X242663Y153601D01*
X242000Y153733D01*
X241337Y153601D01*
X240903Y153311D01*
X240403Y153501D01*
Y171117D01*
X240325Y171507D01*
X240104Y171838D01*
X235721Y176221D01*
X235390Y176442D01*
X235000Y176520D01*
X219863D01*
X219726Y176726D01*
X219163Y177101D01*
X218500Y177233D01*
X217837Y177101D01*
X217274Y176726D01*
X216899Y176163D01*
X216767Y175500D01*
X216899Y174837D01*
X217274Y174274D01*
X217837Y173899D01*
X218500Y173767D01*
X219163Y173899D01*
X219726Y174274D01*
X219863Y174480D01*
X234578D01*
X238364Y170694D01*
Y153171D01*
X237864Y153019D01*
X237726Y153226D01*
X237163Y153601D01*
X236500Y153733D01*
X235837Y153601D01*
X235274Y153226D01*
X234899Y152663D01*
X234767Y152000D01*
X234899Y151337D01*
X235274Y150774D01*
X235837Y150399D01*
X236500Y150267D01*
X237163Y150399D01*
X237726Y150774D01*
X237864Y150981D01*
X238364Y150829D01*
Y135171D01*
X237864Y135019D01*
X237726Y135226D01*
X237163Y135601D01*
X236500Y135733D01*
X235837Y135601D01*
X235274Y135226D01*
X234899Y134663D01*
X234767Y134000D01*
X234899Y133337D01*
X235274Y132774D01*
X235837Y132399D01*
X236500Y132267D01*
X237163Y132399D01*
X237726Y132774D01*
X238101Y133337D01*
X238233Y134000D01*
X238640Y134243D01*
X238694Y134247D01*
X243485Y129456D01*
X243816Y129235D01*
X244206Y129158D01*
X245750D01*
X245883Y129020D01*
X245699Y128585D01*
X245621Y128520D01*
X237500D01*
X237110Y128442D01*
X236779Y128221D01*
X234578Y126020D01*
X207500D01*
X207110Y125942D01*
X206779Y125721D01*
X196842Y115784D01*
X196621Y115453D01*
X196543Y115063D01*
Y109203D01*
X196420Y109090D01*
X195949Y109298D01*
X195920Y109341D01*
Y150076D01*
X196004Y150161D01*
X196337Y150399D01*
X197000Y150267D01*
X197663Y150399D01*
X198226Y150774D01*
X198601Y151337D01*
X198733Y152000D01*
X198601Y152663D01*
X198226Y153226D01*
X197663Y153601D01*
X197000Y153733D01*
X196337Y153601D01*
X195774Y153226D01*
X195399Y152663D01*
X195267Y152000D01*
X195296Y151853D01*
X194835Y151607D01*
X150815Y195627D01*
X150912Y196118D01*
X151199Y196236D01*
X151951Y196813D01*
X152528Y197565D01*
X152891Y198441D01*
X152980Y199124D01*
X153480Y199091D01*
Y196500D01*
X153558Y196110D01*
X153779Y195779D01*
X192779Y156779D01*
X193110Y156558D01*
X193500Y156480D01*
X224578D01*
X226480Y154578D01*
Y152996D01*
X225980Y152844D01*
X225726Y153226D01*
X225163Y153601D01*
X224500Y153733D01*
X223837Y153601D01*
X223274Y153226D01*
X222899Y152663D01*
X222767Y152000D01*
X222899Y151337D01*
X223274Y150774D01*
X223837Y150399D01*
X224500Y150267D01*
X225163Y150399D01*
X225726Y150774D01*
X225980Y151156D01*
X226480Y151004D01*
Y133863D01*
X226274Y133726D01*
X225899Y133163D01*
X225767Y132500D01*
X225899Y131837D01*
X226274Y131274D01*
X226837Y130899D01*
X227500Y130767D01*
X228163Y130899D01*
X228726Y131274D01*
X229101Y131837D01*
X229233Y132500D01*
X229101Y133163D01*
X228726Y133726D01*
X228520Y133863D01*
Y155000D01*
X228442Y155390D01*
X228221Y155721D01*
X225721Y158221D01*
X225390Y158442D01*
X225000Y158520D01*
X193922D01*
X155520Y196922D01*
Y197995D01*
X156020Y198094D01*
X156239Y197565D01*
X156816Y196813D01*
X157568Y196236D01*
X158443Y195874D01*
X159383Y195750D01*
X160323Y195874D01*
X161199Y196236D01*
X161951Y196813D01*
X162528Y197565D01*
X162891Y198441D01*
X163014Y199381D01*
X162891Y200321D01*
X162528Y201197D01*
X161951Y201949D01*
X161199Y202526D01*
X160323Y202888D01*
X159383Y203012D01*
X158443Y202888D01*
X157568Y202526D01*
X156816Y201949D01*
X156239Y201197D01*
X156020Y200668D01*
X155520Y200767D01*
Y204381D01*
X155442Y204771D01*
X155221Y205102D01*
X152595Y207728D01*
X152891Y208441D01*
X153014Y209381D01*
X152891Y210321D01*
X152528Y211197D01*
X151951Y211949D01*
X151199Y212526D01*
X150323Y212888D01*
X149383Y213012D01*
D02*
G37*
G36*
X82983Y202981D02*
X75783D01*
Y195781D01*
X82983D01*
Y202981D01*
D02*
G37*
G36*
X109383Y213012D02*
X108443Y212888D01*
X107568Y212526D01*
X106816Y211949D01*
X106239Y211197D01*
X105876Y210321D01*
X105752Y209381D01*
X105876Y208441D01*
X106239Y207565D01*
X106816Y206814D01*
X107568Y206236D01*
X108443Y205874D01*
X109383Y205750D01*
X110323Y205874D01*
X111199Y206236D01*
X111951Y206814D01*
X112528Y207565D01*
X112891Y208441D01*
X113014Y209381D01*
X112891Y210321D01*
X112528Y211197D01*
X111951Y211949D01*
X111199Y212526D01*
X110323Y212888D01*
X109383Y213012D01*
D02*
G37*
G36*
X99383D02*
X98443Y212888D01*
X97568Y212526D01*
X96816Y211949D01*
X96239Y211197D01*
X95876Y210321D01*
X95752Y209381D01*
X95876Y208441D01*
X96239Y207565D01*
X96816Y206814D01*
X97568Y206236D01*
X98443Y205874D01*
X99383Y205750D01*
X100323Y205874D01*
X101199Y206236D01*
X101951Y206814D01*
X102528Y207565D01*
X102891Y208441D01*
X103014Y209381D01*
X102891Y210321D01*
X102528Y211197D01*
X101951Y211949D01*
X101199Y212526D01*
X100323Y212888D01*
X99383Y213012D01*
D02*
G37*
G36*
X89383D02*
X88443Y212888D01*
X87568Y212526D01*
X86816Y211949D01*
X86239Y211197D01*
X85876Y210321D01*
X85752Y209381D01*
X85876Y208441D01*
X86239Y207565D01*
X86816Y206814D01*
X87568Y206236D01*
X88443Y205874D01*
X89383Y205750D01*
X90323Y205874D01*
X91199Y206236D01*
X91951Y206814D01*
X92528Y207565D01*
X92891Y208441D01*
X93014Y209381D01*
X92891Y210321D01*
X92528Y211197D01*
X91951Y211949D01*
X91199Y212526D01*
X90323Y212888D01*
X89383Y213012D01*
D02*
G37*
G36*
X269383D02*
X268443Y212888D01*
X267568Y212526D01*
X266816Y211949D01*
X266239Y211197D01*
X265876Y210321D01*
X265752Y209381D01*
X265876Y208441D01*
X266239Y207565D01*
X266816Y206814D01*
X267568Y206236D01*
X268443Y205874D01*
X269383Y205750D01*
X270323Y205874D01*
X271199Y206236D01*
X271951Y206814D01*
X272528Y207565D01*
X272890Y208441D01*
X273014Y209381D01*
X272890Y210321D01*
X272528Y211197D01*
X271951Y211949D01*
X271199Y212526D01*
X270323Y212888D01*
X269383Y213012D01*
D02*
G37*
G36*
X259383D02*
X258443Y212888D01*
X257568Y212526D01*
X256816Y211949D01*
X256239Y211197D01*
X255876Y210321D01*
X255752Y209381D01*
X255876Y208441D01*
X256239Y207565D01*
X256816Y206814D01*
X257568Y206236D01*
X258443Y205874D01*
X259383Y205750D01*
X260323Y205874D01*
X261199Y206236D01*
X261951Y206814D01*
X262528Y207565D01*
X262891Y208441D01*
X263014Y209381D01*
X262891Y210321D01*
X262528Y211197D01*
X261951Y211949D01*
X261199Y212526D01*
X260323Y212888D01*
X259383Y213012D01*
D02*
G37*
G36*
X249383D02*
X248443Y212888D01*
X247568Y212526D01*
X246816Y211949D01*
X246239Y211197D01*
X245876Y210321D01*
X245752Y209381D01*
X245876Y208441D01*
X246239Y207565D01*
X246816Y206814D01*
X247568Y206236D01*
X248443Y205874D01*
X249383Y205750D01*
X250323Y205874D01*
X251199Y206236D01*
X251951Y206814D01*
X252528Y207565D01*
X252890Y208441D01*
X253014Y209381D01*
X252890Y210321D01*
X252528Y211197D01*
X251951Y211949D01*
X251199Y212526D01*
X250323Y212888D01*
X249383Y213012D01*
D02*
G37*
G36*
X299383D02*
X298443Y212888D01*
X297568Y212526D01*
X296816Y211949D01*
X296239Y211197D01*
X295876Y210321D01*
X295752Y209381D01*
X295876Y208441D01*
X296239Y207565D01*
X296816Y206814D01*
X297568Y206236D01*
X298443Y205874D01*
X299383Y205750D01*
X300323Y205874D01*
X301199Y206236D01*
X301951Y206814D01*
X302528Y207565D01*
X302890Y208441D01*
X303014Y209381D01*
X302890Y210321D01*
X302528Y211197D01*
X301951Y211949D01*
X301199Y212526D01*
X300323Y212888D01*
X299383Y213012D01*
D02*
G37*
G36*
X289383D02*
X288443Y212888D01*
X287568Y212526D01*
X286816Y211949D01*
X286239Y211197D01*
X285876Y210321D01*
X285752Y209381D01*
X285876Y208441D01*
X286239Y207565D01*
X286816Y206814D01*
X287568Y206236D01*
X288443Y205874D01*
X289383Y205750D01*
X290323Y205874D01*
X291199Y206236D01*
X291951Y206814D01*
X292528Y207565D01*
X292891Y208441D01*
X293014Y209381D01*
X292891Y210321D01*
X292528Y211197D01*
X291951Y211949D01*
X291199Y212526D01*
X290323Y212888D01*
X289383Y213012D01*
D02*
G37*
G36*
X279383D02*
X278443Y212888D01*
X277568Y212526D01*
X276816Y211949D01*
X276239Y211197D01*
X275876Y210321D01*
X275752Y209381D01*
X275876Y208441D01*
X276239Y207565D01*
X276816Y206814D01*
X277568Y206236D01*
X278443Y205874D01*
X279383Y205750D01*
X280323Y205874D01*
X281199Y206236D01*
X281951Y206814D01*
X282528Y207565D01*
X282891Y208441D01*
X283014Y209381D01*
X282891Y210321D01*
X282528Y211197D01*
X281951Y211949D01*
X281199Y212526D01*
X280323Y212888D01*
X279383Y213012D01*
D02*
G37*
G36*
X209383D02*
X208443Y212888D01*
X207568Y212526D01*
X206816Y211949D01*
X206239Y211197D01*
X205876Y210321D01*
X205752Y209381D01*
X205876Y208441D01*
X206239Y207565D01*
X206816Y206814D01*
X207568Y206236D01*
X208443Y205874D01*
X209383Y205750D01*
X210323Y205874D01*
X211199Y206236D01*
X211951Y206814D01*
X212528Y207565D01*
X212891Y208441D01*
X213014Y209381D01*
X212891Y210321D01*
X212528Y211197D01*
X211951Y211949D01*
X211199Y212526D01*
X210323Y212888D01*
X209383Y213012D01*
D02*
G37*
G36*
X199383D02*
X198443Y212888D01*
X197568Y212526D01*
X196816Y211949D01*
X196239Y211197D01*
X195876Y210321D01*
X195752Y209381D01*
X195876Y208441D01*
X196239Y207565D01*
X196816Y206814D01*
X197568Y206236D01*
X198443Y205874D01*
X199383Y205750D01*
X200323Y205874D01*
X201199Y206236D01*
X201951Y206814D01*
X202528Y207565D01*
X202890Y208441D01*
X203014Y209381D01*
X202890Y210321D01*
X202528Y211197D01*
X201951Y211949D01*
X201199Y212526D01*
X200323Y212888D01*
X199383Y213012D01*
D02*
G37*
G36*
X189383D02*
X188443Y212888D01*
X187568Y212526D01*
X186816Y211949D01*
X186239Y211197D01*
X185876Y210321D01*
X185752Y209381D01*
X185876Y208441D01*
X186239Y207565D01*
X186816Y206814D01*
X187568Y206236D01*
X188443Y205874D01*
X189383Y205750D01*
X190323Y205874D01*
X191199Y206236D01*
X191951Y206814D01*
X192528Y207565D01*
X192891Y208441D01*
X193014Y209381D01*
X192891Y210321D01*
X192528Y211197D01*
X191951Y211949D01*
X191199Y212526D01*
X190323Y212888D01*
X189383Y213012D01*
D02*
G37*
G36*
X239383D02*
X238443Y212888D01*
X237568Y212526D01*
X236816Y211949D01*
X236239Y211197D01*
X235876Y210321D01*
X235752Y209381D01*
X235876Y208441D01*
X236239Y207565D01*
X236816Y206814D01*
X237568Y206236D01*
X238443Y205874D01*
X239383Y205750D01*
X240323Y205874D01*
X241199Y206236D01*
X241951Y206814D01*
X242528Y207565D01*
X242891Y208441D01*
X243014Y209381D01*
X242891Y210321D01*
X242528Y211197D01*
X241951Y211949D01*
X241199Y212526D01*
X240323Y212888D01*
X239383Y213012D01*
D02*
G37*
G36*
X229383D02*
X228443Y212888D01*
X227568Y212526D01*
X226816Y211949D01*
X226239Y211197D01*
X225876Y210321D01*
X225752Y209381D01*
X225876Y208441D01*
X226239Y207565D01*
X226816Y206814D01*
X227568Y206236D01*
X228443Y205874D01*
X229383Y205750D01*
X230323Y205874D01*
X231199Y206236D01*
X231951Y206814D01*
X232528Y207565D01*
X232891Y208441D01*
X233014Y209381D01*
X232891Y210321D01*
X232528Y211197D01*
X231951Y211949D01*
X231199Y212526D01*
X230323Y212888D01*
X229383Y213012D01*
D02*
G37*
G36*
X219383D02*
X218443Y212888D01*
X217568Y212526D01*
X216816Y211949D01*
X216239Y211197D01*
X215876Y210321D01*
X215752Y209381D01*
X215876Y208441D01*
X216239Y207565D01*
X216816Y206814D01*
X217568Y206236D01*
X218443Y205874D01*
X219383Y205750D01*
X220323Y205874D01*
X221199Y206236D01*
X221951Y206814D01*
X222528Y207565D01*
X222890Y208441D01*
X223014Y209381D01*
X222890Y210321D01*
X222528Y211197D01*
X221951Y211949D01*
X221199Y212526D01*
X220323Y212888D01*
X219383Y213012D01*
D02*
G37*
G36*
X119383Y203012D02*
X118443Y202888D01*
X117568Y202526D01*
X116816Y201949D01*
X116239Y201197D01*
X115876Y200321D01*
X115752Y199381D01*
X115876Y198441D01*
X116239Y197565D01*
X116816Y196813D01*
X117568Y196236D01*
X118443Y195874D01*
X119383Y195750D01*
X120323Y195874D01*
X121199Y196236D01*
X121951Y196813D01*
X122528Y197565D01*
X122890Y198441D01*
X123014Y199381D01*
X122890Y200321D01*
X122528Y201197D01*
X121951Y201949D01*
X121199Y202526D01*
X120323Y202888D01*
X119383Y203012D01*
D02*
G37*
G36*
X109383D02*
X108443Y202888D01*
X107568Y202526D01*
X106816Y201949D01*
X106239Y201197D01*
X105876Y200321D01*
X105752Y199381D01*
X105876Y198441D01*
X106239Y197565D01*
X106816Y196813D01*
X107568Y196236D01*
X108443Y195874D01*
X109383Y195750D01*
X110323Y195874D01*
X111199Y196236D01*
X111951Y196813D01*
X112528Y197565D01*
X112891Y198441D01*
X113014Y199381D01*
X112891Y200321D01*
X112528Y201197D01*
X111951Y201949D01*
X111199Y202526D01*
X110323Y202888D01*
X109383Y203012D01*
D02*
G37*
G36*
X99383D02*
X98443Y202888D01*
X97568Y202526D01*
X96816Y201949D01*
X96239Y201197D01*
X95876Y200321D01*
X95752Y199381D01*
X95876Y198441D01*
X96239Y197565D01*
X96816Y196813D01*
X97568Y196236D01*
X98443Y195874D01*
X99383Y195750D01*
X100323Y195874D01*
X101199Y196236D01*
X101951Y196813D01*
X102528Y197565D01*
X102891Y198441D01*
X103014Y199381D01*
X102891Y200321D01*
X102528Y201197D01*
X101951Y201949D01*
X101199Y202526D01*
X100323Y202888D01*
X99383Y203012D01*
D02*
G37*
G36*
X179383D02*
X178443Y202888D01*
X177568Y202526D01*
X176816Y201949D01*
X176239Y201197D01*
X175876Y200321D01*
X175752Y199381D01*
X175876Y198441D01*
X176239Y197565D01*
X176816Y196813D01*
X177568Y196236D01*
X178443Y195874D01*
X179383Y195750D01*
X180323Y195874D01*
X181199Y196236D01*
X181951Y196813D01*
X182528Y197565D01*
X182890Y198441D01*
X183014Y199381D01*
X182890Y200321D01*
X182528Y201197D01*
X181951Y201949D01*
X181199Y202526D01*
X180323Y202888D01*
X179383Y203012D01*
D02*
G37*
G36*
X139383D02*
X138443Y202888D01*
X137568Y202526D01*
X136816Y201949D01*
X136239Y201197D01*
X135876Y200321D01*
X135752Y199381D01*
X135876Y198441D01*
X136239Y197565D01*
X136816Y196813D01*
X137568Y196236D01*
X138443Y195874D01*
X139383Y195750D01*
X140323Y195874D01*
X141199Y196236D01*
X141951Y196813D01*
X142528Y197565D01*
X142891Y198441D01*
X143014Y199381D01*
X142891Y200321D01*
X142528Y201197D01*
X141951Y201949D01*
X141199Y202526D01*
X140323Y202888D01*
X139383Y203012D01*
D02*
G37*
G36*
X129383D02*
X128443Y202888D01*
X127568Y202526D01*
X126816Y201949D01*
X126239Y201197D01*
X125876Y200321D01*
X125752Y199381D01*
X125876Y198441D01*
X126239Y197565D01*
X126816Y196813D01*
X127568Y196236D01*
X128443Y195874D01*
X129383Y195750D01*
X130323Y195874D01*
X131199Y196236D01*
X131951Y196813D01*
X132528Y197565D01*
X132890Y198441D01*
X133014Y199381D01*
X132890Y200321D01*
X132528Y201197D01*
X131951Y201949D01*
X131199Y202526D01*
X130323Y202888D01*
X129383Y203012D01*
D02*
G37*
G36*
X293799Y193033D02*
X293136Y192901D01*
X292574Y192525D01*
X292198Y191963D01*
X292066Y191299D01*
X292198Y190636D01*
X292574Y190074D01*
X293136Y189698D01*
X293799Y189566D01*
X294462Y189698D01*
X295025Y190074D01*
X295401Y190636D01*
X295532Y191299D01*
X295401Y191963D01*
X295025Y192525D01*
X294462Y192901D01*
X293799Y193033D01*
D02*
G37*
G36*
X288799D02*
X288136Y192901D01*
X287574Y192525D01*
X287198Y191963D01*
X287066Y191299D01*
X287198Y190636D01*
X287574Y190074D01*
X288136Y189698D01*
X288799Y189566D01*
X289462Y189698D01*
X290025Y190074D01*
X290401Y190636D01*
X290532Y191299D01*
X290401Y191963D01*
X290025Y192525D01*
X289462Y192901D01*
X288799Y193033D01*
D02*
G37*
G36*
X283799D02*
X283136Y192901D01*
X282574Y192525D01*
X282198Y191963D01*
X282066Y191299D01*
X282198Y190636D01*
X282574Y190074D01*
X283136Y189698D01*
X283799Y189566D01*
X284462Y189698D01*
X285025Y190074D01*
X285401Y190636D01*
X285532Y191299D01*
X285401Y191963D01*
X285025Y192525D01*
X284462Y192901D01*
X283799Y193033D01*
D02*
G37*
G36*
X89383Y203012D02*
X88443Y202888D01*
X87568Y202526D01*
X86816Y201949D01*
X86239Y201197D01*
X85876Y200321D01*
X85752Y199381D01*
X85876Y198441D01*
X86239Y197565D01*
X86816Y196813D01*
X87568Y196236D01*
X88443Y195874D01*
X89383Y195750D01*
X90323Y195874D01*
X91199Y196236D01*
X91951Y196813D01*
X92528Y197565D01*
X92891Y198441D01*
X93014Y199381D01*
X92891Y200321D01*
X92528Y201197D01*
X91951Y201949D01*
X91199Y202526D01*
X90323Y202888D01*
X89383Y203012D01*
D02*
G37*
G36*
X303799Y193033D02*
X303136Y192901D01*
X302574Y192525D01*
X302198Y191963D01*
X302066Y191299D01*
X302198Y190636D01*
X302574Y190074D01*
X303136Y189698D01*
X303799Y189566D01*
X304463Y189698D01*
X305025Y190074D01*
X305401Y190636D01*
X305533Y191299D01*
X305401Y191963D01*
X305025Y192525D01*
X304463Y192901D01*
X303799Y193033D01*
D02*
G37*
G36*
X298799D02*
X298136Y192901D01*
X297574Y192525D01*
X297198Y191963D01*
X297066Y191299D01*
X297198Y190636D01*
X297574Y190074D01*
X298136Y189698D01*
X298799Y189566D01*
X299463Y189698D01*
X300025Y190074D01*
X300401Y190636D01*
X300533Y191299D01*
X300401Y191963D01*
X300025Y192525D01*
X299463Y192901D01*
X298799Y193033D01*
D02*
G37*
G36*
X269383Y203012D02*
X268443Y202888D01*
X267568Y202526D01*
X266816Y201949D01*
X266239Y201197D01*
X265876Y200321D01*
X265752Y199381D01*
X265876Y198441D01*
X266239Y197565D01*
X266816Y196813D01*
X267568Y196236D01*
X268443Y195874D01*
X269383Y195750D01*
X270323Y195874D01*
X271199Y196236D01*
X271951Y196813D01*
X272528Y197565D01*
X272890Y198441D01*
X273014Y199381D01*
X272890Y200321D01*
X272528Y201197D01*
X271951Y201949D01*
X271199Y202526D01*
X270323Y202888D01*
X269383Y203012D01*
D02*
G37*
G36*
X259383D02*
X258443Y202888D01*
X257568Y202526D01*
X256816Y201949D01*
X256239Y201197D01*
X255876Y200321D01*
X255752Y199381D01*
X255876Y198441D01*
X256239Y197565D01*
X256816Y196813D01*
X257568Y196236D01*
X258443Y195874D01*
X259383Y195750D01*
X260323Y195874D01*
X261199Y196236D01*
X261951Y196813D01*
X262528Y197565D01*
X262891Y198441D01*
X263014Y199381D01*
X262891Y200321D01*
X262528Y201197D01*
X261951Y201949D01*
X261199Y202526D01*
X260323Y202888D01*
X259383Y203012D01*
D02*
G37*
G36*
X249383D02*
X248443Y202888D01*
X247568Y202526D01*
X246816Y201949D01*
X246239Y201197D01*
X245876Y200321D01*
X245752Y199381D01*
X245876Y198441D01*
X246239Y197565D01*
X246816Y196813D01*
X247568Y196236D01*
X248443Y195874D01*
X249383Y195750D01*
X250323Y195874D01*
X251199Y196236D01*
X251951Y196813D01*
X252528Y197565D01*
X252890Y198441D01*
X253014Y199381D01*
X252890Y200321D01*
X252528Y201197D01*
X251951Y201949D01*
X251199Y202526D01*
X250323Y202888D01*
X249383Y203012D01*
D02*
G37*
G36*
X299383D02*
X298443Y202888D01*
X297568Y202526D01*
X296816Y201949D01*
X296239Y201197D01*
X295876Y200321D01*
X295752Y199381D01*
X295876Y198441D01*
X296239Y197565D01*
X296816Y196813D01*
X297568Y196236D01*
X298443Y195874D01*
X299383Y195750D01*
X300323Y195874D01*
X301199Y196236D01*
X301951Y196813D01*
X302528Y197565D01*
X302890Y198441D01*
X303014Y199381D01*
X302890Y200321D01*
X302528Y201197D01*
X301951Y201949D01*
X301199Y202526D01*
X300323Y202888D01*
X299383Y203012D01*
D02*
G37*
G36*
X289383D02*
X288443Y202888D01*
X287568Y202526D01*
X286816Y201949D01*
X286239Y201197D01*
X285876Y200321D01*
X285752Y199381D01*
X285876Y198441D01*
X286239Y197565D01*
X286816Y196813D01*
X287568Y196236D01*
X288443Y195874D01*
X289383Y195750D01*
X290323Y195874D01*
X291199Y196236D01*
X291951Y196813D01*
X292528Y197565D01*
X292891Y198441D01*
X293014Y199381D01*
X292891Y200321D01*
X292528Y201197D01*
X291951Y201949D01*
X291199Y202526D01*
X290323Y202888D01*
X289383Y203012D01*
D02*
G37*
G36*
X279383D02*
X278443Y202888D01*
X277568Y202526D01*
X276816Y201949D01*
X276239Y201197D01*
X275876Y200321D01*
X275752Y199381D01*
X275876Y198441D01*
X276239Y197565D01*
X276816Y196813D01*
X277568Y196236D01*
X278443Y195874D01*
X279383Y195750D01*
X280323Y195874D01*
X281199Y196236D01*
X281951Y196813D01*
X282528Y197565D01*
X282891Y198441D01*
X283014Y199381D01*
X282891Y200321D01*
X282528Y201197D01*
X281951Y201949D01*
X281199Y202526D01*
X280323Y202888D01*
X279383Y203012D01*
D02*
G37*
G36*
X209383D02*
X208443Y202888D01*
X207568Y202526D01*
X206816Y201949D01*
X206239Y201197D01*
X205876Y200321D01*
X205752Y199381D01*
X205876Y198441D01*
X206239Y197565D01*
X206816Y196813D01*
X207568Y196236D01*
X208443Y195874D01*
X209383Y195750D01*
X210323Y195874D01*
X211199Y196236D01*
X211951Y196813D01*
X212528Y197565D01*
X212891Y198441D01*
X213014Y199381D01*
X212891Y200321D01*
X212528Y201197D01*
X211951Y201949D01*
X211199Y202526D01*
X210323Y202888D01*
X209383Y203012D01*
D02*
G37*
G36*
X199383D02*
X198443Y202888D01*
X197568Y202526D01*
X196816Y201949D01*
X196239Y201197D01*
X195876Y200321D01*
X195752Y199381D01*
X195876Y198441D01*
X196239Y197565D01*
X196816Y196813D01*
X197568Y196236D01*
X198443Y195874D01*
X199383Y195750D01*
X200323Y195874D01*
X201199Y196236D01*
X201951Y196813D01*
X202528Y197565D01*
X202890Y198441D01*
X203014Y199381D01*
X202890Y200321D01*
X202528Y201197D01*
X201951Y201949D01*
X201199Y202526D01*
X200323Y202888D01*
X199383Y203012D01*
D02*
G37*
G36*
X189383D02*
X188443Y202888D01*
X187568Y202526D01*
X186816Y201949D01*
X186239Y201197D01*
X185876Y200321D01*
X185752Y199381D01*
X185876Y198441D01*
X186239Y197565D01*
X186816Y196813D01*
X187568Y196236D01*
X188443Y195874D01*
X189383Y195750D01*
X190323Y195874D01*
X191199Y196236D01*
X191951Y196813D01*
X192528Y197565D01*
X192891Y198441D01*
X193014Y199381D01*
X192891Y200321D01*
X192528Y201197D01*
X191951Y201949D01*
X191199Y202526D01*
X190323Y202888D01*
X189383Y203012D01*
D02*
G37*
G36*
X239383D02*
X238443Y202888D01*
X237568Y202526D01*
X236816Y201949D01*
X236239Y201197D01*
X235876Y200321D01*
X235752Y199381D01*
X235876Y198441D01*
X236239Y197565D01*
X236816Y196813D01*
X237568Y196236D01*
X238443Y195874D01*
X239383Y195750D01*
X240323Y195874D01*
X241199Y196236D01*
X241951Y196813D01*
X242528Y197565D01*
X242891Y198441D01*
X243014Y199381D01*
X242891Y200321D01*
X242528Y201197D01*
X241951Y201949D01*
X241199Y202526D01*
X240323Y202888D01*
X239383Y203012D01*
D02*
G37*
G36*
X229383D02*
X228443Y202888D01*
X227568Y202526D01*
X226816Y201949D01*
X226239Y201197D01*
X225876Y200321D01*
X225752Y199381D01*
X225876Y198441D01*
X226239Y197565D01*
X226816Y196813D01*
X227568Y196236D01*
X228443Y195874D01*
X229383Y195750D01*
X230323Y195874D01*
X231199Y196236D01*
X231951Y196813D01*
X232528Y197565D01*
X232891Y198441D01*
X233014Y199381D01*
X232891Y200321D01*
X232528Y201197D01*
X231951Y201949D01*
X231199Y202526D01*
X230323Y202888D01*
X229383Y203012D01*
D02*
G37*
G36*
X219383D02*
X218443Y202888D01*
X217568Y202526D01*
X216816Y201949D01*
X216239Y201197D01*
X215876Y200321D01*
X215752Y199381D01*
X215876Y198441D01*
X216239Y197565D01*
X216816Y196813D01*
X217568Y196236D01*
X218443Y195874D01*
X219383Y195750D01*
X220323Y195874D01*
X221199Y196236D01*
X221951Y196813D01*
X222528Y197565D01*
X222890Y198441D01*
X223014Y199381D01*
X222890Y200321D01*
X222528Y201197D01*
X221951Y201949D01*
X221199Y202526D01*
X220323Y202888D01*
X219383Y203012D01*
D02*
G37*
G36*
X281299Y148032D02*
X280636Y147901D01*
X280074Y147525D01*
X279698Y146962D01*
X279566Y146299D01*
X279698Y145636D01*
X280074Y145074D01*
X280636Y144698D01*
X281299Y144566D01*
X281962Y144698D01*
X282525Y145074D01*
X282901Y145636D01*
X283032Y146299D01*
X282901Y146962D01*
X282525Y147525D01*
X281962Y147901D01*
X281299Y148032D01*
D02*
G37*
G36*
X276299D02*
X275636Y147901D01*
X275074Y147525D01*
X274698Y146962D01*
X274566Y146299D01*
X274698Y145636D01*
X275074Y145074D01*
X275636Y144698D01*
X276299Y144566D01*
X276962Y144698D01*
X277525Y145074D01*
X277901Y145636D01*
X278032Y146299D01*
X277901Y146962D01*
X277525Y147525D01*
X276962Y147901D01*
X276299Y148032D01*
D02*
G37*
G36*
X303799Y143033D02*
X303136Y142901D01*
X302574Y142525D01*
X302198Y141963D01*
X302066Y141299D01*
X302198Y140636D01*
X302574Y140074D01*
X303136Y139698D01*
X303799Y139566D01*
X304463Y139698D01*
X305025Y140074D01*
X305401Y140636D01*
X305533Y141299D01*
X305401Y141963D01*
X305025Y142525D01*
X304463Y142901D01*
X303799Y143033D01*
D02*
G37*
G36*
X296299Y148032D02*
X295636Y147901D01*
X295074Y147525D01*
X294698Y146962D01*
X294566Y146299D01*
X294698Y145636D01*
X295074Y145074D01*
X295636Y144698D01*
X296299Y144566D01*
X296962Y144698D01*
X297525Y145074D01*
X297901Y145636D01*
X298032Y146299D01*
X297901Y146962D01*
X297525Y147525D01*
X296962Y147901D01*
X296299Y148032D01*
D02*
G37*
G36*
X291299D02*
X290636Y147901D01*
X290074Y147525D01*
X289698Y146962D01*
X289566Y146299D01*
X289698Y145636D01*
X290074Y145074D01*
X290636Y144698D01*
X291299Y144566D01*
X291963Y144698D01*
X292525Y145074D01*
X292901Y145636D01*
X293033Y146299D01*
X292901Y146962D01*
X292525Y147525D01*
X291963Y147901D01*
X291299Y148032D01*
D02*
G37*
G36*
X286299D02*
X285636Y147901D01*
X285074Y147525D01*
X284698Y146962D01*
X284566Y146299D01*
X284698Y145636D01*
X285074Y145074D01*
X285636Y144698D01*
X286299Y144566D01*
X286963Y144698D01*
X287525Y145074D01*
X287901Y145636D01*
X288033Y146299D01*
X287901Y146962D01*
X287525Y147525D01*
X286963Y147901D01*
X286299Y148032D01*
D02*
G37*
G36*
X283799Y143033D02*
X283136Y142901D01*
X282574Y142525D01*
X282198Y141963D01*
X282066Y141299D01*
X282198Y140636D01*
X282574Y140074D01*
X283136Y139698D01*
X283799Y139566D01*
X284462Y139698D01*
X285025Y140074D01*
X285401Y140636D01*
X285532Y141299D01*
X285401Y141963D01*
X285025Y142525D01*
X284462Y142901D01*
X283799Y143033D01*
D02*
G37*
G36*
X278799D02*
X278136Y142901D01*
X277574Y142525D01*
X277198Y141963D01*
X277066Y141299D01*
X277198Y140636D01*
X277574Y140074D01*
X278136Y139698D01*
X278799Y139566D01*
X279463Y139698D01*
X280025Y140074D01*
X280401Y140636D01*
X280533Y141299D01*
X280401Y141963D01*
X280025Y142525D01*
X279463Y142901D01*
X278799Y143033D01*
D02*
G37*
G36*
X271500Y145555D02*
X270837Y145423D01*
X270274Y145047D01*
X269899Y144485D01*
X269767Y143822D01*
X269899Y143159D01*
X270274Y142596D01*
X270837Y142220D01*
X271500Y142089D01*
X271761Y142141D01*
X272147Y141708D01*
X272066Y141299D01*
X272198Y140636D01*
X272574Y140074D01*
X273136Y139698D01*
X273799Y139566D01*
X274463Y139698D01*
X275025Y140074D01*
X275401Y140636D01*
X275533Y141299D01*
X275401Y141963D01*
X275025Y142525D01*
X274463Y142901D01*
X273799Y143033D01*
X273538Y142981D01*
X273152Y143414D01*
X273233Y143822D01*
X273101Y144485D01*
X272726Y145047D01*
X272163Y145423D01*
X271500Y145555D01*
D02*
G37*
G36*
X298799Y143033D02*
X298136Y142901D01*
X297574Y142525D01*
X297198Y141963D01*
X297066Y141299D01*
X297198Y140636D01*
X297574Y140074D01*
X298136Y139698D01*
X298799Y139566D01*
X299463Y139698D01*
X300025Y140074D01*
X300401Y140636D01*
X300533Y141299D01*
X300401Y141963D01*
X300025Y142525D01*
X299463Y142901D01*
X298799Y143033D01*
D02*
G37*
G36*
X293799D02*
X293136Y142901D01*
X292574Y142525D01*
X292198Y141963D01*
X292066Y141299D01*
X292198Y140636D01*
X292574Y140074D01*
X293136Y139698D01*
X293799Y139566D01*
X294462Y139698D01*
X295025Y140074D01*
X295401Y140636D01*
X295532Y141299D01*
X295401Y141963D01*
X295025Y142525D01*
X294462Y142901D01*
X293799Y143033D01*
D02*
G37*
G36*
X288799D02*
X288136Y142901D01*
X287574Y142525D01*
X287198Y141963D01*
X287066Y141299D01*
X287198Y140636D01*
X287574Y140074D01*
X288136Y139698D01*
X288799Y139566D01*
X289462Y139698D01*
X290025Y140074D01*
X290401Y140636D01*
X290532Y141299D01*
X290401Y141963D01*
X290025Y142525D01*
X289462Y142901D01*
X288799Y143033D01*
D02*
G37*
G36*
Y153033D02*
X288136Y152901D01*
X287574Y152525D01*
X287198Y151962D01*
X287066Y151299D01*
X287198Y150636D01*
X287574Y150074D01*
X288136Y149698D01*
X288799Y149566D01*
X289462Y149698D01*
X290025Y150074D01*
X290401Y150636D01*
X290532Y151299D01*
X290401Y151962D01*
X290025Y152525D01*
X289462Y152901D01*
X288799Y153033D01*
D02*
G37*
G36*
X283799D02*
X283136Y152901D01*
X282574Y152525D01*
X282198Y151962D01*
X282066Y151299D01*
X282198Y150636D01*
X282574Y150074D01*
X283136Y149698D01*
X283799Y149566D01*
X284462Y149698D01*
X285025Y150074D01*
X285401Y150636D01*
X285532Y151299D01*
X285401Y151962D01*
X285025Y152525D01*
X284462Y152901D01*
X283799Y153033D01*
D02*
G37*
G36*
X278799D02*
X278136Y152901D01*
X277574Y152525D01*
X277198Y151962D01*
X277066Y151299D01*
X277198Y150636D01*
X277574Y150074D01*
X278136Y149698D01*
X278799Y149566D01*
X279463Y149698D01*
X280025Y150074D01*
X280401Y150636D01*
X280533Y151299D01*
X280401Y151962D01*
X280025Y152525D01*
X279463Y152901D01*
X278799Y153033D01*
D02*
G37*
G36*
X303799D02*
X303136Y152901D01*
X302574Y152525D01*
X302198Y151962D01*
X302066Y151299D01*
X302198Y150636D01*
X302574Y150074D01*
X303136Y149698D01*
X303799Y149566D01*
X304463Y149698D01*
X305025Y150074D01*
X305401Y150636D01*
X305533Y151299D01*
X305401Y151962D01*
X305025Y152525D01*
X304463Y152901D01*
X303799Y153033D01*
D02*
G37*
G36*
X298799D02*
X298136Y152901D01*
X297574Y152525D01*
X297198Y151962D01*
X297066Y151299D01*
X297198Y150636D01*
X297574Y150074D01*
X298136Y149698D01*
X298799Y149566D01*
X299463Y149698D01*
X300025Y150074D01*
X300401Y150636D01*
X300533Y151299D01*
X300401Y151962D01*
X300025Y152525D01*
X299463Y152901D01*
X298799Y153033D01*
D02*
G37*
G36*
X293799D02*
X293136Y152901D01*
X292574Y152525D01*
X292198Y151962D01*
X292066Y151299D01*
X292198Y150636D01*
X292574Y150074D01*
X293136Y149698D01*
X293799Y149566D01*
X294462Y149698D01*
X295025Y150074D01*
X295401Y150636D01*
X295532Y151299D01*
X295401Y151962D01*
X295025Y152525D01*
X294462Y152901D01*
X293799Y153033D01*
D02*
G37*
G36*
X253799D02*
X253136Y152901D01*
X252574Y152525D01*
X252198Y151962D01*
X252066Y151299D01*
X252198Y150636D01*
X252574Y150074D01*
X253136Y149698D01*
X253799Y149566D01*
X254463Y149698D01*
X255025Y150074D01*
X255401Y150636D01*
X255533Y151299D01*
X255401Y151962D01*
X255025Y152525D01*
X254463Y152901D01*
X253799Y153033D01*
D02*
G37*
G36*
X267500Y149233D02*
X266837Y149101D01*
X266274Y148726D01*
X265899Y148163D01*
X265767Y147500D01*
X265899Y146837D01*
X266274Y146274D01*
X266837Y145899D01*
X267500Y145767D01*
X268163Y145899D01*
X268726Y146274D01*
X269101Y146837D01*
X269233Y147500D01*
X269101Y148163D01*
X268726Y148726D01*
X268163Y149101D01*
X267500Y149233D01*
D02*
G37*
G36*
X301299Y148032D02*
X300636Y147901D01*
X300074Y147525D01*
X299698Y146962D01*
X299566Y146299D01*
X299698Y145636D01*
X300074Y145074D01*
X300636Y144698D01*
X301299Y144566D01*
X301962Y144698D01*
X302525Y145074D01*
X302901Y145636D01*
X303032Y146299D01*
X302901Y146962D01*
X302525Y147525D01*
X301962Y147901D01*
X301299Y148032D01*
D02*
G37*
G36*
X273799Y153033D02*
X273136Y152901D01*
X272574Y152525D01*
X272198Y151962D01*
X272066Y151299D01*
X272198Y150636D01*
X272574Y150074D01*
X273136Y149698D01*
X273799Y149566D01*
X274463Y149698D01*
X275025Y150074D01*
X275401Y150636D01*
X275533Y151299D01*
X275401Y151962D01*
X275025Y152525D01*
X274463Y152901D01*
X273799Y153033D01*
D02*
G37*
G36*
X268799D02*
X268136Y152901D01*
X267574Y152525D01*
X267198Y151962D01*
X267066Y151299D01*
X267198Y150636D01*
X267574Y150074D01*
X268136Y149698D01*
X268799Y149566D01*
X269462Y149698D01*
X270025Y150074D01*
X270401Y150636D01*
X270532Y151299D01*
X270401Y151962D01*
X270025Y152525D01*
X269462Y152901D01*
X268799Y153033D01*
D02*
G37*
G36*
X258799D02*
X258136Y152901D01*
X257574Y152525D01*
X257198Y151962D01*
X257066Y151299D01*
X257198Y150636D01*
X257574Y150074D01*
X258136Y149698D01*
X258799Y149566D01*
X259462Y149698D01*
X260025Y150074D01*
X260401Y150636D01*
X260532Y151299D01*
X260401Y151962D01*
X260025Y152525D01*
X259462Y152901D01*
X258799Y153033D01*
D02*
G37*
G36*
X301299Y128033D02*
X300636Y127901D01*
X300074Y127525D01*
X299698Y126962D01*
X299566Y126299D01*
X299698Y125636D01*
X300074Y125074D01*
X300636Y124698D01*
X301299Y124566D01*
X301962Y124698D01*
X302525Y125074D01*
X302901Y125636D01*
X303032Y126299D01*
X302901Y126962D01*
X302525Y127525D01*
X301962Y127901D01*
X301299Y128033D01*
D02*
G37*
G36*
X296299D02*
X295636Y127901D01*
X295074Y127525D01*
X294698Y126962D01*
X294566Y126299D01*
X294698Y125636D01*
X295074Y125074D01*
X295636Y124698D01*
X296299Y124566D01*
X296962Y124698D01*
X297525Y125074D01*
X297901Y125636D01*
X298032Y126299D01*
X297901Y126962D01*
X297525Y127525D01*
X296962Y127901D01*
X296299Y128033D01*
D02*
G37*
G36*
X291299D02*
X290636Y127901D01*
X290074Y127525D01*
X289698Y126962D01*
X289566Y126299D01*
X289698Y125636D01*
X290074Y125074D01*
X290636Y124698D01*
X291299Y124566D01*
X291963Y124698D01*
X292525Y125074D01*
X292901Y125636D01*
X293033Y126299D01*
X292901Y126962D01*
X292525Y127525D01*
X291963Y127901D01*
X291299Y128033D01*
D02*
G37*
G36*
X258799Y133033D02*
X258136Y132901D01*
X257574Y132525D01*
X257198Y131963D01*
X257066Y131299D01*
X257198Y130636D01*
X257574Y130074D01*
X258136Y129698D01*
X258799Y129566D01*
X259462Y129698D01*
X260025Y130074D01*
X260401Y130636D01*
X260532Y131299D01*
X260401Y131963D01*
X260025Y132525D01*
X259462Y132901D01*
X258799Y133033D01*
D02*
G37*
G36*
X262659Y128918D02*
X261995Y128786D01*
X261433Y128410D01*
X261057Y127848D01*
X260925Y127185D01*
X261057Y126522D01*
X261433Y125959D01*
X261995Y125584D01*
X262659Y125452D01*
X263322Y125584D01*
X263884Y125959D01*
X264260Y126522D01*
X264392Y127185D01*
X264260Y127848D01*
X263884Y128410D01*
X263322Y128786D01*
X262659Y128918D01*
D02*
G37*
G36*
X282000Y128733D02*
X281337Y128601D01*
X280774Y128226D01*
X280399Y127663D01*
X280267Y127000D01*
X280399Y126337D01*
X280774Y125774D01*
X281337Y125399D01*
X282000Y125267D01*
X282663Y125399D01*
X283226Y125774D01*
X283601Y126337D01*
X283733Y127000D01*
X283601Y127663D01*
X283226Y128226D01*
X282663Y128601D01*
X282000Y128733D01*
D02*
G37*
G36*
X263799Y123032D02*
X263136Y122901D01*
X262574Y122525D01*
X262198Y121962D01*
X262066Y121299D01*
X262198Y120636D01*
X262574Y120074D01*
X263136Y119698D01*
X263799Y119566D01*
X264462Y119698D01*
X265025Y120074D01*
X265401Y120636D01*
X265532Y121299D01*
X265401Y121962D01*
X265025Y122525D01*
X264462Y122901D01*
X263799Y123032D01*
D02*
G37*
G36*
X265000Y119233D02*
X264337Y119101D01*
X263774Y118726D01*
X263399Y118163D01*
X263267Y117500D01*
X263399Y116837D01*
X263774Y116274D01*
X264337Y115899D01*
X265000Y115767D01*
X265663Y115899D01*
X266226Y116274D01*
X266601Y116837D01*
X266733Y117500D01*
X266601Y118163D01*
X266226Y118726D01*
X265663Y119101D01*
X265000Y119233D01*
D02*
G37*
G36*
X256299Y118033D02*
X255636Y117901D01*
X255074Y117525D01*
X254698Y116963D01*
X254566Y116299D01*
X254698Y115636D01*
X255074Y115074D01*
X255636Y114698D01*
X256299Y114566D01*
X256962Y114698D01*
X257525Y115074D01*
X257901Y115636D01*
X258032Y116299D01*
X257901Y116963D01*
X257525Y117525D01*
X256962Y117901D01*
X256299Y118033D01*
D02*
G37*
G36*
X286299Y128033D02*
X285636Y127901D01*
X285074Y127525D01*
X284698Y126962D01*
X284566Y126299D01*
X284698Y125636D01*
X285074Y125074D01*
X285636Y124698D01*
X286299Y124566D01*
X286963Y124698D01*
X287525Y125074D01*
X287901Y125636D01*
X288033Y126299D01*
X287901Y126962D01*
X287525Y127525D01*
X286963Y127901D01*
X286299Y128033D01*
D02*
G37*
G36*
X256299D02*
X255636Y127901D01*
X255074Y127525D01*
X254698Y126962D01*
X254566Y126299D01*
X254698Y125636D01*
X255074Y125074D01*
X255636Y124698D01*
X256299Y124566D01*
X256962Y124698D01*
X257525Y125074D01*
X257901Y125636D01*
X258032Y126299D01*
X257901Y126962D01*
X257525Y127525D01*
X256962Y127901D01*
X256299Y128033D01*
D02*
G37*
G36*
X282000Y123233D02*
X281337Y123101D01*
X280774Y122726D01*
X280399Y122163D01*
X280267Y121500D01*
X280399Y120837D01*
X280774Y120274D01*
X281337Y119899D01*
X282000Y119767D01*
X282663Y119899D01*
X283226Y120274D01*
X283601Y120837D01*
X283733Y121500D01*
X283601Y122163D01*
X283226Y122726D01*
X282663Y123101D01*
X282000Y123233D01*
D02*
G37*
G36*
X286299Y138032D02*
X285636Y137901D01*
X285074Y137525D01*
X284698Y136962D01*
X284566Y136299D01*
X284698Y135636D01*
X285074Y135074D01*
X285636Y134698D01*
X286299Y134566D01*
X286963Y134698D01*
X287525Y135074D01*
X287901Y135636D01*
X288033Y136299D01*
X287901Y136962D01*
X287525Y137525D01*
X286963Y137901D01*
X286299Y138032D01*
D02*
G37*
G36*
X276299D02*
X275636Y137901D01*
X275074Y137525D01*
X274698Y136962D01*
X274566Y136299D01*
X274698Y135636D01*
X275074Y135074D01*
X275636Y134698D01*
X276299Y134566D01*
X276962Y134698D01*
X277525Y135074D01*
X277901Y135636D01*
X278032Y136299D01*
X277901Y136962D01*
X277525Y137525D01*
X276962Y137901D01*
X276299Y138032D01*
D02*
G37*
G36*
X271299D02*
X270636Y137901D01*
X270074Y137525D01*
X269698Y136962D01*
X269566Y136299D01*
X269698Y135636D01*
X270074Y135074D01*
X270636Y134698D01*
X271299Y134566D01*
X271962Y134698D01*
X272525Y135074D01*
X272901Y135636D01*
X273032Y136299D01*
X272901Y136962D01*
X272525Y137525D01*
X271962Y137901D01*
X271299Y138032D01*
D02*
G37*
G36*
X301299D02*
X300636Y137901D01*
X300074Y137525D01*
X299698Y136962D01*
X299566Y136299D01*
X299698Y135636D01*
X300074Y135074D01*
X300636Y134698D01*
X301299Y134566D01*
X301962Y134698D01*
X302525Y135074D01*
X302901Y135636D01*
X303032Y136299D01*
X302901Y136962D01*
X302525Y137525D01*
X301962Y137901D01*
X301299Y138032D01*
D02*
G37*
G36*
X296299D02*
X295636Y137901D01*
X295074Y137525D01*
X294698Y136962D01*
X294566Y136299D01*
X294698Y135636D01*
X295074Y135074D01*
X295636Y134698D01*
X296299Y134566D01*
X296962Y134698D01*
X297525Y135074D01*
X297901Y135636D01*
X298032Y136299D01*
X297901Y136962D01*
X297525Y137525D01*
X296962Y137901D01*
X296299Y138032D01*
D02*
G37*
G36*
X291299D02*
X290636Y137901D01*
X290074Y137525D01*
X289698Y136962D01*
X289566Y136299D01*
X289698Y135636D01*
X290074Y135074D01*
X290636Y134698D01*
X291299Y134566D01*
X291963Y134698D01*
X292525Y135074D01*
X292901Y135636D01*
X293033Y136299D01*
X292901Y136962D01*
X292525Y137525D01*
X291963Y137901D01*
X291299Y138032D01*
D02*
G37*
G36*
X298799Y133033D02*
X298136Y132901D01*
X297574Y132525D01*
X297198Y131963D01*
X297066Y131299D01*
X297198Y130636D01*
X297574Y130074D01*
X298136Y129698D01*
X298799Y129566D01*
X299463Y129698D01*
X300025Y130074D01*
X300401Y130636D01*
X300533Y131299D01*
X300401Y131963D01*
X300025Y132525D01*
X299463Y132901D01*
X298799Y133033D01*
D02*
G37*
G36*
X293799D02*
X293136Y132901D01*
X292574Y132525D01*
X292198Y131963D01*
X292066Y131299D01*
X292198Y130636D01*
X292574Y130074D01*
X293136Y129698D01*
X293799Y129566D01*
X294462Y129698D01*
X295025Y130074D01*
X295401Y130636D01*
X295532Y131299D01*
X295401Y131963D01*
X295025Y132525D01*
X294462Y132901D01*
X293799Y133033D01*
D02*
G37*
G36*
X288799D02*
X288136Y132901D01*
X287574Y132525D01*
X287198Y131963D01*
X287066Y131299D01*
X287198Y130636D01*
X287574Y130074D01*
X288136Y129698D01*
X288799Y129566D01*
X289462Y129698D01*
X290025Y130074D01*
X290401Y130636D01*
X290532Y131299D01*
X290401Y131963D01*
X290025Y132525D01*
X289462Y132901D01*
X288799Y133033D01*
D02*
G37*
G36*
X220988Y136146D02*
X220325Y136014D01*
X219763Y135638D01*
X219387Y135076D01*
X219255Y134413D01*
X219387Y133749D01*
X219763Y133187D01*
X220325Y132811D01*
X220988Y132679D01*
X221652Y132811D01*
X222214Y133187D01*
X222590Y133749D01*
X222722Y134413D01*
X222590Y135076D01*
X222214Y135638D01*
X221652Y136014D01*
X220988Y136146D01*
D02*
G37*
G36*
X281299Y138032D02*
X280636Y137901D01*
X280074Y137525D01*
X279698Y136962D01*
X279566Y136299D01*
X279698Y135636D01*
X280074Y135074D01*
X280636Y134698D01*
X281299Y134566D01*
X281337Y134101D01*
X280774Y133726D01*
X280399Y133163D01*
X280267Y132500D01*
X280399Y131837D01*
X280774Y131274D01*
X281337Y130899D01*
X282000Y130767D01*
X282663Y130899D01*
X283226Y131274D01*
X283601Y131837D01*
X283733Y132500D01*
X283601Y133163D01*
X283226Y133726D01*
X282663Y134101D01*
X282000Y134233D01*
X281962Y134698D01*
X282525Y135074D01*
X282901Y135636D01*
X283032Y136299D01*
X282901Y136962D01*
X282525Y137525D01*
X281962Y137901D01*
X281299Y138032D01*
D02*
G37*
G36*
X303799Y133033D02*
X303136Y132901D01*
X302574Y132525D01*
X302198Y131963D01*
X302066Y131299D01*
X302198Y130636D01*
X302574Y130074D01*
X303136Y129698D01*
X303799Y129566D01*
X304463Y129698D01*
X305025Y130074D01*
X305401Y130636D01*
X305533Y131299D01*
X305401Y131963D01*
X305025Y132525D01*
X304463Y132901D01*
X303799Y133033D01*
D02*
G37*
G36*
X263500Y153112D02*
X262837Y152980D01*
X262274Y152604D01*
X261899Y152042D01*
X261767Y151378D01*
X261899Y150715D01*
X262274Y150153D01*
X262837Y149777D01*
X263500Y149645D01*
X264163Y149777D01*
X264726Y150153D01*
X265101Y150715D01*
X265233Y151378D01*
X265101Y152042D01*
X264726Y152604D01*
X264163Y152980D01*
X263500Y153112D01*
D02*
G37*
G36*
X271299Y168033D02*
X270636Y167901D01*
X270074Y167525D01*
X269698Y166963D01*
X269566Y166299D01*
X269698Y165636D01*
X270074Y165074D01*
X270636Y164698D01*
X271299Y164566D01*
X271962Y164698D01*
X272525Y165074D01*
X272901Y165636D01*
X273032Y166299D01*
X272901Y166963D01*
X272525Y167525D01*
X271962Y167901D01*
X271299Y168033D01*
D02*
G37*
G36*
X266299D02*
X265636Y167901D01*
X265074Y167525D01*
X264698Y166963D01*
X264566Y166299D01*
X264698Y165636D01*
X265074Y165074D01*
X265636Y164698D01*
X266299Y164566D01*
X266963Y164698D01*
X267525Y165074D01*
X267901Y165636D01*
X268033Y166299D01*
X267901Y166963D01*
X267525Y167525D01*
X266963Y167901D01*
X266299Y168033D01*
D02*
G37*
G36*
X261299D02*
X260636Y167901D01*
X260074Y167525D01*
X259698Y166963D01*
X259566Y166299D01*
X259698Y165636D01*
X260074Y165074D01*
X260636Y164698D01*
X261299Y164566D01*
X261963Y164698D01*
X262525Y165074D01*
X262901Y165636D01*
X263033Y166299D01*
X262901Y166963D01*
X262525Y167525D01*
X261963Y167901D01*
X261299Y168033D01*
D02*
G37*
G36*
X286299D02*
X285636Y167901D01*
X285074Y167525D01*
X284698Y166963D01*
X284566Y166299D01*
X284698Y165636D01*
X285074Y165074D01*
X285636Y164698D01*
X286299Y164566D01*
X286963Y164698D01*
X287525Y165074D01*
X287901Y165636D01*
X288033Y166299D01*
X287901Y166963D01*
X287525Y167525D01*
X286963Y167901D01*
X286299Y168033D01*
D02*
G37*
G36*
X281299D02*
X280636Y167901D01*
X280074Y167525D01*
X279698Y166963D01*
X279566Y166299D01*
X279698Y165636D01*
X280074Y165074D01*
X280636Y164698D01*
X281299Y164566D01*
X281962Y164698D01*
X282525Y165074D01*
X282901Y165636D01*
X283032Y166299D01*
X282901Y166963D01*
X282525Y167525D01*
X281962Y167901D01*
X281299Y168033D01*
D02*
G37*
G36*
X276299D02*
X275636Y167901D01*
X275074Y167525D01*
X274698Y166963D01*
X274566Y166299D01*
X274698Y165636D01*
X275074Y165074D01*
X275636Y164698D01*
X276299Y164566D01*
X276962Y164698D01*
X277525Y165074D01*
X277901Y165636D01*
X278032Y166299D01*
X277901Y166963D01*
X277525Y167525D01*
X276962Y167901D01*
X276299Y168033D01*
D02*
G37*
G36*
X298799Y163032D02*
X298136Y162901D01*
X297574Y162525D01*
X297198Y161962D01*
X297066Y161299D01*
X297198Y160636D01*
X297574Y160074D01*
X298136Y159698D01*
X298799Y159566D01*
X299463Y159698D01*
X300025Y160074D01*
X300401Y160636D01*
X300533Y161299D01*
X300401Y161962D01*
X300025Y162525D01*
X299463Y162901D01*
X298799Y163032D01*
D02*
G37*
G36*
X293799D02*
X293136Y162901D01*
X292574Y162525D01*
X292198Y161962D01*
X292066Y161299D01*
X292198Y160636D01*
X292574Y160074D01*
X293136Y159698D01*
X293799Y159566D01*
X294462Y159698D01*
X295025Y160074D01*
X295401Y160636D01*
X295532Y161299D01*
X295401Y161962D01*
X295025Y162525D01*
X294462Y162901D01*
X293799Y163032D01*
D02*
G37*
G36*
X288799D02*
X288136Y162901D01*
X287574Y162525D01*
X287198Y161962D01*
X287066Y161299D01*
X287198Y160636D01*
X287574Y160074D01*
X288136Y159698D01*
X288799Y159566D01*
X289462Y159698D01*
X290025Y160074D01*
X290401Y160636D01*
X290532Y161299D01*
X290401Y161962D01*
X290025Y162525D01*
X289462Y162901D01*
X288799Y163032D01*
D02*
G37*
G36*
X256299Y168033D02*
X255636Y167901D01*
X255074Y167525D01*
X254698Y166963D01*
X254566Y166299D01*
X254698Y165636D01*
X255074Y165074D01*
X255636Y164698D01*
X256299Y164566D01*
X256962Y164698D01*
X257525Y165074D01*
X257901Y165636D01*
X258032Y166299D01*
X257901Y166963D01*
X257525Y167525D01*
X256962Y167901D01*
X256299Y168033D01*
D02*
G37*
G36*
X251299D02*
X250636Y167901D01*
X250074Y167525D01*
X249698Y166963D01*
X249566Y166299D01*
X249698Y165636D01*
X250074Y165074D01*
X250636Y164698D01*
X251299Y164566D01*
X251962Y164698D01*
X252525Y165074D01*
X252901Y165636D01*
X253032Y166299D01*
X252901Y166963D01*
X252525Y167525D01*
X251962Y167901D01*
X251299Y168033D01*
D02*
G37*
G36*
X303799Y163032D02*
X303136Y162901D01*
X302574Y162525D01*
X302198Y161962D01*
X302066Y161299D01*
X302198Y160636D01*
X302574Y160074D01*
X303136Y159698D01*
X303799Y159566D01*
X304463Y159698D01*
X305025Y160074D01*
X305401Y160636D01*
X305533Y161299D01*
X305401Y161962D01*
X305025Y162525D01*
X304463Y162901D01*
X303799Y163032D01*
D02*
G37*
G36*
X273799Y173032D02*
X273136Y172901D01*
X272574Y172525D01*
X272198Y171962D01*
X272066Y171299D01*
X272198Y170636D01*
X272574Y170074D01*
X273136Y169698D01*
X273799Y169566D01*
X274463Y169698D01*
X275025Y170074D01*
X275401Y170636D01*
X275533Y171299D01*
X275401Y171962D01*
X275025Y172525D01*
X274463Y172901D01*
X273799Y173032D01*
D02*
G37*
G36*
X268799D02*
X268136Y172901D01*
X267574Y172525D01*
X267198Y171962D01*
X267066Y171299D01*
X267198Y170636D01*
X267574Y170074D01*
X268136Y169698D01*
X268799Y169566D01*
X269462Y169698D01*
X270025Y170074D01*
X270401Y170636D01*
X270532Y171299D01*
X270401Y171962D01*
X270025Y172525D01*
X269462Y172901D01*
X268799Y173032D01*
D02*
G37*
G36*
X263799D02*
X263136Y172901D01*
X262574Y172525D01*
X262198Y171962D01*
X262066Y171299D01*
X262198Y170636D01*
X262574Y170074D01*
X263136Y169698D01*
X263799Y169566D01*
X264462Y169698D01*
X265025Y170074D01*
X265401Y170636D01*
X265532Y171299D01*
X265401Y171962D01*
X265025Y172525D01*
X264462Y172901D01*
X263799Y173032D01*
D02*
G37*
G36*
X288799D02*
X288136Y172901D01*
X287574Y172525D01*
X287198Y171962D01*
X287066Y171299D01*
X287198Y170636D01*
X287574Y170074D01*
X288136Y169698D01*
X288799Y169566D01*
X289462Y169698D01*
X290025Y170074D01*
X290401Y170636D01*
X290532Y171299D01*
X290401Y171962D01*
X290025Y172525D01*
X289462Y172901D01*
X288799Y173032D01*
D02*
G37*
G36*
X283799D02*
X283136Y172901D01*
X282574Y172525D01*
X282198Y171962D01*
X282066Y171299D01*
X282198Y170636D01*
X282574Y170074D01*
X283136Y169698D01*
X283799Y169566D01*
X284462Y169698D01*
X285025Y170074D01*
X285401Y170636D01*
X285532Y171299D01*
X285401Y171962D01*
X285025Y172525D01*
X284462Y172901D01*
X283799Y173032D01*
D02*
G37*
G36*
X278799D02*
X278136Y172901D01*
X277574Y172525D01*
X277198Y171962D01*
X277066Y171299D01*
X277198Y170636D01*
X277574Y170074D01*
X278136Y169698D01*
X278799Y169566D01*
X279463Y169698D01*
X280025Y170074D01*
X280401Y170636D01*
X280533Y171299D01*
X280401Y171962D01*
X280025Y172525D01*
X279463Y172901D01*
X278799Y173032D01*
D02*
G37*
G36*
X301299Y168033D02*
X300636Y167901D01*
X300074Y167525D01*
X299698Y166963D01*
X299566Y166299D01*
X299698Y165636D01*
X300074Y165074D01*
X300636Y164698D01*
X301299Y164566D01*
X301962Y164698D01*
X302525Y165074D01*
X302901Y165636D01*
X303032Y166299D01*
X302901Y166963D01*
X302525Y167525D01*
X301962Y167901D01*
X301299Y168033D01*
D02*
G37*
G36*
X296299D02*
X295636Y167901D01*
X295074Y167525D01*
X294698Y166963D01*
X294566Y166299D01*
X294698Y165636D01*
X295074Y165074D01*
X295636Y164698D01*
X296299Y164566D01*
X296962Y164698D01*
X297525Y165074D01*
X297901Y165636D01*
X298032Y166299D01*
X297901Y166963D01*
X297525Y167525D01*
X296962Y167901D01*
X296299Y168033D01*
D02*
G37*
G36*
X291299D02*
X290636Y167901D01*
X290074Y167525D01*
X289698Y166963D01*
X289566Y166299D01*
X289698Y165636D01*
X290074Y165074D01*
X290636Y164698D01*
X291299Y164566D01*
X291963Y164698D01*
X292525Y165074D01*
X292901Y165636D01*
X293033Y166299D01*
X292901Y166963D01*
X292525Y167525D01*
X291963Y167901D01*
X291299Y168033D01*
D02*
G37*
G36*
X258799Y173032D02*
X258136Y172901D01*
X257574Y172525D01*
X257198Y171962D01*
X257066Y171299D01*
X257198Y170636D01*
X257574Y170074D01*
X258136Y169698D01*
X258799Y169566D01*
X259462Y169698D01*
X260025Y170074D01*
X260401Y170636D01*
X260532Y171299D01*
X260401Y171962D01*
X260025Y172525D01*
X259462Y172901D01*
X258799Y173032D01*
D02*
G37*
G36*
X253799D02*
X253136Y172901D01*
X252574Y172525D01*
X252198Y171962D01*
X252066Y171299D01*
X252198Y170636D01*
X252574Y170074D01*
X253136Y169698D01*
X253799Y169566D01*
X254463Y169698D01*
X255025Y170074D01*
X255401Y170636D01*
X255533Y171299D01*
X255401Y171962D01*
X255025Y172525D01*
X254463Y172901D01*
X253799Y173032D01*
D02*
G37*
G36*
X234500Y170084D02*
X233837Y169952D01*
X233274Y169576D01*
X232899Y169014D01*
X232767Y168350D01*
X232899Y167687D01*
X233274Y167125D01*
X233837Y166749D01*
X234500Y166617D01*
X235163Y166749D01*
X235726Y167125D01*
X236101Y167687D01*
X236233Y168350D01*
X236101Y169014D01*
X235726Y169576D01*
X235163Y169952D01*
X234500Y170084D01*
D02*
G37*
G36*
X261299Y158033D02*
X260636Y157901D01*
X260074Y157525D01*
X259698Y156963D01*
X259566Y156299D01*
X259698Y155636D01*
X260074Y155074D01*
X260636Y154698D01*
X261299Y154566D01*
X261963Y154698D01*
X262525Y155074D01*
X262901Y155636D01*
X263033Y156299D01*
X262901Y156963D01*
X262525Y157525D01*
X261963Y157901D01*
X261299Y158033D01*
D02*
G37*
G36*
X256299D02*
X255636Y157901D01*
X255074Y157525D01*
X254698Y156963D01*
X254566Y156299D01*
X254698Y155636D01*
X255074Y155074D01*
X255636Y154698D01*
X256299Y154566D01*
X256962Y154698D01*
X257525Y155074D01*
X257901Y155636D01*
X258032Y156299D01*
X257901Y156963D01*
X257525Y157525D01*
X256962Y157901D01*
X256299Y158033D01*
D02*
G37*
G36*
X251299D02*
X250636Y157901D01*
X250074Y157525D01*
X249698Y156963D01*
X249566Y156299D01*
X249698Y155636D01*
X250074Y155074D01*
X250636Y154698D01*
X251299Y154566D01*
X251962Y154698D01*
X252525Y155074D01*
X252901Y155636D01*
X253032Y156299D01*
X252901Y156963D01*
X252525Y157525D01*
X251962Y157901D01*
X251299Y158033D01*
D02*
G37*
G36*
X276299D02*
X275636Y157901D01*
X275074Y157525D01*
X274698Y156963D01*
X274566Y156299D01*
X274698Y155636D01*
X275074Y155074D01*
X275636Y154698D01*
X276299Y154566D01*
X276962Y154698D01*
X277525Y155074D01*
X277901Y155636D01*
X278032Y156299D01*
X277901Y156963D01*
X277525Y157525D01*
X276962Y157901D01*
X276299Y158033D01*
D02*
G37*
G36*
X271299D02*
X270636Y157901D01*
X270074Y157525D01*
X269698Y156963D01*
X269566Y156299D01*
X269698Y155636D01*
X270074Y155074D01*
X270636Y154698D01*
X271299Y154566D01*
X271962Y154698D01*
X272525Y155074D01*
X272901Y155636D01*
X273032Y156299D01*
X272901Y156963D01*
X272525Y157525D01*
X271962Y157901D01*
X271299Y158033D01*
D02*
G37*
G36*
X266299D02*
X265636Y157901D01*
X265074Y157525D01*
X264698Y156963D01*
X264566Y156299D01*
X264698Y155636D01*
X265074Y155074D01*
X265636Y154698D01*
X266299Y154566D01*
X266963Y154698D01*
X267525Y155074D01*
X267901Y155636D01*
X268033Y156299D01*
X267901Y156963D01*
X267525Y157525D01*
X266963Y157901D01*
X266299Y158033D01*
D02*
G37*
G36*
X231000Y153733D02*
X230337Y153601D01*
X229774Y153226D01*
X229399Y152663D01*
X229267Y152000D01*
X229399Y151337D01*
X229774Y150774D01*
X230337Y150399D01*
X231000Y150267D01*
X231663Y150399D01*
X232226Y150774D01*
X232601Y151337D01*
X232733Y152000D01*
X232601Y152663D01*
X232226Y153226D01*
X231663Y153601D01*
X231000Y153733D01*
D02*
G37*
G36*
X219000D02*
X218337Y153601D01*
X217774Y153226D01*
X217399Y152663D01*
X217267Y152000D01*
X217399Y151337D01*
X217774Y150774D01*
X218337Y150399D01*
X219000Y150267D01*
X219663Y150399D01*
X220226Y150774D01*
X220601Y151337D01*
X220733Y152000D01*
X220601Y152663D01*
X220226Y153226D01*
X219663Y153601D01*
X219000Y153733D01*
D02*
G37*
G36*
X172000Y153233D02*
X171337Y153101D01*
X170774Y152726D01*
X170399Y152163D01*
X170267Y151500D01*
X170399Y150837D01*
X170774Y150274D01*
X171337Y149899D01*
X172000Y149767D01*
X172663Y149899D01*
X173226Y150274D01*
X173601Y150837D01*
X173733Y151500D01*
X173601Y152163D01*
X173226Y152726D01*
X172663Y153101D01*
X172000Y153233D01*
D02*
G37*
G36*
X202500Y153733D02*
X201837Y153601D01*
X201274Y153226D01*
X200899Y152663D01*
X200767Y152000D01*
X200899Y151337D01*
X201274Y150774D01*
X201837Y150399D01*
X202500Y150267D01*
X203163Y150399D01*
X203726Y150774D01*
X204101Y151337D01*
X204233Y152000D01*
X204101Y152663D01*
X203726Y153226D01*
X203163Y153601D01*
X202500Y153733D01*
D02*
G37*
G36*
X213500Y153733D02*
X212837Y153601D01*
X212274Y153226D01*
X211899Y152663D01*
X211767Y152000D01*
X211899Y151337D01*
X212274Y150774D01*
X212837Y150399D01*
X213500Y150267D01*
X214163Y150399D01*
X214726Y150774D01*
X215101Y151337D01*
X215233Y152000D01*
X215101Y152663D01*
X214726Y153226D01*
X214163Y153601D01*
X213500Y153733D01*
D02*
G37*
G36*
X208000D02*
X207337Y153601D01*
X206774Y153226D01*
X206399Y152663D01*
X206267Y152000D01*
X206399Y151337D01*
X206774Y150774D01*
X207337Y150399D01*
X208000Y150267D01*
X208663Y150399D01*
X209226Y150774D01*
X209601Y151337D01*
X209733Y152000D01*
X209601Y152663D01*
X209226Y153226D01*
X208663Y153601D01*
X208000Y153733D01*
D02*
G37*
G36*
X268799Y163032D02*
X268136Y162901D01*
X267574Y162525D01*
X267198Y161962D01*
X267066Y161299D01*
X267198Y160636D01*
X267574Y160074D01*
X268136Y159698D01*
X268799Y159566D01*
X269462Y159698D01*
X270025Y160074D01*
X270401Y160636D01*
X270532Y161299D01*
X270401Y161962D01*
X270025Y162525D01*
X269462Y162901D01*
X268799Y163032D01*
D02*
G37*
G36*
X263799D02*
X263136Y162901D01*
X262574Y162525D01*
X262198Y161962D01*
X262066Y161299D01*
X262198Y160636D01*
X262574Y160074D01*
X263136Y159698D01*
X263799Y159566D01*
X264462Y159698D01*
X265025Y160074D01*
X265401Y160636D01*
X265532Y161299D01*
X265401Y161962D01*
X265025Y162525D01*
X264462Y162901D01*
X263799Y163032D01*
D02*
G37*
G36*
X258799D02*
X258136Y162901D01*
X257574Y162525D01*
X257198Y161962D01*
X257066Y161299D01*
X257198Y160636D01*
X257574Y160074D01*
X258136Y159698D01*
X258799Y159566D01*
X259462Y159698D01*
X260025Y160074D01*
X260401Y160636D01*
X260532Y161299D01*
X260401Y161962D01*
X260025Y162525D01*
X259462Y162901D01*
X258799Y163032D01*
D02*
G37*
G36*
X283799D02*
X283136Y162901D01*
X282574Y162525D01*
X282198Y161962D01*
X282066Y161299D01*
X282198Y160636D01*
X282574Y160074D01*
X283136Y159698D01*
X283799Y159566D01*
X284462Y159698D01*
X285025Y160074D01*
X285401Y160636D01*
X285532Y161299D01*
X285401Y161962D01*
X285025Y162525D01*
X284462Y162901D01*
X283799Y163032D01*
D02*
G37*
G36*
X278799D02*
X278136Y162901D01*
X277574Y162525D01*
X277198Y161962D01*
X277066Y161299D01*
X277198Y160636D01*
X277574Y160074D01*
X278136Y159698D01*
X278799Y159566D01*
X279463Y159698D01*
X280025Y160074D01*
X280401Y160636D01*
X280533Y161299D01*
X280401Y161962D01*
X280025Y162525D01*
X279463Y162901D01*
X278799Y163032D01*
D02*
G37*
G36*
X273799D02*
X273136Y162901D01*
X272574Y162525D01*
X272198Y161962D01*
X272066Y161299D01*
X272198Y160636D01*
X272574Y160074D01*
X273136Y159698D01*
X273799Y159566D01*
X274463Y159698D01*
X275025Y160074D01*
X275401Y160636D01*
X275533Y161299D01*
X275401Y161962D01*
X275025Y162525D01*
X274463Y162901D01*
X273799Y163032D01*
D02*
G37*
G36*
X291299Y158033D02*
X290636Y157901D01*
X290074Y157525D01*
X289698Y156963D01*
X289566Y156299D01*
X289698Y155636D01*
X290074Y155074D01*
X290636Y154698D01*
X291299Y154566D01*
X291963Y154698D01*
X292525Y155074D01*
X292901Y155636D01*
X293033Y156299D01*
X292901Y156963D01*
X292525Y157525D01*
X291963Y157901D01*
X291299Y158033D01*
D02*
G37*
G36*
X286299D02*
X285636Y157901D01*
X285074Y157525D01*
X284698Y156963D01*
X284566Y156299D01*
X284698Y155636D01*
X285074Y155074D01*
X285636Y154698D01*
X286299Y154566D01*
X286963Y154698D01*
X287525Y155074D01*
X287901Y155636D01*
X288033Y156299D01*
X287901Y156963D01*
X287525Y157525D01*
X286963Y157901D01*
X286299Y158033D01*
D02*
G37*
G36*
X281299D02*
X280636Y157901D01*
X280074Y157525D01*
X279698Y156963D01*
X279566Y156299D01*
X279698Y155636D01*
X280074Y155074D01*
X280636Y154698D01*
X281299Y154566D01*
X281962Y154698D01*
X282525Y155074D01*
X282901Y155636D01*
X283032Y156299D01*
X282901Y156963D01*
X282525Y157525D01*
X281962Y157901D01*
X281299Y158033D01*
D02*
G37*
G36*
X253799Y163032D02*
X253136Y162901D01*
X252574Y162525D01*
X252198Y161962D01*
X252066Y161299D01*
X252198Y160636D01*
X252574Y160074D01*
X253136Y159698D01*
X253799Y159566D01*
X254463Y159698D01*
X255025Y160074D01*
X255401Y160636D01*
X255533Y161299D01*
X255401Y161962D01*
X255025Y162525D01*
X254463Y162901D01*
X253799Y163032D01*
D02*
G37*
G36*
X301299Y158033D02*
X300636Y157901D01*
X300074Y157525D01*
X299698Y156963D01*
X299566Y156299D01*
X299698Y155636D01*
X300074Y155074D01*
X300636Y154698D01*
X301299Y154566D01*
X301962Y154698D01*
X302525Y155074D01*
X302901Y155636D01*
X303032Y156299D01*
X302901Y156963D01*
X302525Y157525D01*
X301962Y157901D01*
X301299Y158033D01*
D02*
G37*
G36*
X296299D02*
X295636Y157901D01*
X295074Y157525D01*
X294698Y156963D01*
X294566Y156299D01*
X294698Y155636D01*
X295074Y155074D01*
X295636Y154698D01*
X296299Y154566D01*
X296962Y154698D01*
X297525Y155074D01*
X297901Y155636D01*
X298032Y156299D01*
X297901Y156963D01*
X297525Y157525D01*
X296962Y157901D01*
X296299Y158033D01*
D02*
G37*
%LPD*%
D10*
X301500Y119500D02*
D03*
Y99500D02*
D03*
D28*
X288000Y119500D02*
X301500D01*
X288000Y99500D02*
X301500D01*
D29*
X153701Y15180D02*
Y35000D01*
Y15180D02*
X159500Y9381D01*
X172201Y26299D02*
Y35000D01*
Y26299D02*
X174500Y24000D01*
Y14383D02*
Y24000D01*
Y14383D02*
X179383Y9500D01*
X185201Y40500D02*
X190701Y35000D01*
X163500Y40500D02*
X185201D01*
X159383Y36383D02*
X163500Y40500D01*
X159383Y19000D02*
Y19381D01*
Y36383D01*
X202701Y28500D02*
X209201Y35000D01*
X188619Y28500D02*
X202701D01*
X179500Y19381D02*
X188619Y28500D01*
X149500Y209381D02*
X154500Y204381D01*
X194900Y101720D02*
X195000Y101620D01*
X149383Y195617D02*
Y199500D01*
X194900Y101720D02*
Y150100D01*
X149383Y195617D02*
X194900Y150100D01*
X227500Y132500D02*
Y155000D01*
X193500Y157500D02*
X225000D01*
X227500Y155000D01*
X160000Y46000D02*
Y60000D01*
X190000Y90000D02*
X206500D01*
X160000Y60000D02*
X190000Y90000D01*
X154500Y196500D02*
X193500Y157500D01*
X154500Y196500D02*
Y204381D01*
X169383Y189617D02*
Y199381D01*
Y199500D01*
Y189617D02*
X172000Y187000D01*
X233000D01*
X245000Y175000D01*
X218500Y175500D02*
X235000D01*
X201500Y168350D02*
X221150D01*
X233500Y156000D01*
X206500Y90000D02*
X213500Y97000D01*
X233500D01*
X242500Y106000D02*
Y125000D01*
X233500Y97000D02*
X242500Y106000D01*
X235000Y175500D02*
X239383Y171117D01*
X245000Y134980D02*
Y175000D01*
X244206Y130177D02*
X247500D01*
X239383Y135000D02*
X244206Y130177D01*
X239383Y135000D02*
Y171117D01*
X252500Y130657D02*
Y135000D01*
X249343Y127500D02*
X252500Y130657D01*
X197500Y107437D02*
X197563D01*
Y115063D01*
X207500Y125000D01*
X235000D01*
X237500Y127500D01*
X249343D01*
D33*
X89383Y19381D02*
D03*
Y9381D02*
D03*
X179383Y19381D02*
D03*
X189383Y9381D02*
D03*
X179383D02*
D03*
X289383D02*
D03*
X299383Y19381D02*
D03*
X259383Y9381D02*
D03*
X189383Y19381D02*
D03*
X199383Y9381D02*
D03*
X169383Y19381D02*
D03*
X99383D02*
D03*
Y9381D02*
D03*
X229383Y19381D02*
D03*
Y9381D02*
D03*
X239383D02*
D03*
X249383D02*
D03*
X239383Y19381D02*
D03*
X249383D02*
D03*
X259383D02*
D03*
X269383D02*
D03*
Y9381D02*
D03*
X279383Y19381D02*
D03*
Y9381D02*
D03*
X289383Y19381D02*
D03*
X299383Y9381D02*
D03*
X219383Y19381D02*
D03*
Y9381D02*
D03*
X209383D02*
D03*
Y19381D02*
D03*
X119383D02*
D03*
X109383D02*
D03*
Y9381D02*
D03*
X119383D02*
D03*
X199383Y19381D02*
D03*
X159383D02*
D03*
X139383Y9381D02*
D03*
X169383D02*
D03*
X129383Y19381D02*
D03*
X139383D02*
D03*
X129383Y9381D02*
D03*
X149383D02*
D03*
Y19381D02*
D03*
X159383Y9381D02*
D03*
X79383Y19381D02*
D03*
X89383Y209381D02*
D03*
Y199381D02*
D03*
X179383Y209381D02*
D03*
X189383Y199381D02*
D03*
X179383D02*
D03*
X289383D02*
D03*
X299383Y209381D02*
D03*
X259383Y199381D02*
D03*
X189383Y209381D02*
D03*
X199383Y199381D02*
D03*
X169383Y209381D02*
D03*
X99383D02*
D03*
Y199381D02*
D03*
X229383Y209381D02*
D03*
Y199381D02*
D03*
X239383D02*
D03*
X249383D02*
D03*
X239383Y209381D02*
D03*
X249383D02*
D03*
X259383D02*
D03*
X269383D02*
D03*
Y199381D02*
D03*
X279383Y209381D02*
D03*
Y199381D02*
D03*
X289383Y209381D02*
D03*
X299383Y199381D02*
D03*
X219383Y209381D02*
D03*
Y199381D02*
D03*
X209383D02*
D03*
Y209381D02*
D03*
X119383D02*
D03*
X109383D02*
D03*
Y199381D02*
D03*
X119383D02*
D03*
X199383Y209381D02*
D03*
X159383D02*
D03*
X139383Y199381D02*
D03*
X169383D02*
D03*
X129383Y209381D02*
D03*
X139383D02*
D03*
X129383Y199381D02*
D03*
X149383D02*
D03*
Y209381D02*
D03*
X159383Y199381D02*
D03*
X79383Y209381D02*
D03*
D34*
Y9381D02*
D03*
Y199381D02*
D03*
D35*
X288000Y119500D02*
D03*
Y99500D02*
D03*
D36*
X265000Y117500D02*
D03*
X210348Y63890D02*
D03*
X204848D02*
D03*
X290900Y104815D02*
D03*
X287247Y105403D02*
D03*
X283547D02*
D03*
X279847D02*
D03*
X276147D02*
D03*
X270110Y113658D02*
D03*
X273677Y114639D02*
D03*
X277252Y113683D02*
D03*
X280952D02*
D03*
X284652D02*
D03*
X288352D02*
D03*
X291780Y115074D02*
D03*
X198997Y63890D02*
D03*
X227500Y132500D02*
D03*
X233500Y130000D02*
D03*
X236500Y134000D02*
D03*
X108000Y187500D02*
D03*
X123000D02*
D03*
X138500D02*
D03*
X152500D02*
D03*
X172000Y151500D02*
D03*
X153701Y35000D02*
D03*
X172201D02*
D03*
X190701D02*
D03*
X209201D02*
D03*
X160000Y46000D02*
D03*
X197000Y152000D02*
D03*
X202500D02*
D03*
X208000Y152000D02*
D03*
X213500D02*
D03*
X219000Y152000D02*
D03*
X224500D02*
D03*
X231000D02*
D03*
X236500D02*
D03*
X242000Y152000D02*
D03*
X248000D02*
D03*
X252500Y135000D02*
D03*
X262659Y127185D02*
D03*
X195000Y101620D02*
D03*
X197563Y107437D02*
D03*
X242500Y125000D02*
D03*
X190000Y96000D02*
D03*
X202500Y95000D02*
D03*
X172500Y112937D02*
D03*
Y107437D02*
D03*
Y101620D02*
D03*
Y95937D02*
D03*
Y90437D02*
D03*
Y85000D02*
D03*
X172563Y68500D02*
D03*
X176420Y64500D02*
D03*
X180581Y61000D02*
D03*
X249343Y95657D02*
D03*
X235489Y63890D02*
D03*
X240989Y63890D02*
D03*
X246489D02*
D03*
X282000Y95657D02*
D03*
Y90157D02*
D03*
Y84657D02*
D03*
Y132500D02*
D03*
Y127000D02*
D03*
Y121500D02*
D03*
X263500Y151378D02*
D03*
X267500Y147500D02*
D03*
X271500Y143822D02*
D03*
X218500Y171500D02*
D03*
X229500Y180000D02*
D03*
X207500D02*
D03*
X218500Y175500D02*
D03*
X234500Y168350D02*
D03*
X201500D02*
D03*
X220988Y134413D02*
D03*
X245000Y134980D02*
D03*
X247500Y130177D02*
D03*
X251299Y26299D02*
D03*
X253799Y31299D02*
D03*
Y41299D02*
D03*
X251299Y46299D02*
D03*
X253799Y51299D02*
D03*
X251299Y56299D02*
D03*
X253799Y61299D02*
D03*
Y81299D02*
D03*
Y91299D02*
D03*
Y161299D02*
D03*
X251299Y166299D02*
D03*
X253799Y171299D02*
D03*
X251299Y176299D02*
D03*
X253799Y181299D02*
D03*
X251299Y186299D02*
D03*
X253799Y191299D02*
D03*
X256299Y26299D02*
D03*
X258799Y31299D02*
D03*
Y41299D02*
D03*
X256299Y46299D02*
D03*
X258799Y51299D02*
D03*
X256299Y56299D02*
D03*
X258799Y61299D02*
D03*
Y91299D02*
D03*
X256299Y116299D02*
D03*
Y126299D02*
D03*
X258799Y131299D02*
D03*
X256299Y156299D02*
D03*
X258799Y161299D02*
D03*
X256299Y166299D02*
D03*
X258799Y171299D02*
D03*
X256299Y176299D02*
D03*
X258799Y181299D02*
D03*
X256299Y186299D02*
D03*
X258799Y191299D02*
D03*
X261299Y26299D02*
D03*
X263799Y31299D02*
D03*
Y41299D02*
D03*
X261299Y46299D02*
D03*
X263799Y51299D02*
D03*
X261299Y56299D02*
D03*
X263799Y61299D02*
D03*
X261299Y66299D02*
D03*
Y86299D02*
D03*
X263799Y91299D02*
D03*
Y121299D02*
D03*
Y161299D02*
D03*
X261299Y166299D02*
D03*
X263799Y171299D02*
D03*
X261299Y176299D02*
D03*
X263799Y181299D02*
D03*
X261299Y186299D02*
D03*
X263799Y191299D02*
D03*
X266299Y26299D02*
D03*
X268799Y31299D02*
D03*
Y41299D02*
D03*
X266299Y46299D02*
D03*
X268799Y51299D02*
D03*
X266299Y56299D02*
D03*
X268799Y61299D02*
D03*
X266299Y66299D02*
D03*
X268799Y71299D02*
D03*
Y161299D02*
D03*
X266299Y166299D02*
D03*
X268799Y171299D02*
D03*
X266299Y176299D02*
D03*
X268799Y181299D02*
D03*
X266299Y186299D02*
D03*
X268799Y191299D02*
D03*
X271299Y26299D02*
D03*
X273799Y31299D02*
D03*
Y41299D02*
D03*
X271299Y46299D02*
D03*
X273799Y51299D02*
D03*
X271299Y56299D02*
D03*
X273799Y61299D02*
D03*
X271299Y66299D02*
D03*
X273799Y71299D02*
D03*
X271299Y76299D02*
D03*
X273799Y151299D02*
D03*
X271299Y156299D02*
D03*
X273799Y161299D02*
D03*
X271299Y166299D02*
D03*
X273799Y171299D02*
D03*
X271299Y176299D02*
D03*
X273799Y181299D02*
D03*
X271299Y186299D02*
D03*
X273799Y191299D02*
D03*
X276299Y26299D02*
D03*
X278799Y31299D02*
D03*
Y41299D02*
D03*
X276299Y46299D02*
D03*
X278799Y51299D02*
D03*
X276299Y56299D02*
D03*
X278799Y61299D02*
D03*
X276299Y66299D02*
D03*
X278799Y71299D02*
D03*
X276299Y76299D02*
D03*
X278799Y141299D02*
D03*
Y151299D02*
D03*
X276299Y156299D02*
D03*
X278799Y161299D02*
D03*
X276299Y166299D02*
D03*
X278799Y171299D02*
D03*
X276299Y176299D02*
D03*
X278799Y181299D02*
D03*
X276299Y186299D02*
D03*
X278799Y191299D02*
D03*
X281299Y26299D02*
D03*
X283799Y31299D02*
D03*
Y41299D02*
D03*
X281299Y46299D02*
D03*
X283799Y51299D02*
D03*
X281299Y56299D02*
D03*
X283799Y61299D02*
D03*
X281299Y66299D02*
D03*
X283799Y71299D02*
D03*
X281299Y76299D02*
D03*
X283799Y141299D02*
D03*
X281299Y146299D02*
D03*
X283799Y151299D02*
D03*
X281299Y156299D02*
D03*
X283799Y161299D02*
D03*
X281299Y166299D02*
D03*
X283799Y171299D02*
D03*
X281299Y176299D02*
D03*
X283799Y181299D02*
D03*
X281299Y186299D02*
D03*
X283799Y191299D02*
D03*
X288799Y31299D02*
D03*
Y41299D02*
D03*
X286299Y46299D02*
D03*
X288799Y51299D02*
D03*
X286299Y56299D02*
D03*
X288799Y61299D02*
D03*
X286299Y66299D02*
D03*
X288799Y71299D02*
D03*
X286299Y76299D02*
D03*
X288799Y81299D02*
D03*
Y141299D02*
D03*
X286299Y146299D02*
D03*
X288799Y151299D02*
D03*
X286299Y156299D02*
D03*
X288799Y161299D02*
D03*
X286299Y166299D02*
D03*
X288799Y171299D02*
D03*
X286299Y176299D02*
D03*
X288799Y181299D02*
D03*
X286299Y186299D02*
D03*
X288799Y191299D02*
D03*
X291299Y56299D02*
D03*
X293799Y61299D02*
D03*
X291299Y66299D02*
D03*
X293799Y71299D02*
D03*
X291299Y76299D02*
D03*
X293799Y81299D02*
D03*
X291299Y86299D02*
D03*
X293799Y131299D02*
D03*
X291299Y136299D02*
D03*
X293799Y141299D02*
D03*
X291299Y146299D02*
D03*
X293799Y151299D02*
D03*
X291299Y156299D02*
D03*
X293799Y161299D02*
D03*
X291299Y166299D02*
D03*
X293799Y171299D02*
D03*
X291299Y176299D02*
D03*
X293799Y181299D02*
D03*
X291299Y186299D02*
D03*
X293799Y191299D02*
D03*
X296299Y56299D02*
D03*
X298799Y61299D02*
D03*
X296299Y66299D02*
D03*
X298799Y71299D02*
D03*
X296299Y76299D02*
D03*
X298799Y81299D02*
D03*
X296299Y86299D02*
D03*
X298799Y131299D02*
D03*
X296299Y136299D02*
D03*
X298799Y141299D02*
D03*
X296299Y146299D02*
D03*
X298799Y151299D02*
D03*
X296299Y156299D02*
D03*
X298799Y161299D02*
D03*
X296299Y166299D02*
D03*
X298799Y171299D02*
D03*
X296299Y176299D02*
D03*
X298799Y181299D02*
D03*
X296299Y186299D02*
D03*
X298799Y191299D02*
D03*
X301299Y56299D02*
D03*
X303799Y61299D02*
D03*
X301299Y66299D02*
D03*
X303799Y71299D02*
D03*
X301299Y76299D02*
D03*
X303799Y81299D02*
D03*
X301299Y86299D02*
D03*
X303799Y131299D02*
D03*
X301299Y136299D02*
D03*
X303799Y141299D02*
D03*
X301299Y146299D02*
D03*
X303799Y151299D02*
D03*
X301299Y156299D02*
D03*
X303799Y161299D02*
D03*
X301299Y166299D02*
D03*
X303799Y171299D02*
D03*
X301299Y176299D02*
D03*
X303799Y181299D02*
D03*
X301299Y186299D02*
D03*
X303799Y191299D02*
D03*
D37*
X226500Y113921D02*
D03*
Y104079D02*
D03*
Y108803D02*
D03*
X221776Y113528D02*
D03*
X231224D02*
D03*
X221776Y104079D02*
D03*
X231224Y108803D02*
D03*
Y104079D02*
D03*
X221776Y108803D02*
D03*
M02*
