G04 Layer_Color=16711935*
%FSLAX25Y25*%
%MOIN*%
G70*
G01*
G75*
%ADD53R,0.16584X0.06584*%
%ADD71C,0.06400*%
%ADD72R,0.06400X0.06400*%
%ADD73C,0.02800*%
%ADD74C,0.01772*%
D53*
X301500Y119500D02*
D03*
Y99500D02*
D03*
D71*
X89383Y19381D02*
D03*
Y9381D02*
D03*
X179383Y19381D02*
D03*
X189383Y9381D02*
D03*
X179383D02*
D03*
X289383D02*
D03*
X299383Y19381D02*
D03*
X259383Y9381D02*
D03*
X189383Y19381D02*
D03*
X199383Y9381D02*
D03*
X169383Y19381D02*
D03*
X99383D02*
D03*
Y9381D02*
D03*
X229383Y19381D02*
D03*
Y9381D02*
D03*
X239383D02*
D03*
X249383D02*
D03*
X239383Y19381D02*
D03*
X249383D02*
D03*
X259383D02*
D03*
X269383D02*
D03*
Y9381D02*
D03*
X279383Y19381D02*
D03*
Y9381D02*
D03*
X289383Y19381D02*
D03*
X299383Y9381D02*
D03*
X219383Y19381D02*
D03*
Y9381D02*
D03*
X209383D02*
D03*
Y19381D02*
D03*
X119383D02*
D03*
X109383D02*
D03*
Y9381D02*
D03*
X119383D02*
D03*
X199383Y19381D02*
D03*
X159383D02*
D03*
X139383Y9381D02*
D03*
X169383D02*
D03*
X129383Y19381D02*
D03*
X139383D02*
D03*
X129383Y9381D02*
D03*
X149383D02*
D03*
Y19381D02*
D03*
X159383Y9381D02*
D03*
X79383Y19381D02*
D03*
X89383Y209381D02*
D03*
Y199381D02*
D03*
X179383Y209381D02*
D03*
X189383Y199381D02*
D03*
X179383D02*
D03*
X289383D02*
D03*
X299383Y209381D02*
D03*
X259383Y199381D02*
D03*
X189383Y209381D02*
D03*
X199383Y199381D02*
D03*
X169383Y209381D02*
D03*
X99383D02*
D03*
Y199381D02*
D03*
X229383Y209381D02*
D03*
Y199381D02*
D03*
X239383D02*
D03*
X249383D02*
D03*
X239383Y209381D02*
D03*
X249383D02*
D03*
X259383D02*
D03*
X269383D02*
D03*
Y199381D02*
D03*
X279383Y209381D02*
D03*
Y199381D02*
D03*
X289383Y209381D02*
D03*
X299383Y199381D02*
D03*
X219383Y209381D02*
D03*
Y199381D02*
D03*
X209383D02*
D03*
Y209381D02*
D03*
X119383D02*
D03*
X109383D02*
D03*
Y199381D02*
D03*
X119383D02*
D03*
X199383Y209381D02*
D03*
X159383D02*
D03*
X139383Y199381D02*
D03*
X169383D02*
D03*
X129383Y209381D02*
D03*
X139383D02*
D03*
X129383Y199381D02*
D03*
X149383D02*
D03*
Y209381D02*
D03*
X159383Y199381D02*
D03*
X79383Y209381D02*
D03*
D72*
Y9381D02*
D03*
Y199381D02*
D03*
D73*
X265000Y117500D02*
D03*
X210348Y63890D02*
D03*
X204848D02*
D03*
X198997D02*
D03*
X227500Y132500D02*
D03*
X233500Y130000D02*
D03*
X236500Y134000D02*
D03*
X108000Y187500D02*
D03*
X123000D02*
D03*
X138500D02*
D03*
X152500D02*
D03*
X172000Y151500D02*
D03*
X153701Y35000D02*
D03*
X172201D02*
D03*
X190701D02*
D03*
X209201D02*
D03*
X160000Y46000D02*
D03*
X197000Y152000D02*
D03*
X202500D02*
D03*
X208000Y152000D02*
D03*
X213500D02*
D03*
X219000Y152000D02*
D03*
X224500D02*
D03*
X231000D02*
D03*
X236500D02*
D03*
X242000Y152000D02*
D03*
X248000D02*
D03*
X252500Y135000D02*
D03*
X262659Y127185D02*
D03*
X195000Y101620D02*
D03*
X197563Y107437D02*
D03*
X242500Y125000D02*
D03*
X190000Y96000D02*
D03*
X202500Y95000D02*
D03*
X172500Y112937D02*
D03*
Y107437D02*
D03*
Y101620D02*
D03*
Y95937D02*
D03*
Y90437D02*
D03*
Y85000D02*
D03*
X172563Y68500D02*
D03*
X176420Y64500D02*
D03*
X180581Y61000D02*
D03*
X249343Y95657D02*
D03*
X235489Y63890D02*
D03*
X240989Y63890D02*
D03*
X246489D02*
D03*
X282000Y95657D02*
D03*
Y90157D02*
D03*
Y84657D02*
D03*
Y132500D02*
D03*
Y127000D02*
D03*
Y121500D02*
D03*
X263500Y151378D02*
D03*
X267500Y147500D02*
D03*
X271500Y143822D02*
D03*
X218500Y171500D02*
D03*
X229500Y180000D02*
D03*
X207500D02*
D03*
X218500Y175500D02*
D03*
X234500Y168350D02*
D03*
X201500D02*
D03*
X220988Y134413D02*
D03*
X245000Y134980D02*
D03*
X247500Y130177D02*
D03*
X251299Y26299D02*
D03*
X253799Y31299D02*
D03*
Y41299D02*
D03*
X251299Y46299D02*
D03*
X253799Y51299D02*
D03*
X251299Y56299D02*
D03*
X253799Y61299D02*
D03*
Y81299D02*
D03*
Y91299D02*
D03*
Y161299D02*
D03*
X251299Y166299D02*
D03*
X253799Y171299D02*
D03*
X251299Y176299D02*
D03*
X253799Y181299D02*
D03*
X251299Y186299D02*
D03*
X253799Y191299D02*
D03*
X256299Y26299D02*
D03*
X258799Y31299D02*
D03*
Y41299D02*
D03*
X256299Y46299D02*
D03*
X258799Y51299D02*
D03*
X256299Y56299D02*
D03*
X258799Y61299D02*
D03*
Y91299D02*
D03*
X256299Y116299D02*
D03*
Y126299D02*
D03*
X258799Y131299D02*
D03*
X256299Y156299D02*
D03*
X258799Y161299D02*
D03*
X256299Y166299D02*
D03*
X258799Y171299D02*
D03*
X256299Y176299D02*
D03*
X258799Y181299D02*
D03*
X256299Y186299D02*
D03*
X258799Y191299D02*
D03*
X261299Y26299D02*
D03*
X263799Y31299D02*
D03*
Y41299D02*
D03*
X261299Y46299D02*
D03*
X263799Y51299D02*
D03*
X261299Y56299D02*
D03*
X263799Y61299D02*
D03*
X261299Y66299D02*
D03*
Y86299D02*
D03*
X263799Y91299D02*
D03*
Y121299D02*
D03*
Y161299D02*
D03*
X261299Y166299D02*
D03*
X263799Y171299D02*
D03*
X261299Y176299D02*
D03*
X263799Y181299D02*
D03*
X261299Y186299D02*
D03*
X263799Y191299D02*
D03*
X266299Y26299D02*
D03*
X268799Y31299D02*
D03*
Y41299D02*
D03*
X266299Y46299D02*
D03*
X268799Y51299D02*
D03*
X266299Y56299D02*
D03*
X268799Y61299D02*
D03*
X266299Y66299D02*
D03*
X268799Y71299D02*
D03*
Y161299D02*
D03*
X266299Y166299D02*
D03*
X268799Y171299D02*
D03*
X266299Y176299D02*
D03*
X268799Y181299D02*
D03*
X266299Y186299D02*
D03*
X268799Y191299D02*
D03*
X271299Y26299D02*
D03*
X273799Y31299D02*
D03*
Y41299D02*
D03*
X271299Y46299D02*
D03*
X273799Y51299D02*
D03*
X271299Y56299D02*
D03*
X273799Y61299D02*
D03*
X271299Y66299D02*
D03*
X273799Y71299D02*
D03*
X271299Y76299D02*
D03*
X273799Y151299D02*
D03*
X271299Y156299D02*
D03*
X273799Y161299D02*
D03*
X271299Y166299D02*
D03*
X273799Y171299D02*
D03*
X271299Y176299D02*
D03*
X273799Y181299D02*
D03*
X271299Y186299D02*
D03*
X273799Y191299D02*
D03*
X276299Y26299D02*
D03*
X278799Y31299D02*
D03*
Y41299D02*
D03*
X276299Y46299D02*
D03*
X278799Y51299D02*
D03*
X276299Y56299D02*
D03*
X278799Y61299D02*
D03*
X276299Y66299D02*
D03*
X278799Y71299D02*
D03*
X276299Y76299D02*
D03*
X278799Y141299D02*
D03*
Y151299D02*
D03*
X276299Y156299D02*
D03*
X278799Y161299D02*
D03*
X276299Y166299D02*
D03*
X278799Y171299D02*
D03*
X276299Y176299D02*
D03*
X278799Y181299D02*
D03*
X276299Y186299D02*
D03*
X278799Y191299D02*
D03*
X281299Y26299D02*
D03*
X283799Y31299D02*
D03*
Y41299D02*
D03*
X281299Y46299D02*
D03*
X283799Y51299D02*
D03*
X281299Y56299D02*
D03*
X283799Y61299D02*
D03*
X281299Y66299D02*
D03*
X283799Y71299D02*
D03*
X281299Y76299D02*
D03*
X283799Y141299D02*
D03*
X281299Y146299D02*
D03*
X283799Y151299D02*
D03*
X281299Y156299D02*
D03*
X283799Y161299D02*
D03*
X281299Y166299D02*
D03*
X283799Y171299D02*
D03*
X281299Y176299D02*
D03*
X283799Y181299D02*
D03*
X281299Y186299D02*
D03*
X283799Y191299D02*
D03*
X288799Y31299D02*
D03*
Y41299D02*
D03*
X286299Y46299D02*
D03*
X288799Y51299D02*
D03*
X286299Y56299D02*
D03*
X288799Y61299D02*
D03*
X286299Y66299D02*
D03*
X288799Y71299D02*
D03*
X286299Y76299D02*
D03*
X288799Y81299D02*
D03*
Y141299D02*
D03*
X286299Y146299D02*
D03*
X288799Y151299D02*
D03*
X286299Y156299D02*
D03*
X288799Y161299D02*
D03*
X286299Y166299D02*
D03*
X288799Y171299D02*
D03*
X286299Y176299D02*
D03*
X288799Y181299D02*
D03*
X286299Y186299D02*
D03*
X288799Y191299D02*
D03*
X291299Y56299D02*
D03*
X293799Y61299D02*
D03*
X291299Y66299D02*
D03*
X293799Y71299D02*
D03*
X291299Y76299D02*
D03*
X293799Y81299D02*
D03*
X291299Y86299D02*
D03*
X293799Y131299D02*
D03*
X291299Y136299D02*
D03*
X293799Y141299D02*
D03*
X291299Y146299D02*
D03*
X293799Y151299D02*
D03*
X291299Y156299D02*
D03*
X293799Y161299D02*
D03*
X291299Y166299D02*
D03*
X293799Y171299D02*
D03*
X291299Y176299D02*
D03*
X293799Y181299D02*
D03*
X291299Y186299D02*
D03*
X293799Y191299D02*
D03*
X296299Y56299D02*
D03*
X298799Y61299D02*
D03*
X296299Y66299D02*
D03*
X298799Y71299D02*
D03*
X296299Y76299D02*
D03*
X298799Y81299D02*
D03*
X296299Y86299D02*
D03*
X298799Y131299D02*
D03*
X296299Y136299D02*
D03*
X298799Y141299D02*
D03*
X296299Y146299D02*
D03*
X298799Y151299D02*
D03*
X296299Y156299D02*
D03*
X298799Y161299D02*
D03*
X296299Y166299D02*
D03*
X298799Y171299D02*
D03*
X296299Y176299D02*
D03*
X298799Y181299D02*
D03*
X296299Y186299D02*
D03*
X298799Y191299D02*
D03*
X301299Y56299D02*
D03*
X303799Y61299D02*
D03*
X301299Y66299D02*
D03*
X303799Y71299D02*
D03*
X301299Y76299D02*
D03*
X303799Y81299D02*
D03*
X301299Y86299D02*
D03*
X303799Y131299D02*
D03*
X301299Y136299D02*
D03*
X303799Y141299D02*
D03*
X301299Y146299D02*
D03*
X303799Y151299D02*
D03*
X301299Y156299D02*
D03*
X303799Y161299D02*
D03*
X301299Y166299D02*
D03*
X303799Y171299D02*
D03*
X301299Y176299D02*
D03*
X303799Y181299D02*
D03*
X301299Y186299D02*
D03*
X303799Y191299D02*
D03*
D74*
X226500Y113921D02*
D03*
Y104079D02*
D03*
Y108803D02*
D03*
X221776Y113528D02*
D03*
X231224D02*
D03*
X221776Y104079D02*
D03*
X231224Y108803D02*
D03*
Y104079D02*
D03*
X221776Y108803D02*
D03*
M02*
