G04 Layer_Physical_Order=1*
G04 Layer_Color=255*
%FSLAX25Y25*%
%MOIN*%
G70*
G01*
G75*
%ADD10R,0.15984X0.05984*%
G04:AMPARAMS|DCode=11|XSize=35.43mil|YSize=37.4mil|CornerRadius=0mil|HoleSize=0mil|Usage=FLASHONLY|Rotation=315.000|XOffset=0mil|YOffset=0mil|HoleType=Round|Shape=Rectangle|*
%AMROTATEDRECTD11*
4,1,4,-0.02575,-0.00070,0.00070,0.02575,0.02575,0.00070,-0.00070,-0.02575,-0.02575,-0.00070,0.0*
%
%ADD11ROTATEDRECTD11*%

%ADD12R,0.03543X0.03740*%
%ADD13R,0.03740X0.03543*%
%ADD14R,0.00787X0.03543*%
%ADD15R,0.17323X0.17323*%
%ADD16R,0.03543X0.00787*%
%ADD17R,0.08661X0.04134*%
%ADD18R,0.03937X0.03937*%
%ADD19R,0.03150X0.03150*%
%ADD20R,0.03937X0.03740*%
G04:AMPARAMS|DCode=21|XSize=37.4mil|YSize=39.37mil|CornerRadius=0mil|HoleSize=0mil|Usage=FLASHONLY|Rotation=225.000|XOffset=0mil|YOffset=0mil|HoleType=Round|Shape=Rectangle|*
%AMROTATEDRECTD21*
4,1,4,-0.00070,0.02714,0.02714,-0.00070,0.00070,-0.02714,-0.02714,0.00070,-0.00070,0.02714,0.0*
%
%ADD21ROTATEDRECTD21*%

%ADD22R,0.03740X0.03937*%
%ADD23R,0.03937X0.03937*%
%ADD24R,0.03937X0.03937*%
%ADD25R,0.01378X0.03937*%
%ADD26R,0.04331X0.02362*%
G04:AMPARAMS|DCode=27|XSize=35.43mil|YSize=37.4mil|CornerRadius=0mil|HoleSize=0mil|Usage=FLASHONLY|Rotation=45.000|XOffset=0mil|YOffset=0mil|HoleType=Round|Shape=Rectangle|*
%AMROTATEDRECTD27*
4,1,4,0.00070,-0.02575,-0.02575,0.00070,-0.00070,0.02575,0.02575,-0.00070,0.00070,-0.02575,0.0*
%
%ADD27ROTATEDRECTD27*%

%ADD28C,0.01799*%
%ADD29C,0.00800*%
%ADD30C,0.01000*%
%ADD31C,0.01987*%
%ADD32C,0.01500*%
%ADD33C,0.06000*%
%ADD34R,0.06000X0.06000*%
%ADD35C,0.03800*%
%ADD36C,0.02200*%
%ADD37C,0.02362*%
G36*
X308686Y193299D02*
Y122000D01*
Y113092D01*
X292908D01*
Y111268D01*
X274348D01*
Y112112D01*
X271770D01*
Y110596D01*
X271334Y109543D01*
X271770Y108491D01*
Y106975D01*
X274348D01*
Y107818D01*
X292908D01*
Y105908D01*
X308686D01*
Y92000D01*
Y25000D01*
X250000D01*
Y37418D01*
X291026D01*
Y35932D01*
X296163D01*
Y41069D01*
X291026D01*
Y39582D01*
X250000D01*
X250000Y71577D01*
X251000Y71991D01*
X253482Y69509D01*
X254463Y70490D01*
X255563Y69390D01*
X254582Y68409D01*
X257936Y65055D01*
X261429Y68548D01*
X258075Y71902D01*
X257094Y70921D01*
X255994Y72021D01*
X256975Y73002D01*
X253621Y76357D01*
X252642Y75377D01*
X251393Y76626D01*
X250627Y76943D01*
X250000Y77622D01*
Y86418D01*
X256389D01*
X259896Y82910D01*
X258933Y81947D01*
X259954Y80927D01*
X258957Y79930D01*
X258075Y80811D01*
X254582Y77318D01*
X257936Y73963D01*
X261429Y77457D01*
X260487Y78399D01*
X261484Y79396D01*
X262566Y78315D01*
X266059Y81808D01*
X262426Y85440D01*
X261427Y84441D01*
X257603Y88265D01*
X256837Y88582D01*
X256837Y88582D01*
X250000D01*
Y93934D01*
X250399Y94254D01*
X250644Y94356D01*
X250703Y94498D01*
X250799Y94574D01*
X267311D01*
Y93285D01*
X267311D01*
Y92528D01*
X267311D01*
Y87785D01*
X267311D01*
Y87028D01*
X267311D01*
Y82285D01*
X272251D01*
Y87028D01*
X272251D01*
Y87785D01*
X272251D01*
Y92528D01*
X272251D01*
Y93285D01*
X272251D01*
Y98028D01*
X267311D01*
Y96739D01*
X250735D01*
X250644Y96958D01*
X250000Y97225D01*
Y99796D01*
X251000Y100085D01*
X255820D01*
Y104828D01*
X252116D01*
X251116Y105828D01*
X251066Y106079D01*
X252116Y107128D01*
X255820D01*
Y111483D01*
X256500Y111885D01*
X257179Y111484D01*
Y107128D01*
X262120D01*
Y108309D01*
X266652D01*
Y106975D01*
X269230D01*
Y112112D01*
X266652D01*
Y110691D01*
X262120D01*
Y111872D01*
X262120D01*
X261918Y112788D01*
X261902Y112872D01*
X264781Y115751D01*
X265000Y115660D01*
X266301Y116199D01*
X266504Y116688D01*
X266616Y116735D01*
X269009Y119128D01*
X272321D01*
Y123872D01*
X272321D01*
Y124628D01*
X272321D01*
Y129372D01*
X272321D01*
Y130128D01*
X272321D01*
Y134872D01*
X267380D01*
Y130128D01*
X267380D01*
Y129372D01*
X267380D01*
Y124628D01*
X267380D01*
Y123872D01*
X267380D01*
Y120561D01*
X265820Y119000D01*
X265000Y119340D01*
X263699Y118801D01*
X263160Y117500D01*
X263250Y117281D01*
X260552Y114582D01*
X252893D01*
X252511Y115506D01*
X262440Y125435D01*
X262659Y125345D01*
X263960Y125884D01*
X264499Y127185D01*
X263960Y128486D01*
X263741Y128577D01*
Y132709D01*
X266082Y135050D01*
X262728Y138404D01*
X262728D01*
X262193Y138939D01*
X258839Y142293D01*
X258304Y142828D01*
X254950Y146182D01*
X251457Y142689D01*
X254811Y139335D01*
X255346Y138800D01*
X258700Y135446D01*
X258700D01*
X259235Y134911D01*
X261576Y132570D01*
Y128577D01*
X261357Y128486D01*
X260819Y127185D01*
X260909Y126966D01*
X254506Y120563D01*
X253582Y120946D01*
Y133608D01*
X253801Y133699D01*
X254340Y135000D01*
X253801Y136301D01*
X252500Y136840D01*
X252281Y136749D01*
X250372Y138659D01*
Y141821D01*
X250000D01*
X250000Y193988D01*
X307979Y194006D01*
X308686Y193299D01*
D02*
G37*
%LPC*%
G36*
X266881Y80986D02*
X263387Y77493D01*
X264438Y76442D01*
X263441Y75445D01*
X262529Y76357D01*
X259036Y72863D01*
X262390Y69509D01*
X265883Y73002D01*
X264972Y73914D01*
X265969Y74911D01*
X267020Y73861D01*
X270513Y77354D01*
X266881Y80986D01*
D02*
G37*
G36*
X274348Y105025D02*
X271770D01*
Y99888D01*
X274348D01*
Y105025D01*
D02*
G37*
G36*
X269230D02*
X266652D01*
Y103647D01*
X262120D01*
Y104828D01*
X257179D01*
Y100085D01*
X262120D01*
Y101266D01*
X266652D01*
Y99888D01*
X269230D01*
Y105025D01*
D02*
G37*
%LPD*%
D10*
X301500Y109500D02*
D03*
Y99500D02*
D03*
Y119500D02*
D03*
D11*
X262460Y72933D02*
D03*
X258006Y68479D02*
D03*
X258006Y77387D02*
D03*
X253552Y72933D02*
D03*
X181449Y77442D02*
D03*
X176995Y72988D02*
D03*
X185338Y73553D02*
D03*
X180884Y69099D02*
D03*
X189227Y69664D02*
D03*
X184773Y65210D02*
D03*
X267113Y139435D02*
D03*
X262659Y134980D02*
D03*
X263224Y143324D02*
D03*
X258769Y138870D02*
D03*
X259335Y147213D02*
D03*
X254880Y142759D02*
D03*
D12*
X246489Y69561D02*
D03*
X246489Y75861D02*
D03*
X240989Y69561D02*
D03*
X240989Y75861D02*
D03*
X235489Y69561D02*
D03*
X235489Y75861D02*
D03*
X242000Y145650D02*
D03*
X242000Y139350D02*
D03*
X236500Y145650D02*
D03*
Y139350D02*
D03*
X231000Y145650D02*
D03*
Y139350D02*
D03*
X204848Y69591D02*
D03*
Y75890D02*
D03*
X210348Y69591D02*
D03*
Y75890D02*
D03*
X248000Y145650D02*
D03*
Y139350D02*
D03*
X207500Y174650D02*
D03*
Y168350D02*
D03*
X229500Y174650D02*
D03*
Y168350D02*
D03*
X197000Y145650D02*
D03*
Y139350D02*
D03*
X202500Y145650D02*
D03*
X202500Y139350D02*
D03*
X208000Y145650D02*
D03*
Y139350D02*
D03*
X213500Y145650D02*
D03*
X213500Y139350D02*
D03*
X219000Y145650D02*
D03*
Y139350D02*
D03*
X224500Y145650D02*
D03*
Y139350D02*
D03*
D13*
X229380Y75740D02*
D03*
X223081D02*
D03*
X223081Y69591D02*
D03*
X229380D02*
D03*
X276080Y95657D02*
D03*
X269781Y95657D02*
D03*
X276080Y90157D02*
D03*
X269781D02*
D03*
X276080Y84657D02*
D03*
X269781Y84657D02*
D03*
X276150Y132500D02*
D03*
X269850D02*
D03*
X276150Y127000D02*
D03*
X269850D02*
D03*
X276150Y121500D02*
D03*
X269850D02*
D03*
X259650Y109500D02*
D03*
X253350D02*
D03*
X259650Y102457D02*
D03*
X253350D02*
D03*
X177850Y95937D02*
D03*
X184150D02*
D03*
X177850Y90437D02*
D03*
X184150D02*
D03*
X177850Y84937D02*
D03*
X184150D02*
D03*
X177850Y107437D02*
D03*
X184150D02*
D03*
X177850Y112937D02*
D03*
X184150D02*
D03*
D14*
X217839Y97386D02*
D03*
X220988D02*
D03*
X224138D02*
D03*
X227287D02*
D03*
X230437D02*
D03*
X233587D02*
D03*
X235161D02*
D03*
X232012D02*
D03*
X228862D02*
D03*
X225713D02*
D03*
X222563D02*
D03*
X219413D02*
D03*
X233587Y120614D02*
D03*
X230437D02*
D03*
X227287D02*
D03*
X224138D02*
D03*
X220988D02*
D03*
X217839D02*
D03*
X219413D02*
D03*
X222563D02*
D03*
X225713D02*
D03*
X228862D02*
D03*
X232012D02*
D03*
X235161D02*
D03*
D15*
X226500Y109000D02*
D03*
D16*
X238114Y101913D02*
D03*
Y105063D02*
D03*
Y108213D02*
D03*
Y111362D02*
D03*
Y114512D02*
D03*
Y117661D02*
D03*
Y116087D02*
D03*
Y112937D02*
D03*
Y109787D02*
D03*
Y106638D02*
D03*
Y103488D02*
D03*
Y100339D02*
D03*
X214886Y116087D02*
D03*
Y112937D02*
D03*
Y109787D02*
D03*
Y106638D02*
D03*
Y103488D02*
D03*
Y100339D02*
D03*
Y101913D02*
D03*
Y105063D02*
D03*
Y108213D02*
D03*
Y111362D02*
D03*
Y114512D02*
D03*
Y117661D02*
D03*
D17*
X299500Y32693D02*
D03*
Y44307D02*
D03*
D18*
X293595Y38500D02*
D03*
D19*
X152500Y182650D02*
D03*
Y176350D02*
D03*
X138500Y182650D02*
D03*
Y176350D02*
D03*
X123000Y182650D02*
D03*
Y176350D02*
D03*
X108000Y182650D02*
D03*
Y176350D02*
D03*
D20*
X177850Y101620D02*
D03*
X184150D02*
D03*
X209201Y40500D02*
D03*
X221799Y40500D02*
D03*
X172201Y40500D02*
D03*
X184799Y40500D02*
D03*
X190701Y40500D02*
D03*
X203299Y40500D02*
D03*
X153701Y40500D02*
D03*
X166299D02*
D03*
D21*
X176384Y138045D02*
D03*
X180838Y133591D02*
D03*
X262496Y81877D02*
D03*
X266950Y77423D02*
D03*
X185273Y147227D02*
D03*
X189727Y142773D02*
D03*
D22*
X216848Y75890D02*
D03*
Y69591D02*
D03*
X152500Y153701D02*
D03*
Y166299D02*
D03*
X138500Y153701D02*
D03*
X138500Y166299D02*
D03*
X123000Y153701D02*
D03*
X123000Y166299D02*
D03*
X108000Y153701D02*
D03*
X108000Y166299D02*
D03*
X198997Y75890D02*
D03*
Y69591D02*
D03*
D23*
X215500Y40500D02*
D03*
X178500D02*
D03*
X197000D02*
D03*
X160000D02*
D03*
D24*
X152500Y160000D02*
D03*
X138500D02*
D03*
X123000D02*
D03*
X108000D02*
D03*
D25*
X273059Y102457D02*
D03*
X270500D02*
D03*
X267941D02*
D03*
Y109543D02*
D03*
X270500D02*
D03*
X273059D02*
D03*
D26*
X223224Y167760D02*
D03*
X223224Y171500D02*
D03*
X223224Y175240D02*
D03*
X213776Y175240D02*
D03*
Y167760D02*
D03*
D27*
X176273Y147227D02*
D03*
X180727Y142773D02*
D03*
D28*
X288000Y119500D02*
X301500D01*
X288000Y99500D02*
X301500D01*
D29*
X261000Y113500D02*
X265000Y117500D01*
X251000Y113500D02*
X261000D01*
X265000Y117500D02*
X265850D01*
X269850Y121500D01*
X245713Y108213D02*
X251000Y113500D01*
X238114Y116087D02*
X242587D01*
X238114Y117661D02*
X240161D01*
X232500Y114500D02*
X232512Y114512D01*
X238114D01*
X269850Y121500D02*
Y127000D01*
Y132500D01*
X250350Y105063D02*
X253500Y101913D01*
X238000Y106638D02*
X238114D01*
X223081Y69591D02*
X223348D01*
X216848D02*
X223081D01*
X223348D02*
X223497Y69740D01*
X210348Y63890D02*
Y69591D01*
X204848Y63890D02*
Y69591D01*
X250095Y106638D02*
X253000Y109543D01*
X198997Y63890D02*
Y69591D01*
X181338Y133162D02*
Y134000D01*
X176384Y138045D02*
X180727Y142388D01*
Y142500D01*
Y142773D02*
X181046D01*
X185500Y147227D01*
X189727Y137773D02*
Y142500D01*
X224138Y115138D02*
Y120614D01*
X224000Y115000D02*
X224138Y115138D01*
X214886Y103488D02*
X220488D01*
X220500Y103500D01*
X214886Y108213D02*
X220488D01*
X159500Y199381D02*
X193700Y165181D01*
X181338Y133162D02*
X187019Y127481D01*
X180727Y142773D02*
X194619Y128881D01*
X189727Y137773D02*
X197219Y130281D01*
X230262Y120789D02*
X230437Y120614D01*
X202500Y139350D02*
X206600D01*
X196500D02*
X197000D01*
X202500D01*
X213500D02*
X219000D01*
X224150D01*
X224500Y139000D01*
Y139350D02*
X233587Y130264D01*
X233500Y130177D02*
X233587Y130264D01*
X233500Y130000D02*
Y130177D01*
X232012Y120614D02*
Y125871D01*
X231000Y139350D02*
X235850D01*
X236000Y139500D01*
X236500Y139350D02*
X242000D01*
X242000Y139350D01*
X235161Y125500D02*
X236500Y126839D01*
X235161Y121500D02*
Y125500D01*
X236500Y126839D02*
Y134000D01*
Y139350D01*
X210839Y117661D02*
X214886D01*
X206619Y121881D02*
X210839Y117661D01*
X210434Y116087D02*
X214886D01*
X206039Y120481D02*
X210434Y116087D01*
X139000Y209381D02*
X144500Y203881D01*
X149000Y156500D02*
X152500Y160000D01*
X135000Y156500D02*
X138500Y160000D01*
X119500Y156500D02*
X123000Y160000D01*
X119500Y143000D02*
Y156500D01*
X135000Y143000D02*
Y156500D01*
X144500Y142799D02*
Y203881D01*
X149000Y143000D02*
Y156500D01*
X104500Y143000D02*
Y156500D01*
X108000Y160000D01*
Y153701D02*
X115000Y160701D01*
Y184881D01*
X129500Y199381D01*
X123000Y153701D02*
X123701D01*
X130000Y160000D01*
X129383Y209500D02*
X134500Y204383D01*
X130000Y160000D02*
Y185000D01*
X134500Y189500D01*
Y204383D01*
X138500Y153701D02*
X143100Y158301D01*
Y195781D01*
X139500Y199381D02*
X143100Y195781D01*
X152500Y153701D02*
X157000Y158201D01*
Y194000D01*
X154500Y196500D02*
X157000Y194000D01*
X154500Y196500D02*
Y201500D01*
X158000Y205000D01*
X195383D01*
X199383Y209000D01*
X152500Y166299D02*
Y176000D01*
X152500Y176000D01*
X138500Y166299D02*
Y176000D01*
X139000Y176500D01*
X123000Y176500D02*
X123000Y176500D01*
X123000Y166299D02*
Y176500D01*
X108000Y166299D02*
Y175850D01*
X107500Y176350D02*
X108000Y175850D01*
X108000Y182650D02*
Y187500D01*
X123000Y182650D02*
Y187500D01*
X138500Y182650D02*
Y187500D01*
X152500Y182500D02*
Y187500D01*
X172000Y151500D02*
X176273Y147227D01*
X209650Y114512D02*
X214886D01*
X205080Y119081D02*
X209650Y114512D01*
X209651Y112937D02*
X214886D01*
X209650Y112939D02*
X209651Y112937D01*
X208909Y112939D02*
X209650D01*
X204167Y117681D02*
X208909Y112939D01*
X208506Y111362D02*
X214886D01*
X203587Y116281D02*
X208506Y111362D01*
X193700Y136462D02*
Y165181D01*
Y136462D02*
X198481Y131681D01*
X175920Y131100D02*
X182339Y124681D01*
X156199Y131100D02*
X175920D01*
X144500Y142799D02*
X156199Y131100D01*
X175340Y129700D02*
X181759Y123281D01*
X149000Y143000D02*
X159500Y132500D01*
X176500D01*
X182919Y126081D01*
X148300Y129700D02*
X175340D01*
X135000Y143000D02*
X148300Y129700D01*
X181179Y121881D02*
X206619D01*
X174760Y128300D02*
X181179Y121881D01*
X134200Y128300D02*
X174760D01*
X119500Y143000D02*
X134200Y128300D01*
X180599Y120481D02*
X206039D01*
X174180Y126900D02*
X180599Y120481D01*
X104500Y143000D02*
X120600Y126900D01*
X174180D01*
X165500Y65500D02*
X182500Y48500D01*
X207500D01*
X163000Y63081D02*
X180081Y46000D01*
X159500Y60000D02*
X178500Y41000D01*
X221799Y40500D02*
X224500Y37799D01*
Y14380D02*
Y37799D01*
Y14380D02*
X229380Y9500D01*
X180081Y46000D02*
X191719D01*
X197219Y40500D01*
X214500Y14381D02*
Y20500D01*
Y14381D02*
X219500Y9381D01*
X201264Y27500D02*
X209383Y19381D01*
X205000Y30000D02*
X214500Y20500D01*
X166299Y34701D02*
Y41000D01*
Y34701D02*
X173500Y27500D01*
X201264D01*
X203299Y34852D02*
Y40500D01*
Y34852D02*
X219151Y19000D01*
X219383D01*
X184799Y34701D02*
Y40500D01*
Y34701D02*
X189500Y30000D01*
X205000D01*
X153701Y35000D02*
Y40500D01*
X172201Y35000D02*
Y40500D01*
X190701Y35000D02*
Y40500D01*
X209201Y35000D02*
Y40500D01*
X160000D02*
Y46000D01*
X198481Y131681D02*
X220757D01*
X197219Y130281D02*
X220177D01*
X194619Y128881D02*
X219597D01*
X181759Y123281D02*
X217219D01*
X182339Y124681D02*
X217857D01*
X182919Y126081D02*
X218437D01*
X187019Y127481D02*
X219017D01*
X217839Y120614D02*
Y122661D01*
X217219Y123281D02*
X217839Y122661D01*
X219413Y120614D02*
Y123125D01*
X217857Y124681D02*
X219413Y123125D01*
X218437Y126081D02*
X220988Y123530D01*
Y120614D02*
Y123530D01*
X219017Y127481D02*
X222563Y123935D01*
Y120614D02*
Y123935D01*
X227500Y130383D02*
Y132500D01*
Y130383D02*
X232012Y125871D01*
X230262Y120789D02*
Y125139D01*
X220757Y131681D02*
X228862Y123576D01*
Y120614D02*
Y123576D01*
X220177Y130281D02*
X227287Y123171D01*
Y120614D02*
Y123171D01*
X219597Y128881D02*
X225713Y122766D01*
Y121500D02*
Y122766D01*
X197000Y145650D02*
Y152000D01*
X202500Y145650D02*
Y152000D01*
X202500Y152000D02*
X202500Y152000D01*
X208000Y145650D02*
Y152000D01*
X213500Y145650D02*
Y152000D01*
X213500Y152000D02*
X213500Y152000D01*
X219000Y145650D02*
Y152000D01*
X224500Y145650D02*
Y152000D01*
X231000Y145650D02*
Y152000D01*
X236500Y145650D02*
Y152000D01*
X242000Y145650D02*
Y152000D01*
X248000Y145650D02*
Y152000D01*
X244856Y111362D02*
X252500Y119006D01*
Y135000D01*
X254880Y142759D02*
X258639Y139000D01*
X258769Y138870D02*
X262659Y134980D01*
X262659Y127185D02*
Y134980D01*
X262659D02*
X262659D01*
X245261Y109787D02*
X262659Y127185D01*
X206738Y109787D02*
X214886D01*
X203525Y113000D02*
X206738Y109787D01*
X184150Y113000D02*
X203525D01*
X184273Y101620D02*
X195000D01*
X199620D01*
X203063Y105063D01*
X214886D01*
X198362Y106638D02*
X214886D01*
X197500Y107500D02*
X197563Y107437D01*
X198362Y106638D01*
X240161Y117661D02*
X242500Y120000D01*
Y125000D01*
X184150Y84937D02*
Y90287D01*
Y90437D02*
Y95507D01*
X184000Y95657D02*
X184150Y95507D01*
X184000Y90437D02*
X184150Y90287D01*
X198437Y95937D02*
X204413Y101913D01*
X214500D01*
X190000Y95937D02*
Y96000D01*
X184150Y95937D02*
X190000D01*
X198437D01*
X185338Y73553D02*
X189227Y69664D01*
Y69500D02*
Y69664D01*
X185419Y73500D02*
X185773D01*
X181711Y77442D02*
X197768Y93500D01*
X181949Y76942D02*
X181976D01*
X182211D01*
X181976D02*
X185419Y73500D01*
X197768Y93500D02*
X201000D01*
X207839Y100339D02*
X214000D01*
X201000Y93500D02*
X202500Y95000D01*
X207839Y100339D01*
X172500Y112937D02*
X177850D01*
X159500Y106867D02*
X171715Y119081D01*
X163000Y108387D02*
X172294Y117681D01*
X165500Y108907D02*
X172874Y116281D01*
X165500Y65500D02*
Y108907D01*
X172874Y116281D02*
X203587D01*
X172294Y117681D02*
X204167D01*
X163000Y63081D02*
Y108387D01*
X159500Y60000D02*
Y106867D01*
X171715Y119081D02*
X205080D01*
X172500Y107437D02*
X177850D01*
X172500Y101620D02*
X177850D01*
X172500Y95937D02*
X177850D01*
X172500Y90437D02*
X177850D01*
X172563Y84937D02*
X177850D01*
X172500Y85000D02*
X172563Y84937D01*
Y68556D02*
X176995Y72988D01*
X172563Y68500D02*
Y68556D01*
X176420Y64635D02*
X180884Y69099D01*
X176420Y64500D02*
Y64635D01*
X180581Y61018D02*
X184773Y65210D01*
X180581Y61000D02*
Y61018D01*
X220988Y93488D02*
Y97386D01*
X214000Y86500D02*
X220988Y93488D01*
X200000Y86500D02*
X214000D01*
X194000Y80500D02*
X200000Y86500D01*
X194000Y61000D02*
Y80500D01*
X207500Y48500D02*
X215500Y40500D01*
X194000Y61000D02*
X200000Y55000D01*
X225713Y88365D02*
Y97386D01*
X219848Y82500D02*
X225713Y88365D01*
X207580Y82500D02*
X219848D01*
X204848Y79768D02*
X207580Y82500D01*
X204848Y76500D02*
Y79768D01*
X227287Y84787D02*
Y97386D01*
X223500Y81000D02*
X227287Y84787D01*
X215608Y81000D02*
X223500D01*
X210348Y75740D02*
X215608Y81000D01*
X228862Y81281D02*
Y97386D01*
X216760Y75740D02*
X223081D01*
X216500Y76000D02*
X216760Y75740D01*
X223081Y75500D02*
X228862Y81281D01*
X229380Y69591D02*
Y75480D01*
X229000Y75861D02*
X229380Y75480D01*
X229380Y75740D02*
X235500D01*
X230437Y97386D02*
Y97500D01*
Y89563D02*
Y97386D01*
Y89563D02*
X235489Y84511D01*
Y75861D02*
Y84511D01*
X232012Y90575D02*
Y97386D01*
Y90575D02*
X241000Y81587D01*
Y75740D02*
Y81587D01*
X233587Y91350D02*
Y97386D01*
Y91350D02*
X246489Y78448D01*
Y75861D02*
Y78448D01*
X235161Y94925D02*
Y97386D01*
Y94925D02*
X242587Y87500D01*
X256837D01*
X262460Y81877D01*
X258000Y77442D02*
X262435Y81877D01*
X262460D01*
X262496D01*
X246489Y75861D02*
X250627D01*
X253500Y72988D01*
X253552Y72933D02*
X257928Y68556D01*
X258000D01*
X262460Y72933D02*
X266950Y77423D01*
Y77500D01*
X269781Y84657D02*
Y90157D01*
Y95102D01*
X249343Y95657D02*
X269781D01*
X269383Y95500D02*
X269781Y95102D01*
X224138Y89881D02*
Y97386D01*
X218157Y83900D02*
X224138Y89881D01*
X202400Y83900D02*
X218157D01*
X198997Y80497D02*
X202400Y83900D01*
X198997Y75861D02*
Y75890D01*
Y80497D01*
X235489Y63890D02*
Y69561D01*
X235489Y63890D02*
X235489Y63890D01*
X241000Y63900D02*
Y70000D01*
X240989Y63890D02*
X241000Y63900D01*
X246500D02*
Y70000D01*
X246489Y63890D02*
X246500Y63900D01*
X276080Y95657D02*
X282000D01*
X276080Y90157D02*
X282000D01*
X276080Y84657D02*
X282000D01*
X282000Y84657D01*
X276150Y132500D02*
X282000D01*
X276150Y127000D02*
X282000D01*
X276150Y121500D02*
X282000D01*
X259335Y147213D02*
X263500Y151378D01*
X263224Y143324D02*
X263324D01*
X267500Y147500D01*
X267113Y139435D02*
X271500Y143822D01*
X242587Y116087D02*
X245000Y118500D01*
X233587Y120789D02*
Y130264D01*
X200000Y55000D02*
X233000D01*
X249500Y38500D01*
X293500D01*
X208000Y139350D02*
X212938Y134413D01*
X220988D01*
X230262Y125139D01*
X238114Y112937D02*
X242937D01*
X238114Y111362D02*
X244856D01*
X238114Y109787D02*
X245261D01*
X238114Y103488D02*
X241512D01*
X249343Y95657D01*
X238500Y105063D02*
X250350D01*
X238114Y106638D02*
X250095D01*
X238114Y108213D02*
X245713D01*
X245000Y118500D02*
Y134980D01*
X242937Y112937D02*
X247500Y117500D01*
Y130177D01*
X248000Y139500D02*
X252500Y135000D01*
X184150Y107500D02*
X197500D01*
D30*
X259650Y102457D02*
X267941D01*
X259650Y109500D02*
X267728D01*
D31*
X273059Y109543D02*
X300606D01*
D32*
X228909Y167760D02*
X229500Y168350D01*
X223224Y167760D02*
X228909D01*
X208240D02*
X213776D01*
X218500Y171500D02*
X223224D01*
X229500Y174650D02*
Y180000D01*
X207500Y174650D02*
Y180000D01*
X218500Y175500D02*
X223000D01*
X229500Y168350D02*
X234500D01*
X201500D02*
X207500Y168350D01*
Y168500D02*
X208240Y167760D01*
D33*
X89383Y19381D02*
D03*
Y9381D02*
D03*
X179383Y19381D02*
D03*
X189383Y9381D02*
D03*
X179383D02*
D03*
X289383D02*
D03*
X299383Y19381D02*
D03*
X259383Y9381D02*
D03*
X189383Y19381D02*
D03*
X199383Y9381D02*
D03*
X169383Y19381D02*
D03*
X99383D02*
D03*
Y9381D02*
D03*
X229383Y19381D02*
D03*
Y9381D02*
D03*
X239383D02*
D03*
X249383D02*
D03*
X239383Y19381D02*
D03*
X249383D02*
D03*
X259383D02*
D03*
X269383D02*
D03*
Y9381D02*
D03*
X279383Y19381D02*
D03*
Y9381D02*
D03*
X289383Y19381D02*
D03*
X299383Y9381D02*
D03*
X219383Y19381D02*
D03*
Y9381D02*
D03*
X209383D02*
D03*
Y19381D02*
D03*
X119383D02*
D03*
X109383D02*
D03*
Y9381D02*
D03*
X119383D02*
D03*
X199383Y19381D02*
D03*
X159383D02*
D03*
X139383Y9381D02*
D03*
X169383D02*
D03*
X129383Y19381D02*
D03*
X139383D02*
D03*
X129383Y9381D02*
D03*
X149383D02*
D03*
Y19381D02*
D03*
X159383Y9381D02*
D03*
X79383Y19381D02*
D03*
X89383Y209381D02*
D03*
Y199381D02*
D03*
X179383Y209381D02*
D03*
X189383Y199381D02*
D03*
X179383D02*
D03*
X289383D02*
D03*
X299383Y209381D02*
D03*
X259383Y199381D02*
D03*
X189383Y209381D02*
D03*
X199383Y199381D02*
D03*
X169383Y209381D02*
D03*
X99383D02*
D03*
Y199381D02*
D03*
X229383Y209381D02*
D03*
Y199381D02*
D03*
X239383D02*
D03*
X249383D02*
D03*
X239383Y209381D02*
D03*
X249383D02*
D03*
X259383D02*
D03*
X269383D02*
D03*
Y199381D02*
D03*
X279383Y209381D02*
D03*
Y199381D02*
D03*
X289383Y209381D02*
D03*
X299383Y199381D02*
D03*
X219383Y209381D02*
D03*
Y199381D02*
D03*
X209383D02*
D03*
Y209381D02*
D03*
X119383D02*
D03*
X109383D02*
D03*
Y199381D02*
D03*
X119383D02*
D03*
X199383Y209381D02*
D03*
X159383D02*
D03*
X139383Y199381D02*
D03*
X169383D02*
D03*
X129383Y209381D02*
D03*
X139383D02*
D03*
X129383Y199381D02*
D03*
X149383D02*
D03*
Y209381D02*
D03*
X159383Y199381D02*
D03*
X79383Y209381D02*
D03*
D34*
Y9381D02*
D03*
Y199381D02*
D03*
D35*
X288000Y119500D02*
D03*
Y99500D02*
D03*
D36*
X265000Y117500D02*
D03*
X210348Y63890D02*
D03*
X204848D02*
D03*
X290900Y104815D02*
D03*
X287247Y105403D02*
D03*
X283547D02*
D03*
X279847D02*
D03*
X276147D02*
D03*
X270110Y113658D02*
D03*
X273677Y114639D02*
D03*
X277252Y113683D02*
D03*
X280952D02*
D03*
X284652D02*
D03*
X288352D02*
D03*
X291780Y115074D02*
D03*
X198997Y63890D02*
D03*
X227500Y132500D02*
D03*
X233500Y130000D02*
D03*
X236500Y134000D02*
D03*
X108000Y187500D02*
D03*
X123000D02*
D03*
X138500D02*
D03*
X152500D02*
D03*
X172000Y151500D02*
D03*
X153701Y35000D02*
D03*
X172201D02*
D03*
X190701D02*
D03*
X209201D02*
D03*
X160000Y46000D02*
D03*
X197000Y152000D02*
D03*
X202500D02*
D03*
X208000Y152000D02*
D03*
X213500D02*
D03*
X219000Y152000D02*
D03*
X224500D02*
D03*
X231000D02*
D03*
X236500D02*
D03*
X242000Y152000D02*
D03*
X248000D02*
D03*
X252500Y135000D02*
D03*
X262659Y127185D02*
D03*
X195000Y101620D02*
D03*
X197563Y107437D02*
D03*
X242500Y125000D02*
D03*
X190000Y96000D02*
D03*
X202500Y95000D02*
D03*
X172500Y112937D02*
D03*
Y107437D02*
D03*
Y101620D02*
D03*
Y95937D02*
D03*
Y90437D02*
D03*
Y85000D02*
D03*
X172563Y68500D02*
D03*
X176420Y64500D02*
D03*
X180581Y61000D02*
D03*
X249343Y95657D02*
D03*
X235489Y63890D02*
D03*
X240989Y63890D02*
D03*
X246489D02*
D03*
X282000Y95657D02*
D03*
Y90157D02*
D03*
Y84657D02*
D03*
Y132500D02*
D03*
Y127000D02*
D03*
Y121500D02*
D03*
X263500Y151378D02*
D03*
X267500Y147500D02*
D03*
X271500Y143822D02*
D03*
X218500Y171500D02*
D03*
X229500Y180000D02*
D03*
X207500D02*
D03*
X218500Y175500D02*
D03*
X234500Y168350D02*
D03*
X201500D02*
D03*
X220988Y134413D02*
D03*
X245000Y134980D02*
D03*
X247500Y130177D02*
D03*
X251299Y26299D02*
D03*
X253799Y31299D02*
D03*
Y41299D02*
D03*
X251299Y46299D02*
D03*
X253799Y51299D02*
D03*
X251299Y56299D02*
D03*
X253799Y61299D02*
D03*
Y81299D02*
D03*
Y91299D02*
D03*
Y161299D02*
D03*
X251299Y166299D02*
D03*
X253799Y171299D02*
D03*
X251299Y176299D02*
D03*
X253799Y181299D02*
D03*
X251299Y186299D02*
D03*
X253799Y191299D02*
D03*
X256299Y26299D02*
D03*
X258799Y31299D02*
D03*
Y41299D02*
D03*
X256299Y46299D02*
D03*
X258799Y51299D02*
D03*
X256299Y56299D02*
D03*
X258799Y61299D02*
D03*
Y91299D02*
D03*
X256299Y116299D02*
D03*
Y126299D02*
D03*
X258799Y131299D02*
D03*
X256299Y156299D02*
D03*
X258799Y161299D02*
D03*
X256299Y166299D02*
D03*
X258799Y171299D02*
D03*
X256299Y176299D02*
D03*
X258799Y181299D02*
D03*
X256299Y186299D02*
D03*
X258799Y191299D02*
D03*
X261299Y26299D02*
D03*
X263799Y31299D02*
D03*
Y41299D02*
D03*
X261299Y46299D02*
D03*
X263799Y51299D02*
D03*
X261299Y56299D02*
D03*
X263799Y61299D02*
D03*
X261299Y66299D02*
D03*
Y86299D02*
D03*
X263799Y91299D02*
D03*
Y121299D02*
D03*
Y161299D02*
D03*
X261299Y166299D02*
D03*
X263799Y171299D02*
D03*
X261299Y176299D02*
D03*
X263799Y181299D02*
D03*
X261299Y186299D02*
D03*
X263799Y191299D02*
D03*
X266299Y26299D02*
D03*
X268799Y31299D02*
D03*
Y41299D02*
D03*
X266299Y46299D02*
D03*
X268799Y51299D02*
D03*
X266299Y56299D02*
D03*
X268799Y61299D02*
D03*
X266299Y66299D02*
D03*
X268799Y71299D02*
D03*
Y161299D02*
D03*
X266299Y166299D02*
D03*
X268799Y171299D02*
D03*
X266299Y176299D02*
D03*
X268799Y181299D02*
D03*
X266299Y186299D02*
D03*
X268799Y191299D02*
D03*
X271299Y26299D02*
D03*
X273799Y31299D02*
D03*
Y41299D02*
D03*
X271299Y46299D02*
D03*
X273799Y51299D02*
D03*
X271299Y56299D02*
D03*
X273799Y61299D02*
D03*
X271299Y66299D02*
D03*
X273799Y71299D02*
D03*
X271299Y76299D02*
D03*
X273799Y151299D02*
D03*
X271299Y156299D02*
D03*
X273799Y161299D02*
D03*
X271299Y166299D02*
D03*
X273799Y171299D02*
D03*
X271299Y176299D02*
D03*
X273799Y181299D02*
D03*
X271299Y186299D02*
D03*
X273799Y191299D02*
D03*
X276299Y26299D02*
D03*
X278799Y31299D02*
D03*
Y41299D02*
D03*
X276299Y46299D02*
D03*
X278799Y51299D02*
D03*
X276299Y56299D02*
D03*
X278799Y61299D02*
D03*
X276299Y66299D02*
D03*
X278799Y71299D02*
D03*
X276299Y76299D02*
D03*
X278799Y141299D02*
D03*
Y151299D02*
D03*
X276299Y156299D02*
D03*
X278799Y161299D02*
D03*
X276299Y166299D02*
D03*
X278799Y171299D02*
D03*
X276299Y176299D02*
D03*
X278799Y181299D02*
D03*
X276299Y186299D02*
D03*
X278799Y191299D02*
D03*
X281299Y26299D02*
D03*
X283799Y31299D02*
D03*
Y41299D02*
D03*
X281299Y46299D02*
D03*
X283799Y51299D02*
D03*
X281299Y56299D02*
D03*
X283799Y61299D02*
D03*
X281299Y66299D02*
D03*
X283799Y71299D02*
D03*
X281299Y76299D02*
D03*
X283799Y141299D02*
D03*
X281299Y146299D02*
D03*
X283799Y151299D02*
D03*
X281299Y156299D02*
D03*
X283799Y161299D02*
D03*
X281299Y166299D02*
D03*
X283799Y171299D02*
D03*
X281299Y176299D02*
D03*
X283799Y181299D02*
D03*
X281299Y186299D02*
D03*
X283799Y191299D02*
D03*
X288799Y31299D02*
D03*
Y41299D02*
D03*
X286299Y46299D02*
D03*
X288799Y51299D02*
D03*
X286299Y56299D02*
D03*
X288799Y61299D02*
D03*
X286299Y66299D02*
D03*
X288799Y71299D02*
D03*
X286299Y76299D02*
D03*
X288799Y81299D02*
D03*
Y141299D02*
D03*
X286299Y146299D02*
D03*
X288799Y151299D02*
D03*
X286299Y156299D02*
D03*
X288799Y161299D02*
D03*
X286299Y166299D02*
D03*
X288799Y171299D02*
D03*
X286299Y176299D02*
D03*
X288799Y181299D02*
D03*
X286299Y186299D02*
D03*
X288799Y191299D02*
D03*
X291299Y56299D02*
D03*
X293799Y61299D02*
D03*
X291299Y66299D02*
D03*
X293799Y71299D02*
D03*
X291299Y76299D02*
D03*
X293799Y81299D02*
D03*
X291299Y86299D02*
D03*
X293799Y131299D02*
D03*
X291299Y136299D02*
D03*
X293799Y141299D02*
D03*
X291299Y146299D02*
D03*
X293799Y151299D02*
D03*
X291299Y156299D02*
D03*
X293799Y161299D02*
D03*
X291299Y166299D02*
D03*
X293799Y171299D02*
D03*
X291299Y176299D02*
D03*
X293799Y181299D02*
D03*
X291299Y186299D02*
D03*
X293799Y191299D02*
D03*
X296299Y56299D02*
D03*
X298799Y61299D02*
D03*
X296299Y66299D02*
D03*
X298799Y71299D02*
D03*
X296299Y76299D02*
D03*
X298799Y81299D02*
D03*
X296299Y86299D02*
D03*
X298799Y131299D02*
D03*
X296299Y136299D02*
D03*
X298799Y141299D02*
D03*
X296299Y146299D02*
D03*
X298799Y151299D02*
D03*
X296299Y156299D02*
D03*
X298799Y161299D02*
D03*
X296299Y166299D02*
D03*
X298799Y171299D02*
D03*
X296299Y176299D02*
D03*
X298799Y181299D02*
D03*
X296299Y186299D02*
D03*
X298799Y191299D02*
D03*
X301299Y56299D02*
D03*
X303799Y61299D02*
D03*
X301299Y66299D02*
D03*
X303799Y71299D02*
D03*
X301299Y76299D02*
D03*
X303799Y81299D02*
D03*
X301299Y86299D02*
D03*
X303799Y131299D02*
D03*
X301299Y136299D02*
D03*
X303799Y141299D02*
D03*
X301299Y146299D02*
D03*
X303799Y151299D02*
D03*
X301299Y156299D02*
D03*
X303799Y161299D02*
D03*
X301299Y166299D02*
D03*
X303799Y171299D02*
D03*
X301299Y176299D02*
D03*
X303799Y181299D02*
D03*
X301299Y186299D02*
D03*
X303799Y191299D02*
D03*
D37*
X226500Y113921D02*
D03*
Y104079D02*
D03*
Y108803D02*
D03*
X221776Y113528D02*
D03*
X231224D02*
D03*
X221776Y104079D02*
D03*
X231224Y108803D02*
D03*
Y104079D02*
D03*
X221776Y108803D02*
D03*
M02*
