G04 Layer_Color=8388736*
%FSLAX25Y25*%
%MOIN*%
G70*
G01*
G75*
%ADD56R,0.09261X0.04734*%
%ADD57R,0.04537X0.04537*%
%ADD58R,0.04537X0.04340*%
%ADD59O,0.05915X0.02568*%
%ADD60R,0.04340X0.04143*%
%ADD61R,0.04143X0.04340*%
%ADD62R,0.16584X0.06584*%
G04:AMPARAMS|DCode=63|XSize=41.43mil|YSize=43.4mil|CornerRadius=0mil|HoleSize=0mil|Usage=FLASHONLY|Rotation=315.000|XOffset=0mil|YOffset=0mil|HoleType=Round|Shape=Rectangle|*
%AMROTATEDRECTD63*
4,1,4,-0.02999,-0.00070,0.00070,0.02999,0.02999,0.00070,-0.00070,-0.02999,-0.02999,-0.00070,0.0*
%
%ADD63ROTATEDRECTD63*%

%ADD64R,0.01181X0.03937*%
%ADD65R,0.17716X0.17716*%
%ADD66R,0.03937X0.01181*%
%ADD67R,0.03750X0.03750*%
G04:AMPARAMS|DCode=68|XSize=43.4mil|YSize=45.37mil|CornerRadius=0mil|HoleSize=0mil|Usage=FLASHONLY|Rotation=225.000|XOffset=0mil|YOffset=0mil|HoleType=Round|Shape=Rectangle|*
%AMROTATEDRECTD68*
4,1,4,-0.00070,0.03139,0.03139,-0.00070,0.00070,-0.03139,-0.03139,0.00070,-0.00070,0.03139,0.0*
%
%ADD68ROTATEDRECTD68*%

%ADD69R,0.04340X0.04537*%
%ADD70R,0.04537X0.04537*%
%ADD71R,0.04537X0.04537*%
%ADD72R,0.01978X0.04537*%
%ADD73R,0.04931X0.02962*%
G04:AMPARAMS|DCode=74|XSize=41.43mil|YSize=43.4mil|CornerRadius=0mil|HoleSize=0mil|Usage=FLASHONLY|Rotation=45.000|XOffset=0mil|YOffset=0mil|HoleType=Round|Shape=Rectangle|*
%AMROTATEDRECTD74*
4,1,4,0.00070,-0.02999,-0.02999,0.00070,-0.00070,0.02999,0.02999,-0.00070,0.00070,-0.02999,0.0*
%
%ADD74ROTATEDRECTD74*%

%ADD75C,0.06400*%
%ADD76R,0.06400X0.06400*%
%ADD77C,0.01772*%
D56*
X299500Y33693D02*
D03*
Y45307D02*
D03*
D57*
X293595Y39500D02*
D03*
D58*
X249382Y50000D02*
D03*
X243083D02*
D03*
X268150D02*
D03*
X274449D02*
D03*
X280650Y45500D02*
D03*
X286949D02*
D03*
X274350Y27500D02*
D03*
X280650D02*
D03*
X261879Y50000D02*
D03*
X255580D02*
D03*
X280650Y39500D02*
D03*
X286949D02*
D03*
X177850Y101620D02*
D03*
X184150D02*
D03*
X209201Y40500D02*
D03*
X221799Y40500D02*
D03*
X172201Y40500D02*
D03*
X184799Y40500D02*
D03*
X190701Y40500D02*
D03*
X203299Y40500D02*
D03*
X153701Y40500D02*
D03*
X166299D02*
D03*
D59*
X243740Y37339D02*
D03*
X243740Y34780D02*
D03*
X243740Y32221D02*
D03*
Y29661D02*
D03*
X261260Y37339D02*
D03*
Y34780D02*
D03*
Y32221D02*
D03*
Y29661D02*
D03*
D60*
X255650Y44000D02*
D03*
X249351D02*
D03*
X280650Y33500D02*
D03*
X286949D02*
D03*
X229380Y75740D02*
D03*
X223081D02*
D03*
X223081Y69591D02*
D03*
X229380D02*
D03*
X276080Y95657D02*
D03*
X269781Y95657D02*
D03*
X276080Y90157D02*
D03*
X269781D02*
D03*
X276080Y84657D02*
D03*
X269781Y84657D02*
D03*
X276150Y132500D02*
D03*
X269850D02*
D03*
X276150Y127000D02*
D03*
X269850D02*
D03*
X276150Y121500D02*
D03*
X269850D02*
D03*
X259650Y109500D02*
D03*
X253350D02*
D03*
X259650Y102457D02*
D03*
X253350D02*
D03*
X177850Y95937D02*
D03*
X184150D02*
D03*
X177850Y90437D02*
D03*
X184150D02*
D03*
X177850Y84937D02*
D03*
X184150D02*
D03*
X177850Y107437D02*
D03*
X184150D02*
D03*
X177850Y112937D02*
D03*
X184150D02*
D03*
D61*
X237000Y37350D02*
D03*
Y43650D02*
D03*
X246489Y69561D02*
D03*
X246489Y75861D02*
D03*
X240989Y69561D02*
D03*
X240989Y75861D02*
D03*
X235489Y69561D02*
D03*
X235489Y75861D02*
D03*
X242000Y145650D02*
D03*
X242000Y139350D02*
D03*
X236500Y145650D02*
D03*
Y139350D02*
D03*
X231000Y145650D02*
D03*
Y139350D02*
D03*
X204848Y69591D02*
D03*
Y75890D02*
D03*
X210348Y69591D02*
D03*
Y75890D02*
D03*
X248000Y145650D02*
D03*
Y139350D02*
D03*
X207500Y174650D02*
D03*
Y168350D02*
D03*
X229500Y174650D02*
D03*
Y168350D02*
D03*
X197000Y145650D02*
D03*
Y139350D02*
D03*
X202500Y145650D02*
D03*
X202500Y139350D02*
D03*
X208000Y145650D02*
D03*
Y139350D02*
D03*
X213500Y145650D02*
D03*
X213500Y139350D02*
D03*
X219000Y145650D02*
D03*
Y139350D02*
D03*
X224500Y145650D02*
D03*
Y139350D02*
D03*
D62*
X301500Y109500D02*
D03*
Y99500D02*
D03*
Y119500D02*
D03*
D63*
X262460Y72933D02*
D03*
X258006Y68479D02*
D03*
X258006Y77387D02*
D03*
X253552Y72933D02*
D03*
X181449Y77442D02*
D03*
X176995Y72988D02*
D03*
X185338Y73553D02*
D03*
X180884Y69099D02*
D03*
X189227Y69664D02*
D03*
X184773Y65210D02*
D03*
X267113Y139435D02*
D03*
X262659Y134980D02*
D03*
X263224Y143324D02*
D03*
X258769Y138870D02*
D03*
X259335Y147213D02*
D03*
X254880Y142759D02*
D03*
D64*
X217839Y97386D02*
D03*
X220988D02*
D03*
X224138D02*
D03*
X227287D02*
D03*
X230437D02*
D03*
X233587D02*
D03*
X235161D02*
D03*
X232012D02*
D03*
X228862D02*
D03*
X225713D02*
D03*
X222563D02*
D03*
X219413D02*
D03*
X233587Y120614D02*
D03*
X230437D02*
D03*
X227287D02*
D03*
X224138D02*
D03*
X220988D02*
D03*
X217839D02*
D03*
X219413D02*
D03*
X222563D02*
D03*
X225713D02*
D03*
X228862D02*
D03*
X232012D02*
D03*
X235161D02*
D03*
D65*
X226500Y109000D02*
D03*
D66*
X238114Y101913D02*
D03*
Y105063D02*
D03*
Y108213D02*
D03*
Y111362D02*
D03*
Y114512D02*
D03*
Y117661D02*
D03*
Y116087D02*
D03*
Y112937D02*
D03*
Y109787D02*
D03*
Y106638D02*
D03*
Y103488D02*
D03*
Y100339D02*
D03*
X214886Y116087D02*
D03*
Y112937D02*
D03*
Y109787D02*
D03*
Y106638D02*
D03*
Y103488D02*
D03*
Y100339D02*
D03*
Y101913D02*
D03*
Y105063D02*
D03*
Y108213D02*
D03*
Y111362D02*
D03*
Y114512D02*
D03*
Y117661D02*
D03*
D67*
X152500Y182650D02*
D03*
Y176350D02*
D03*
X138500Y182650D02*
D03*
Y176350D02*
D03*
X123000Y182650D02*
D03*
Y176350D02*
D03*
X108000Y182650D02*
D03*
Y176350D02*
D03*
D68*
X176384Y138045D02*
D03*
X180838Y133591D02*
D03*
X262496Y81877D02*
D03*
X266950Y77423D02*
D03*
X185273Y147227D02*
D03*
X189727Y142773D02*
D03*
D69*
X216848Y75890D02*
D03*
Y69591D02*
D03*
X152500Y153701D02*
D03*
Y166299D02*
D03*
X138500Y153701D02*
D03*
X138500Y166299D02*
D03*
X123000Y153701D02*
D03*
X123000Y166299D02*
D03*
X108000Y153701D02*
D03*
X108000Y166299D02*
D03*
X198997Y75890D02*
D03*
Y69591D02*
D03*
D70*
X215500Y40500D02*
D03*
X178500D02*
D03*
X197000D02*
D03*
X160000D02*
D03*
D71*
X152500Y160000D02*
D03*
X138500D02*
D03*
X123000D02*
D03*
X108000D02*
D03*
D72*
X273059Y102457D02*
D03*
X270500D02*
D03*
X267941D02*
D03*
Y109543D02*
D03*
X270500D02*
D03*
X273059D02*
D03*
D73*
X223224Y167760D02*
D03*
X223224Y171500D02*
D03*
X223224Y175240D02*
D03*
X213776Y175240D02*
D03*
Y167760D02*
D03*
D74*
X176273Y147227D02*
D03*
X180727Y142773D02*
D03*
D75*
X89383Y19381D02*
D03*
Y9381D02*
D03*
X179383Y19381D02*
D03*
X189383Y9381D02*
D03*
X179383D02*
D03*
X289383D02*
D03*
X299383Y19381D02*
D03*
X259383Y9381D02*
D03*
X189383Y19381D02*
D03*
X199383Y9381D02*
D03*
X169383Y19381D02*
D03*
X99383D02*
D03*
Y9381D02*
D03*
X229383Y19381D02*
D03*
Y9381D02*
D03*
X239383D02*
D03*
X249383D02*
D03*
X239383Y19381D02*
D03*
X249383D02*
D03*
X259383D02*
D03*
X269383D02*
D03*
Y9381D02*
D03*
X279383Y19381D02*
D03*
Y9381D02*
D03*
X289383Y19381D02*
D03*
X299383Y9381D02*
D03*
X219383Y19381D02*
D03*
Y9381D02*
D03*
X209383D02*
D03*
Y19381D02*
D03*
X119383D02*
D03*
X109383D02*
D03*
Y9381D02*
D03*
X119383D02*
D03*
X199383Y19381D02*
D03*
X159383D02*
D03*
X139383Y9381D02*
D03*
X169383D02*
D03*
X129383Y19381D02*
D03*
X139383D02*
D03*
X129383Y9381D02*
D03*
X149383D02*
D03*
Y19381D02*
D03*
X159383Y9381D02*
D03*
X79383Y19381D02*
D03*
X89383Y209381D02*
D03*
Y199381D02*
D03*
X179383Y209381D02*
D03*
X189383Y199381D02*
D03*
X179383D02*
D03*
X289383D02*
D03*
X299383Y209381D02*
D03*
X259383Y199381D02*
D03*
X189383Y209381D02*
D03*
X199383Y199381D02*
D03*
X169383Y209381D02*
D03*
X99383D02*
D03*
Y199381D02*
D03*
X229383Y209381D02*
D03*
Y199381D02*
D03*
X239383D02*
D03*
X249383D02*
D03*
X239383Y209381D02*
D03*
X249383D02*
D03*
X259383D02*
D03*
X269383D02*
D03*
Y199381D02*
D03*
X279383Y209381D02*
D03*
Y199381D02*
D03*
X289383Y209381D02*
D03*
X299383Y199381D02*
D03*
X219383Y209381D02*
D03*
Y199381D02*
D03*
X209383D02*
D03*
Y209381D02*
D03*
X119383D02*
D03*
X109383D02*
D03*
Y199381D02*
D03*
X119383D02*
D03*
X199383Y209381D02*
D03*
X159383D02*
D03*
X139383Y199381D02*
D03*
X169383D02*
D03*
X129383Y209381D02*
D03*
X139383D02*
D03*
X129383Y199381D02*
D03*
X149383D02*
D03*
Y209381D02*
D03*
X159383Y199381D02*
D03*
X79383Y209381D02*
D03*
D76*
Y9381D02*
D03*
Y199381D02*
D03*
D77*
X226500Y113921D02*
D03*
Y104079D02*
D03*
Y108803D02*
D03*
X221776Y113528D02*
D03*
X231224D02*
D03*
X221776Y104079D02*
D03*
X231224Y108803D02*
D03*
Y104079D02*
D03*
X221776Y108803D02*
D03*
M02*
