M48
;Layer_Color=9474304
;FILE_FORMAT=2:5
INCH,LZ
;TYPE=PLATED
T1F00S00C0.00800
T2F00S00C0.01000
T3F00S00C0.01181
T4F00S00C0.01800
T5F00S00C0.03000
%
T01
X0153701Y0035
X016Y0046
X0172201Y0035
X0190701
X0209201
X0210348Y006389
X0204848
X0198997
X0180581Y0061
X017642Y00645
X0172563Y00685
X0235489Y006389
X0240989Y006389
X0246489
X0237Y0049974
Y0029661
X0267521Y0037339
X029178Y00335
Y00455
X0282Y0084657
Y0090157
Y0095657
Y01215
Y0127
Y01325
X02715Y0143822
X02675Y01475
X02635Y0151378
X0248Y0152
X0242
X02365Y0152
Y0134
X02335Y013
X02425Y0125
X02475Y0130177
X0245Y013498
X02525Y0135
X0262659Y0127185
X0265Y01175
X0249343Y0095657
X02345Y016835
X02295Y018
X02185Y01755
X02185Y01715
X02075Y018
X02015Y016835
X02025Y0152
X0197
X0208Y0152
X02135
X0219Y0152
X02245
X0231
X02275Y01325
X0220988Y0134413
X0197563Y0107437
X0195Y010162
X019Y0096
X02025Y0095
X01725Y0095937
Y0090437
Y0085
Y010162
Y0107437
Y0112937
X0172Y01515
X01525Y01875
X01385
X0123
X0108
T02
X0261299Y0066299
X0266299
X0271299
X0276299
X0281299
X0286299
X0291299
X0296299
X0301299
X0303799Y0071299
X0298799
X0293799
X0288799
X0283799
X0278799
X0273799
X0268799
X0271299Y0076299
X0276299
X0281299
X0286299
X0291299
X0296299
X0301299
X0303799Y0081299
X0298799
X0293799
X0288799
X0291299Y0086299
X0296299
X0301299
X02909Y0104815
X0287247Y0105403
X0283547
X0279847
X0276147
X0277252Y0113683
X0280952
X0284652
X0288352
X029178Y0115074
X0293799Y0131299
X0298799
X0303799
X0301299Y0136299
X0296299
X0291299
X0293799Y0141299
X0298799
X0303799
X0301299Y0146299
X0296299
X0291299
X0286299
X0281299
X0283799Y0151299
X0288799
X0293799
X0298799
X0303799
X0301299Y0156299
X0296299
X0291299
X0286299
X0281299
X0276299
X0271299
X0273799Y0161299
X0278799
X0283799
X0288799
X0293799
X0298799
X0303799
X0301299Y0166299
X0296299
X0291299
X0286299
X0281299
X0276299
X0271299
X0266299
X0261299
X0256299
X0251299
X0253799Y0171299
X0258799
X0263799
X0268799
X0273799
X0278799
X0283799
X0288799
X0293799
X0298799
X0303799
X0301299Y0176299
X0296299
X0291299
X0286299
X0281299
X0276299
X0271299
X0266299
X0261299
X0256299
X0251299
X0253799Y0181299
X0258799
X0263799
X0268799
X0273799
X0278799
X0283799
X0288799
X0293799
X0298799
X0303799
X0301299Y0186299
X0296299
X0291299
X0286299
X0281299
X0276299
X0271299
X0266299
X0261299
X0256299
X0251299
X0253799Y0191299
X0258799
X0263799
X0268799
X0273799
X0278799
X0283799
X0288799
X0293799
X0298799
X0303799
X0288799Y0141299
X0283799
X0278799
Y0151299
X0273799
X0268799Y0161299
X0263799
X0258799
X0253799
X0256299Y0156299
X0258799Y0131299
X0256299Y0126299
Y0116299
X0263799Y0121299
X027011Y0113658
X0273677Y0114639
X0263799Y0091299
X0258799
X0253799
Y0081299
X0261299Y0086299
T03
X0221776Y0104079
Y0108803
Y0113528
X02265Y0113921
Y0108803
X0231224Y0108803
Y0113528
Y0104079
X02265Y0104079
T04
X0288Y00995
Y01195
T05
X0079383Y0009381
X0089383
Y0019381
X0099383
Y0009381
X0109383
Y0019381
X0119383
Y0009381
X0129383
X0139383
Y0019381
X0129383
X0149383
X0159383
X0169383
X0179383
Y0009381
X0189383
Y0019381
X0199383
Y0009381
X0209383
X0219383
X0229383
Y0019381
X0219383
X0209383
X0169383Y0009381
X0159383
X0149383
X0079383Y0019381
X0239383
Y0009381
X0249383
X0259383
Y0019381
X0249383
X0269383
Y0009381
X0279383
X0289383
Y0019381
X0299383
Y0009381
X0279383Y0019381
Y0199381
X0289383
Y0209381
X0299383
Y0199381
X0269383
X0259383
X0249383
X0239383
Y0209381
X0249383
X0259383
X0269383
X0279383
X0229383
Y0199381
X0219383
Y0209381
X0209383
Y0199381
X0199383
X0189383
X0179383
Y0209381
X0189383
X0199383
X0169383
X0159383
X0149383
X0139383
Y0199381
X0129383
X0119383
Y0209381
X0109383
X0099383
X0089383
Y0199381
X0099383
X0109383
X0129383Y0209381
X0149383Y0199381
X0159383
X0169383
X0079383
Y0209381
M30
