G04 Layer_Physical_Order=1*
G04 Layer_Color=255*
%FSLAX25Y25*%
%MOIN*%
G70*
G01*
G75*
%ADD10R,0.08661X0.04134*%
%ADD11R,0.03937X0.03937*%
%ADD12R,0.03937X0.03740*%
%ADD13O,0.05315X0.01968*%
%ADD14R,0.03740X0.03543*%
%ADD15R,0.03543X0.03740*%
%ADD16R,0.15984X0.05984*%
G04:AMPARAMS|DCode=17|XSize=35.43mil|YSize=37.4mil|CornerRadius=0mil|HoleSize=0mil|Usage=FLASHONLY|Rotation=315.000|XOffset=0mil|YOffset=0mil|HoleType=Round|Shape=Rectangle|*
%AMROTATEDRECTD17*
4,1,4,-0.02575,-0.00070,0.00070,0.02575,0.02575,0.00070,-0.00070,-0.02575,-0.02575,-0.00070,0.0*
%
%ADD17ROTATEDRECTD17*%

%ADD18R,0.00787X0.03543*%
%ADD19R,0.17323X0.17323*%
%ADD20R,0.03543X0.00787*%
%ADD21R,0.03150X0.03150*%
G04:AMPARAMS|DCode=22|XSize=37.4mil|YSize=39.37mil|CornerRadius=0mil|HoleSize=0mil|Usage=FLASHONLY|Rotation=225.000|XOffset=0mil|YOffset=0mil|HoleType=Round|Shape=Rectangle|*
%AMROTATEDRECTD22*
4,1,4,-0.00070,0.02714,0.02714,-0.00070,0.00070,-0.02714,-0.02714,0.00070,-0.00070,0.02714,0.0*
%
%ADD22ROTATEDRECTD22*%

%ADD23R,0.03740X0.03937*%
%ADD24R,0.03937X0.03937*%
%ADD25R,0.03937X0.03937*%
%ADD26R,0.01378X0.03937*%
%ADD27R,0.04331X0.02362*%
G04:AMPARAMS|DCode=28|XSize=35.43mil|YSize=37.4mil|CornerRadius=0mil|HoleSize=0mil|Usage=FLASHONLY|Rotation=45.000|XOffset=0mil|YOffset=0mil|HoleType=Round|Shape=Rectangle|*
%AMROTATEDRECTD28*
4,1,4,0.00070,-0.02575,-0.02575,0.00070,-0.00070,0.02575,0.02575,-0.00070,0.00070,-0.02575,0.0*
%
%ADD28ROTATEDRECTD28*%

%ADD29C,0.00800*%
%ADD30C,0.01500*%
%ADD31C,0.01800*%
%ADD32C,0.01799*%
%ADD33C,0.01000*%
%ADD34C,0.01987*%
%ADD35C,0.06000*%
%ADD36R,0.06000X0.06000*%
%ADD37C,0.02200*%
%ADD38C,0.03800*%
%ADD39C,0.02362*%
G36*
X308686Y193299D02*
Y122000D01*
Y113142D01*
X293508D01*
X293049Y112951D01*
X292858Y112492D01*
Y111268D01*
X274397D01*
Y111512D01*
X274207Y111971D01*
X273748Y112161D01*
X272370D01*
X271911Y111971D01*
X271721Y111512D01*
Y110477D01*
X271334Y109543D01*
X271721Y108610D01*
Y107575D01*
X271911Y107116D01*
X272370Y106925D01*
X273748D01*
X274207Y107116D01*
X274397Y107575D01*
Y107818D01*
X292858D01*
Y106508D01*
X293049Y106049D01*
X293508Y105858D01*
X308686D01*
Y92000D01*
Y62500D01*
X250000D01*
Y71507D01*
X251000Y71921D01*
X253023Y69899D01*
X253482Y69708D01*
X253941Y69899D01*
X254037Y69994D01*
X255008Y69551D01*
X254971Y68868D01*
X254971Y68868D01*
Y68868D01*
X254781Y68409D01*
X254971Y67950D01*
X254971Y67950D01*
X255029Y67892D01*
X257477Y65444D01*
X257936Y65254D01*
X258395Y65444D01*
X260982Y68031D01*
X261040Y68089D01*
Y68089D01*
X261230Y68548D01*
X261040Y69007D01*
X261040Y69008D01*
X260982Y69065D01*
X258535Y71513D01*
X258075Y71703D01*
X257616Y71513D01*
X257520Y71417D01*
X256549Y71860D01*
X256586Y72543D01*
X256586Y72543D01*
Y72543D01*
X256776Y73002D01*
X256586Y73462D01*
X256586Y73462D01*
X256528Y73519D01*
X254080Y75967D01*
X253621Y76157D01*
X253162Y75967D01*
X252607Y75412D01*
X251393Y76626D01*
X250627Y76943D01*
X250000Y77622D01*
Y86418D01*
X256389D01*
X259861Y82945D01*
X259323Y82406D01*
X259132Y81947D01*
X259323Y81488D01*
X259919Y80892D01*
X258992Y79965D01*
X258535Y80421D01*
X258075Y80612D01*
X257616Y80421D01*
X255029Y77834D01*
X254971Y77777D01*
Y77777D01*
X254781Y77318D01*
X254971Y76858D01*
X254971Y76858D01*
X255029Y76801D01*
X257477Y74353D01*
X257936Y74163D01*
X258395Y74353D01*
X260982Y76940D01*
X261040Y76998D01*
Y76998D01*
X261230Y77457D01*
X261040Y77916D01*
X260980Y78417D01*
X261931Y78880D01*
X262106Y78704D01*
X262566Y78514D01*
X263025Y78704D01*
X265670Y81349D01*
X265860Y81808D01*
X265670Y82267D01*
X262886Y85051D01*
X262426Y85241D01*
X261967Y85051D01*
X261392Y84476D01*
X257603Y88265D01*
X256837Y88582D01*
X256837Y88582D01*
X250000D01*
Y93934D01*
X250399Y94254D01*
X250644Y94356D01*
X250703Y94498D01*
X250799Y94574D01*
X267262D01*
Y93885D01*
X267452Y93426D01*
X267452Y92388D01*
X267262Y91928D01*
Y88385D01*
X267452Y87926D01*
X267452Y86888D01*
X267262Y86428D01*
Y82885D01*
X267452Y82426D01*
X267911Y82236D01*
X271651D01*
X272110Y82426D01*
X272301Y82885D01*
Y86428D01*
X272110Y86888D01*
X272110Y87926D01*
X272301Y88385D01*
Y91928D01*
X272110Y92388D01*
X272110Y93426D01*
X272301Y93885D01*
Y97429D01*
X272110Y97888D01*
X271651Y98078D01*
X267911D01*
X267452Y97888D01*
X267262Y97429D01*
Y96739D01*
X250735D01*
X250644Y96958D01*
X250000Y97225D01*
Y100078D01*
X251000Y100277D01*
X251021Y100226D01*
X251480Y100036D01*
X255221D01*
X255680Y100226D01*
X255870Y100685D01*
Y104228D01*
X255680Y104688D01*
X255221Y104878D01*
X252066D01*
X251116Y105828D01*
X251066Y106079D01*
X252066Y107079D01*
X255221D01*
X255680Y107269D01*
X255870Y107728D01*
Y110721D01*
X256562Y111533D01*
X257130Y111272D01*
Y107728D01*
X257320Y107269D01*
X257780Y107079D01*
X261520D01*
X261979Y107269D01*
X262169Y107728D01*
Y108309D01*
X266602D01*
Y107575D01*
X266793Y107116D01*
X267252Y106925D01*
X268630D01*
X269089Y107116D01*
X269279Y107575D01*
Y111512D01*
X269089Y111971D01*
X268630Y112161D01*
X267252D01*
X266793Y111971D01*
X266602Y111512D01*
Y110691D01*
X262169D01*
Y111272D01*
X261979Y111731D01*
X261967Y111736D01*
X261871Y112212D01*
X261876Y112845D01*
X264781Y115751D01*
X265000Y115660D01*
X266301Y116199D01*
X266504Y116688D01*
X266616Y116735D01*
X268960Y119079D01*
X271721D01*
X272180Y119269D01*
X272370Y119728D01*
Y123272D01*
X272180Y123731D01*
X272180Y124769D01*
X272370Y125228D01*
Y128772D01*
X272180Y129231D01*
X272180Y130269D01*
X272370Y130728D01*
Y134272D01*
X272180Y134731D01*
X271721Y134921D01*
X267980D01*
X267521Y134731D01*
X267331Y134272D01*
Y130728D01*
X267521Y130269D01*
X267521Y129231D01*
X267331Y128772D01*
Y125228D01*
X267521Y124769D01*
X267521Y123731D01*
X267331Y123272D01*
Y120511D01*
X265820Y119000D01*
X265000Y119340D01*
X263699Y118801D01*
X263160Y117500D01*
X263250Y117281D01*
X260552Y114582D01*
X252893D01*
X252511Y115506D01*
X262440Y125435D01*
X262659Y125345D01*
X263960Y125884D01*
X264499Y127185D01*
X263960Y128486D01*
X263741Y128577D01*
Y132639D01*
X265635Y134533D01*
X265693Y134591D01*
Y134591D01*
X265883Y135050D01*
X265693Y135509D01*
X265693Y135509D01*
X265635Y135567D01*
X263187Y138015D01*
X262728Y138205D01*
X262004Y138929D01*
X261979Y138977D01*
X261804Y139398D01*
X261804Y139398D01*
X261746Y139456D01*
X259298Y141904D01*
X258839Y142094D01*
X258115Y142818D01*
X258089Y142866D01*
X257915Y143288D01*
X257915Y143288D01*
X257857Y143345D01*
X255409Y145793D01*
X254950Y145983D01*
X254491Y145793D01*
X251904Y143206D01*
X251846Y143148D01*
Y143148D01*
X251656Y142689D01*
X251846Y142230D01*
X251846Y142230D01*
X251904Y142172D01*
X254352Y139724D01*
X254811Y139534D01*
X255535Y138810D01*
X255560Y138762D01*
X255735Y138341D01*
X255735Y138341D01*
X255793Y138283D01*
X258241Y135835D01*
X258700Y135645D01*
X259424Y134921D01*
X259450Y134873D01*
X259624Y134452D01*
X259624Y134452D01*
X259682Y134394D01*
X261576Y132500D01*
Y128577D01*
X261357Y128486D01*
X260819Y127185D01*
X260909Y126966D01*
X254506Y120563D01*
X253582Y120946D01*
Y133608D01*
X253801Y133699D01*
X254340Y135000D01*
X253801Y136301D01*
X252500Y136840D01*
X252281Y136749D01*
X250421Y138610D01*
Y141220D01*
X250231Y141680D01*
X250000Y141775D01*
X250000Y193988D01*
X307979Y194006D01*
X308686Y193299D01*
D02*
G37*
%LPC*%
G36*
X266881Y80787D02*
X266422Y80597D01*
X263777Y77952D01*
X263587Y77493D01*
X263777Y77034D01*
X264403Y76407D01*
X263476Y75480D01*
X262989Y75967D01*
X262529Y76157D01*
X262070Y75967D01*
X259483Y73380D01*
X259426Y73322D01*
Y73322D01*
X259235Y72863D01*
X259426Y72404D01*
X259426Y72404D01*
X259483Y72347D01*
X261931Y69899D01*
X262390Y69708D01*
X262849Y69899D01*
X265437Y72486D01*
X265494Y72543D01*
Y72543D01*
X265684Y73002D01*
X265494Y73462D01*
X265469Y73928D01*
X266446Y74364D01*
X266561Y74250D01*
X267020Y74060D01*
X267479Y74250D01*
X270124Y76894D01*
X270314Y77354D01*
X270124Y77813D01*
X267340Y80597D01*
X266881Y80787D01*
D02*
G37*
G36*
X273748Y105075D02*
X272370D01*
X271911Y104884D01*
X271721Y104425D01*
Y100488D01*
X271911Y100029D01*
X272370Y99839D01*
X273748D01*
X274207Y100029D01*
X274397Y100488D01*
Y104425D01*
X274207Y104884D01*
X273748Y105075D01*
D02*
G37*
G36*
X268630D02*
X267252D01*
X266793Y104884D01*
X266602Y104425D01*
Y103647D01*
X262169D01*
Y104228D01*
X261979Y104688D01*
X261520Y104878D01*
X257780D01*
X257320Y104688D01*
X257130Y104228D01*
Y100685D01*
X257320Y100226D01*
X257780Y100036D01*
X261520D01*
X261979Y100226D01*
X262169Y100685D01*
Y101266D01*
X266602D01*
Y100488D01*
X266793Y100029D01*
X267252Y99839D01*
X268630D01*
X269089Y100029D01*
X269279Y100488D01*
Y104425D01*
X269089Y104884D01*
X268630Y105075D01*
D02*
G37*
%LPD*%
D10*
X299500Y33693D02*
D03*
Y45307D02*
D03*
D11*
X293595Y39500D02*
D03*
D12*
X249382Y50000D02*
D03*
X243083D02*
D03*
X268150D02*
D03*
X274449D02*
D03*
X280650Y45500D02*
D03*
X286949D02*
D03*
X274350Y27500D02*
D03*
X280650D02*
D03*
X261879Y50000D02*
D03*
X255580D02*
D03*
X280650Y39500D02*
D03*
X286949D02*
D03*
X177850Y101620D02*
D03*
X184150D02*
D03*
X209201Y40500D02*
D03*
X221799Y40500D02*
D03*
X172201Y40500D02*
D03*
X184799Y40500D02*
D03*
X190701Y40500D02*
D03*
X203299Y40500D02*
D03*
X153701Y40500D02*
D03*
X166299D02*
D03*
D13*
X243740Y37339D02*
D03*
X243740Y34780D02*
D03*
X243740Y32221D02*
D03*
Y29661D02*
D03*
X261260Y37339D02*
D03*
Y34780D02*
D03*
Y32221D02*
D03*
Y29661D02*
D03*
D14*
X255650Y44000D02*
D03*
X249351D02*
D03*
X280650Y33500D02*
D03*
X286949D02*
D03*
X229380Y75740D02*
D03*
X223081D02*
D03*
X223081Y69591D02*
D03*
X229380D02*
D03*
X276080Y95657D02*
D03*
X269781Y95657D02*
D03*
X276080Y90157D02*
D03*
X269781D02*
D03*
X276080Y84657D02*
D03*
X269781Y84657D02*
D03*
X276150Y132500D02*
D03*
X269850D02*
D03*
X276150Y127000D02*
D03*
X269850D02*
D03*
X276150Y121500D02*
D03*
X269850D02*
D03*
X259650Y109500D02*
D03*
X253350D02*
D03*
X259650Y102457D02*
D03*
X253350D02*
D03*
X177850Y95937D02*
D03*
X184150D02*
D03*
X177850Y90437D02*
D03*
X184150D02*
D03*
X177850Y84937D02*
D03*
X184150D02*
D03*
X177850Y107437D02*
D03*
X184150D02*
D03*
X177850Y112937D02*
D03*
X184150D02*
D03*
D15*
X237000Y37350D02*
D03*
Y43650D02*
D03*
X246489Y69561D02*
D03*
X246489Y75861D02*
D03*
X240989Y69561D02*
D03*
X240989Y75861D02*
D03*
X235489Y69561D02*
D03*
X235489Y75861D02*
D03*
X242000Y145650D02*
D03*
X242000Y139350D02*
D03*
X236500Y145650D02*
D03*
Y139350D02*
D03*
X231000Y145650D02*
D03*
Y139350D02*
D03*
X204848Y69591D02*
D03*
Y75890D02*
D03*
X210348Y69591D02*
D03*
Y75890D02*
D03*
X248000Y145650D02*
D03*
Y139350D02*
D03*
X207500Y174650D02*
D03*
Y168350D02*
D03*
X229500Y174650D02*
D03*
Y168350D02*
D03*
X197000Y145650D02*
D03*
Y139350D02*
D03*
X202500Y145650D02*
D03*
X202500Y139350D02*
D03*
X208000Y145650D02*
D03*
Y139350D02*
D03*
X213500Y145650D02*
D03*
X213500Y139350D02*
D03*
X219000Y145650D02*
D03*
Y139350D02*
D03*
X224500Y145650D02*
D03*
Y139350D02*
D03*
D16*
X301500Y109500D02*
D03*
Y99500D02*
D03*
Y119500D02*
D03*
D17*
X262460Y72933D02*
D03*
X258006Y68479D02*
D03*
X258006Y77387D02*
D03*
X253552Y72933D02*
D03*
X181449Y77442D02*
D03*
X176995Y72988D02*
D03*
X185338Y73553D02*
D03*
X180884Y69099D02*
D03*
X189227Y69664D02*
D03*
X184773Y65210D02*
D03*
X267113Y139435D02*
D03*
X262659Y134980D02*
D03*
X263224Y143324D02*
D03*
X258769Y138870D02*
D03*
X259335Y147213D02*
D03*
X254880Y142759D02*
D03*
D18*
X217839Y97386D02*
D03*
X220988D02*
D03*
X224138D02*
D03*
X227287D02*
D03*
X230437D02*
D03*
X233587D02*
D03*
X235161D02*
D03*
X232012D02*
D03*
X228862D02*
D03*
X225713D02*
D03*
X222563D02*
D03*
X219413D02*
D03*
X233587Y120614D02*
D03*
X230437D02*
D03*
X227287D02*
D03*
X224138D02*
D03*
X220988D02*
D03*
X217839D02*
D03*
X219413D02*
D03*
X222563D02*
D03*
X225713D02*
D03*
X228862D02*
D03*
X232012D02*
D03*
X235161D02*
D03*
D19*
X226500Y109000D02*
D03*
D20*
X238114Y101913D02*
D03*
Y105063D02*
D03*
Y108213D02*
D03*
Y111362D02*
D03*
Y114512D02*
D03*
Y117661D02*
D03*
Y116087D02*
D03*
Y112937D02*
D03*
Y109787D02*
D03*
Y106638D02*
D03*
Y103488D02*
D03*
Y100339D02*
D03*
X214886Y116087D02*
D03*
Y112937D02*
D03*
Y109787D02*
D03*
Y106638D02*
D03*
Y103488D02*
D03*
Y100339D02*
D03*
Y101913D02*
D03*
Y105063D02*
D03*
Y108213D02*
D03*
Y111362D02*
D03*
Y114512D02*
D03*
Y117661D02*
D03*
D21*
X152500Y182650D02*
D03*
Y176350D02*
D03*
X138500Y182650D02*
D03*
Y176350D02*
D03*
X123000Y182650D02*
D03*
Y176350D02*
D03*
X108000Y182650D02*
D03*
Y176350D02*
D03*
D22*
X176384Y138045D02*
D03*
X180838Y133591D02*
D03*
X262496Y81877D02*
D03*
X266950Y77423D02*
D03*
X185273Y147227D02*
D03*
X189727Y142773D02*
D03*
D23*
X216848Y75890D02*
D03*
Y69591D02*
D03*
X152500Y153701D02*
D03*
Y166299D02*
D03*
X138500Y153701D02*
D03*
X138500Y166299D02*
D03*
X123000Y153701D02*
D03*
X123000Y166299D02*
D03*
X108000Y153701D02*
D03*
X108000Y166299D02*
D03*
X198997Y75890D02*
D03*
Y69591D02*
D03*
D24*
X215500Y40500D02*
D03*
X178500D02*
D03*
X197000D02*
D03*
X160000D02*
D03*
D25*
X152500Y160000D02*
D03*
X138500D02*
D03*
X123000D02*
D03*
X108000D02*
D03*
D26*
X273059Y102457D02*
D03*
X270500D02*
D03*
X267941D02*
D03*
Y109543D02*
D03*
X270500D02*
D03*
X273059D02*
D03*
D27*
X223224Y167760D02*
D03*
X223224Y171500D02*
D03*
X223224Y175240D02*
D03*
X213776Y175240D02*
D03*
Y167760D02*
D03*
D28*
X176273Y147227D02*
D03*
X180727Y142773D02*
D03*
D29*
X220988Y134413D02*
X230437Y124964D01*
Y120614D02*
Y124964D01*
X280500Y45500D02*
X280650Y45350D01*
X274521Y39500D02*
X280650D01*
X269801Y34780D02*
X274521Y39500D01*
X261260Y34780D02*
X269801D01*
X261931Y43782D02*
Y50000D01*
X258118Y29661D02*
X261260D01*
X256776Y31003D02*
X258118Y29661D01*
X256776Y31003D02*
Y38627D01*
X261931Y43782D01*
Y50000D02*
X268150D01*
X269239Y27500D02*
X274350D01*
X267077Y29661D02*
X269239Y27500D01*
X261260Y29661D02*
X267077D01*
X280500Y27500D02*
X280650Y27650D01*
Y33500D01*
X272301D02*
X280650D01*
X271021Y32221D02*
X272301Y33500D01*
X261260Y32221D02*
X271021D01*
X274500Y50000D02*
X278974D01*
X280650Y48324D01*
Y45500D02*
Y48324D01*
Y39500D02*
Y45350D01*
X243591Y37350D02*
X243740Y37500D01*
X237000Y37350D02*
X243591D01*
X237500Y37382D02*
X243083Y42965D01*
Y50000D01*
X249500Y37350D02*
Y44000D01*
Y34936D02*
Y37350D01*
X246929Y34780D02*
X249500Y37350D01*
X243740Y34780D02*
X246929D01*
X243740Y32221D02*
X246784D01*
X249500Y34936D01*
X235161Y32221D02*
X243740D01*
X200000Y55000D02*
X221500D01*
X230000Y37382D02*
X235161Y32221D01*
X230000Y37382D02*
Y46500D01*
X221500Y55000D02*
X230000Y46500D01*
X249500Y50000D02*
X255580D01*
X255650Y44000D02*
Y49974D01*
X286949Y39500D02*
X293049D01*
X261000Y113500D02*
X265000Y117500D01*
X251000Y113500D02*
X261000D01*
X265000Y117500D02*
X265850D01*
X269850Y121500D01*
X245713Y108213D02*
X251000Y113500D01*
X238114Y116087D02*
X242587D01*
X238114Y117661D02*
X240161D01*
X232500Y114500D02*
X232512Y114512D01*
X238114D01*
X269850Y121500D02*
Y127000D01*
Y132500D01*
X250350Y105063D02*
X253500Y101913D01*
X238000Y106638D02*
X238114D01*
X223081Y69591D02*
X223348D01*
X216848D02*
X223081D01*
X223348D02*
X223497Y69740D01*
X210348Y63890D02*
Y69591D01*
X204848Y63890D02*
Y69591D01*
X250095Y106638D02*
X253000Y109543D01*
X198997Y63890D02*
Y69591D01*
X181338Y133162D02*
Y134000D01*
X176384Y138045D02*
X180727Y142388D01*
Y142500D01*
Y142773D02*
X181046D01*
X185500Y147227D01*
X189727Y137773D02*
Y142500D01*
X224138Y115138D02*
Y120614D01*
X224000Y115000D02*
X224138Y115138D01*
X214886Y103488D02*
X220488D01*
X220500Y103500D01*
X214886Y108213D02*
X220488D01*
X159500Y199381D02*
X193700Y165181D01*
X181338Y133162D02*
X187019Y127481D01*
X180727Y142773D02*
X194619Y128881D01*
X189727Y137773D02*
X197219Y130281D01*
X202500Y139350D02*
X206600D01*
X196500D02*
X197000D01*
X202500D01*
X213500D02*
X219000D01*
X224150D01*
X224500Y139000D01*
Y139350D02*
X233587Y130264D01*
X233500Y130177D02*
X233587Y130264D01*
X233500Y130000D02*
Y130177D01*
X232012Y120614D02*
Y125871D01*
X231000Y139350D02*
X235850D01*
X236000Y139500D01*
X236500Y139350D02*
X242000D01*
X242000Y139350D01*
X235161Y125500D02*
X236500Y126839D01*
X235161Y121500D02*
Y125500D01*
X236500Y126839D02*
Y134000D01*
Y139350D01*
X210839Y117661D02*
X214886D01*
X206619Y121881D02*
X210839Y117661D01*
X210434Y116087D02*
X214886D01*
X206039Y120481D02*
X210434Y116087D01*
X139000Y209381D02*
X144500Y203881D01*
X149000Y156500D02*
X152500Y160000D01*
X135000Y156500D02*
X138500Y160000D01*
X119500Y156500D02*
X123000Y160000D01*
X119500Y143000D02*
Y156500D01*
X135000Y143000D02*
Y156500D01*
X144500Y142799D02*
Y203881D01*
X149000Y143000D02*
Y156500D01*
X104500Y143000D02*
Y156500D01*
X108000Y160000D01*
Y153701D02*
X115000Y160701D01*
Y184881D01*
X129500Y199381D01*
X123000Y153701D02*
X123701D01*
X130000Y160000D01*
X129383Y209500D02*
X134500Y204383D01*
X130000Y160000D02*
Y185000D01*
X134500Y189500D01*
Y204383D01*
X138500Y153701D02*
X143100Y158301D01*
Y195781D01*
X139500Y199381D02*
X143100Y195781D01*
X152500Y153701D02*
X157000Y158201D01*
Y194000D01*
X154500Y196500D02*
X157000Y194000D01*
X154500Y196500D02*
Y201500D01*
X158000Y205000D01*
X195383D01*
X199383Y209000D01*
X152500Y166299D02*
Y176000D01*
X152500Y176000D01*
X138500Y166299D02*
Y176000D01*
X139000Y176500D01*
X123000Y176500D02*
X123000Y176500D01*
X123000Y166299D02*
Y176500D01*
X108000Y166299D02*
Y175850D01*
X107500Y176350D02*
X108000Y175850D01*
X108000Y182650D02*
Y187500D01*
X123000Y182650D02*
Y187500D01*
X138500Y182650D02*
Y187500D01*
X152500Y182500D02*
Y187500D01*
X172000Y151500D02*
X176273Y147227D01*
X209650Y114512D02*
X214886D01*
X205080Y119081D02*
X209650Y114512D01*
X209651Y112937D02*
X214886D01*
X209650Y112939D02*
X209651Y112937D01*
X208909Y112939D02*
X209650D01*
X204167Y117681D02*
X208909Y112939D01*
X208506Y111362D02*
X214886D01*
X203587Y116281D02*
X208506Y111362D01*
X193700Y136462D02*
Y165181D01*
Y136462D02*
X198481Y131681D01*
X175920Y131100D02*
X182339Y124681D01*
X156199Y131100D02*
X175920D01*
X144500Y142799D02*
X156199Y131100D01*
X175340Y129700D02*
X181759Y123281D01*
X149000Y143000D02*
X159500Y132500D01*
X176500D01*
X182919Y126081D01*
X148300Y129700D02*
X175340D01*
X135000Y143000D02*
X148300Y129700D01*
X181179Y121881D02*
X206619D01*
X174760Y128300D02*
X181179Y121881D01*
X134200Y128300D02*
X174760D01*
X119500Y143000D02*
X134200Y128300D01*
X180599Y120481D02*
X206039D01*
X174180Y126900D02*
X180599Y120481D01*
X104500Y143000D02*
X120600Y126900D01*
X174180D01*
X165500Y65500D02*
X182500Y48500D01*
X207500D01*
X163000Y63081D02*
X180081Y46000D01*
X159500Y60000D02*
X178500Y41000D01*
X221799Y40500D02*
X224500Y37799D01*
Y14380D02*
Y37799D01*
Y14380D02*
X229380Y9500D01*
X180081Y46000D02*
X191719D01*
X197219Y40500D01*
X214500Y14381D02*
Y20500D01*
Y14381D02*
X219500Y9381D01*
X201264Y27500D02*
X209383Y19381D01*
X205000Y30000D02*
X214500Y20500D01*
X166299Y34701D02*
Y41000D01*
Y34701D02*
X173500Y27500D01*
X201264D01*
X203299Y34852D02*
Y40500D01*
Y34852D02*
X219151Y19000D01*
X219383D01*
X184799Y34701D02*
Y40500D01*
Y34701D02*
X189500Y30000D01*
X205000D01*
X153701Y35000D02*
Y40500D01*
X172201Y35000D02*
Y40500D01*
X190701Y35000D02*
Y40500D01*
X209201Y35000D02*
Y40500D01*
X160000D02*
Y46000D01*
X198481Y131681D02*
X220757D01*
X197219Y130281D02*
X220177D01*
X194619Y128881D02*
X219597D01*
X181759Y123281D02*
X217219D01*
X182339Y124681D02*
X217857D01*
X182919Y126081D02*
X218437D01*
X187019Y127481D02*
X219017D01*
X217839Y120614D02*
Y122661D01*
X217219Y123281D02*
X217839Y122661D01*
X219413Y120614D02*
Y123125D01*
X217857Y124681D02*
X219413Y123125D01*
X218437Y126081D02*
X220988Y123530D01*
Y120614D02*
Y123530D01*
X219017Y127481D02*
X222563Y123935D01*
Y120614D02*
Y123935D01*
X227500Y130383D02*
Y132500D01*
Y130383D02*
X232012Y125871D01*
X220757Y131681D02*
X228862Y123576D01*
Y120614D02*
Y123576D01*
X220177Y130281D02*
X227287Y123171D01*
Y120614D02*
Y123171D01*
X219597Y128881D02*
X225713Y122766D01*
Y121500D02*
Y122766D01*
X197000Y145650D02*
Y152000D01*
X202500Y145650D02*
Y152000D01*
X202500Y152000D02*
X202500Y152000D01*
X208000Y145650D02*
Y152000D01*
X213500Y145650D02*
Y152000D01*
X213500Y152000D02*
X213500Y152000D01*
X219000Y145650D02*
Y152000D01*
X224500Y145650D02*
Y152000D01*
X231000Y145650D02*
Y152000D01*
X236500Y145650D02*
Y152000D01*
X242000Y145650D02*
Y152000D01*
X248000Y145650D02*
Y152000D01*
X244856Y111362D02*
X252500Y119006D01*
Y135000D01*
X254880Y142759D02*
X258639Y139000D01*
X258769Y138870D02*
X262659Y134980D01*
X262659Y127185D02*
Y134980D01*
X262659D02*
X262659D01*
X245261Y109787D02*
X262659Y127185D01*
X206738Y109787D02*
X214886D01*
X203525Y113000D02*
X206738Y109787D01*
X184150Y113000D02*
X203525D01*
X184273Y101620D02*
X195000D01*
X199620D01*
X203063Y105063D01*
X214886D01*
X198362Y106638D02*
X214886D01*
X197500Y107500D02*
X197563Y107437D01*
X198362Y106638D01*
X240161Y117661D02*
X242500Y120000D01*
Y125000D01*
X184150Y84937D02*
Y90287D01*
Y90437D02*
Y95507D01*
X184000Y95657D02*
X184150Y95507D01*
X184000Y90437D02*
X184150Y90287D01*
X198437Y95937D02*
X204413Y101913D01*
X214500D01*
X190000Y95937D02*
Y96000D01*
X184150Y95937D02*
X190000D01*
X198437D01*
X185338Y73553D02*
X189227Y69664D01*
Y69500D02*
Y69664D01*
X185419Y73500D02*
X185773D01*
X181711Y77442D02*
X197768Y93500D01*
X181949Y76942D02*
X181976D01*
X182211D01*
X181976D02*
X185419Y73500D01*
X197768Y93500D02*
X201000D01*
X207839Y100339D02*
X214000D01*
X201000Y93500D02*
X202500Y95000D01*
X207839Y100339D01*
X172500Y112937D02*
X177850D01*
X159500Y106867D02*
X171715Y119081D01*
X163000Y108387D02*
X172294Y117681D01*
X165500Y108907D02*
X172874Y116281D01*
X165500Y65500D02*
Y108907D01*
X172874Y116281D02*
X203587D01*
X172294Y117681D02*
X204167D01*
X163000Y63081D02*
Y108387D01*
X159500Y60000D02*
Y106867D01*
X171715Y119081D02*
X205080D01*
X172500Y107437D02*
X177850D01*
X172500Y101620D02*
X177850D01*
X172500Y95937D02*
X177850D01*
X172500Y90437D02*
X177850D01*
X172563Y84937D02*
X177850D01*
X172500Y85000D02*
X172563Y84937D01*
Y68556D02*
X176995Y72988D01*
X172563Y68500D02*
Y68556D01*
X176420Y64635D02*
X180884Y69099D01*
X176420Y64500D02*
Y64635D01*
X180581Y61018D02*
X184773Y65210D01*
X180581Y61000D02*
Y61018D01*
X220988Y93488D02*
Y97386D01*
X214000Y86500D02*
X220988Y93488D01*
X200000Y86500D02*
X214000D01*
X194000Y80500D02*
X200000Y86500D01*
X194000Y61000D02*
Y80500D01*
X207500Y48500D02*
X215500Y40500D01*
X194000Y61000D02*
X200000Y55000D01*
X225713Y88365D02*
Y97386D01*
X219848Y82500D02*
X225713Y88365D01*
X207580Y82500D02*
X219848D01*
X204848Y79768D02*
X207580Y82500D01*
X204848Y76500D02*
Y79768D01*
X227287Y84787D02*
Y97386D01*
X223500Y81000D02*
X227287Y84787D01*
X215608Y81000D02*
X223500D01*
X210348Y75740D02*
X215608Y81000D01*
X228862Y81281D02*
Y97386D01*
X216760Y75740D02*
X223081D01*
X216500Y76000D02*
X216760Y75740D01*
X223081Y75500D02*
X228862Y81281D01*
X229380Y69591D02*
Y75480D01*
X229000Y75861D02*
X229380Y75480D01*
X229380Y75740D02*
X235500D01*
X230437Y97386D02*
Y97500D01*
Y89563D02*
Y97386D01*
Y89563D02*
X235489Y84511D01*
Y75861D02*
Y84511D01*
X232012Y90575D02*
Y97386D01*
Y90575D02*
X241000Y81587D01*
Y75740D02*
Y81587D01*
X233587Y91350D02*
Y97386D01*
Y91350D02*
X246489Y78448D01*
Y75861D02*
Y78448D01*
X235161Y94925D02*
Y97386D01*
Y94925D02*
X242587Y87500D01*
X256837D01*
X262460Y81877D01*
X258000Y77442D02*
X262435Y81877D01*
X262460D01*
X262496D01*
X246489Y75861D02*
X250627D01*
X253500Y72988D01*
X253552Y72933D02*
X257928Y68556D01*
X258000D01*
X262460Y72933D02*
X266950Y77423D01*
Y77500D01*
X269781Y84657D02*
Y90157D01*
Y95102D01*
X249343Y95657D02*
X269781D01*
X269383Y95500D02*
X269781Y95102D01*
X224138Y89881D02*
Y97386D01*
X218157Y83900D02*
X224138Y89881D01*
X202400Y83900D02*
X218157D01*
X198997Y80497D02*
X202400Y83900D01*
X198997Y75861D02*
Y75890D01*
Y80497D01*
X235489Y63890D02*
Y69561D01*
X235489Y63890D02*
X235489Y63890D01*
X241000Y63900D02*
Y70000D01*
X240989Y63890D02*
X241000Y63900D01*
X246500D02*
Y70000D01*
X246489Y63890D02*
X246500Y63900D01*
X276080Y95657D02*
X282000D01*
X276080Y90157D02*
X282000D01*
X276080Y84657D02*
X282000D01*
X282000Y84657D01*
X276150Y132500D02*
X282000D01*
X276150Y127000D02*
X282000D01*
X276150Y121500D02*
X282000D01*
X259335Y147213D02*
X263500Y151378D01*
X263224Y143324D02*
X263324D01*
X267500Y147500D01*
X267113Y139435D02*
X271500Y143822D01*
X242587Y116087D02*
X245000Y118500D01*
X233587Y120789D02*
Y130264D01*
X208000Y139350D02*
X212938Y134413D01*
X220988D01*
X238114Y112937D02*
X242937D01*
X238114Y111362D02*
X244856D01*
X238114Y109787D02*
X245261D01*
X238114Y103488D02*
X241512D01*
X249343Y95657D01*
X238500Y105063D02*
X250350D01*
X238114Y106638D02*
X250095D01*
X238114Y108213D02*
X245713D01*
X245000Y118500D02*
Y134980D01*
X242937Y112937D02*
X247500Y117500D01*
Y130177D01*
X248000Y139500D02*
X252500Y135000D01*
X184150Y107500D02*
X197500D01*
D30*
X261260Y37339D02*
X267521D01*
X237000Y43650D02*
Y49974D01*
X291780Y33500D02*
X299383D01*
X286949D02*
X291780D01*
Y45500D02*
X299500D01*
X286949D02*
X291780D01*
X228909Y167760D02*
X229500Y168350D01*
X223224Y167760D02*
X228909D01*
X208240D02*
X213776D01*
X218500Y171500D02*
X223224D01*
X229500Y174650D02*
Y180000D01*
X207500Y174650D02*
Y180000D01*
X218500Y175500D02*
X223000D01*
X229500Y168350D02*
X234500D01*
X201500D02*
X207500Y168350D01*
Y168500D02*
X208240Y167760D01*
D31*
X237000Y29661D02*
X237000Y29661D01*
X243740D01*
X255624Y50000D02*
X255650Y49974D01*
D32*
X288000Y119500D02*
X301500D01*
X288000Y99500D02*
X301500D01*
D33*
X259650Y102457D02*
X267941D01*
X259650Y109500D02*
X267728D01*
D34*
X273059Y109543D02*
X300606D01*
D35*
X89383Y19381D02*
D03*
Y9381D02*
D03*
X179383Y19381D02*
D03*
X189383Y9381D02*
D03*
X179383D02*
D03*
X289383D02*
D03*
X299383Y19381D02*
D03*
X259383Y9381D02*
D03*
X189383Y19381D02*
D03*
X199383Y9381D02*
D03*
X169383Y19381D02*
D03*
X99383D02*
D03*
Y9381D02*
D03*
X229383Y19381D02*
D03*
Y9381D02*
D03*
X239383D02*
D03*
X249383D02*
D03*
X239383Y19381D02*
D03*
X249383D02*
D03*
X259383D02*
D03*
X269383D02*
D03*
Y9381D02*
D03*
X279383Y19381D02*
D03*
Y9381D02*
D03*
X289383Y19381D02*
D03*
X299383Y9381D02*
D03*
X219383Y19381D02*
D03*
Y9381D02*
D03*
X209383D02*
D03*
Y19381D02*
D03*
X119383D02*
D03*
X109383D02*
D03*
Y9381D02*
D03*
X119383D02*
D03*
X199383Y19381D02*
D03*
X159383D02*
D03*
X139383Y9381D02*
D03*
X169383D02*
D03*
X129383Y19381D02*
D03*
X139383D02*
D03*
X129383Y9381D02*
D03*
X149383D02*
D03*
Y19381D02*
D03*
X159383Y9381D02*
D03*
X79383Y19381D02*
D03*
X89383Y209381D02*
D03*
Y199381D02*
D03*
X179383Y209381D02*
D03*
X189383Y199381D02*
D03*
X179383D02*
D03*
X289383D02*
D03*
X299383Y209381D02*
D03*
X259383Y199381D02*
D03*
X189383Y209381D02*
D03*
X199383Y199381D02*
D03*
X169383Y209381D02*
D03*
X99383D02*
D03*
Y199381D02*
D03*
X229383Y209381D02*
D03*
Y199381D02*
D03*
X239383D02*
D03*
X249383D02*
D03*
X239383Y209381D02*
D03*
X249383D02*
D03*
X259383D02*
D03*
X269383D02*
D03*
Y199381D02*
D03*
X279383Y209381D02*
D03*
Y199381D02*
D03*
X289383Y209381D02*
D03*
X299383Y199381D02*
D03*
X219383Y209381D02*
D03*
Y199381D02*
D03*
X209383D02*
D03*
Y209381D02*
D03*
X119383D02*
D03*
X109383D02*
D03*
Y199381D02*
D03*
X119383D02*
D03*
X199383Y209381D02*
D03*
X159383D02*
D03*
X139383Y199381D02*
D03*
X169383D02*
D03*
X129383Y209381D02*
D03*
X139383D02*
D03*
X129383Y199381D02*
D03*
X149383D02*
D03*
Y209381D02*
D03*
X159383Y199381D02*
D03*
X79383Y209381D02*
D03*
D36*
Y9381D02*
D03*
Y199381D02*
D03*
D37*
X303799Y191299D02*
D03*
X301299Y186299D02*
D03*
X303799Y181299D02*
D03*
X301299Y176299D02*
D03*
X303799Y171299D02*
D03*
X301299Y166299D02*
D03*
X303799Y161299D02*
D03*
X301299Y156299D02*
D03*
X303799Y151299D02*
D03*
X301299Y146299D02*
D03*
X303799Y141299D02*
D03*
X301299Y136299D02*
D03*
X303799Y131299D02*
D03*
X301299Y86299D02*
D03*
X303799Y81299D02*
D03*
X301299Y76299D02*
D03*
X303799Y71299D02*
D03*
X301299Y66299D02*
D03*
X298799Y191299D02*
D03*
X296299Y186299D02*
D03*
X298799Y181299D02*
D03*
X296299Y176299D02*
D03*
X298799Y171299D02*
D03*
X296299Y166299D02*
D03*
X298799Y161299D02*
D03*
X296299Y156299D02*
D03*
X298799Y151299D02*
D03*
X296299Y146299D02*
D03*
X298799Y141299D02*
D03*
X296299Y136299D02*
D03*
X298799Y131299D02*
D03*
X296299Y86299D02*
D03*
X298799Y81299D02*
D03*
X296299Y76299D02*
D03*
X298799Y71299D02*
D03*
X296299Y66299D02*
D03*
X293799Y191299D02*
D03*
X291299Y186299D02*
D03*
X293799Y181299D02*
D03*
X291299Y176299D02*
D03*
X293799Y171299D02*
D03*
X291299Y166299D02*
D03*
X293799Y161299D02*
D03*
X291299Y156299D02*
D03*
X293799Y151299D02*
D03*
X291299Y146299D02*
D03*
X293799Y141299D02*
D03*
X291299Y136299D02*
D03*
X293799Y131299D02*
D03*
X291299Y86299D02*
D03*
X293799Y81299D02*
D03*
X291299Y76299D02*
D03*
X293799Y71299D02*
D03*
X291299Y66299D02*
D03*
X288799Y191299D02*
D03*
X286299Y186299D02*
D03*
X288799Y181299D02*
D03*
X286299Y176299D02*
D03*
X288799Y171299D02*
D03*
X286299Y166299D02*
D03*
X288799Y161299D02*
D03*
X286299Y156299D02*
D03*
X288799Y151299D02*
D03*
X286299Y146299D02*
D03*
X288799Y141299D02*
D03*
Y81299D02*
D03*
X286299Y76299D02*
D03*
X288799Y71299D02*
D03*
X286299Y66299D02*
D03*
X283799Y191299D02*
D03*
X281299Y186299D02*
D03*
X283799Y181299D02*
D03*
X281299Y176299D02*
D03*
X283799Y171299D02*
D03*
X281299Y166299D02*
D03*
X283799Y161299D02*
D03*
X281299Y156299D02*
D03*
X283799Y151299D02*
D03*
X281299Y146299D02*
D03*
X283799Y141299D02*
D03*
X281299Y76299D02*
D03*
X283799Y71299D02*
D03*
X281299Y66299D02*
D03*
X278799Y191299D02*
D03*
X276299Y186299D02*
D03*
X278799Y181299D02*
D03*
X276299Y176299D02*
D03*
X278799Y171299D02*
D03*
X276299Y166299D02*
D03*
X278799Y161299D02*
D03*
X276299Y156299D02*
D03*
X278799Y151299D02*
D03*
Y141299D02*
D03*
X276299Y76299D02*
D03*
X278799Y71299D02*
D03*
X276299Y66299D02*
D03*
X273799Y191299D02*
D03*
X271299Y186299D02*
D03*
X273799Y181299D02*
D03*
X271299Y176299D02*
D03*
X273799Y171299D02*
D03*
X271299Y166299D02*
D03*
X273799Y161299D02*
D03*
X271299Y156299D02*
D03*
X273799Y151299D02*
D03*
X271299Y76299D02*
D03*
X273799Y71299D02*
D03*
X271299Y66299D02*
D03*
X268799Y191299D02*
D03*
X266299Y186299D02*
D03*
X268799Y181299D02*
D03*
X266299Y176299D02*
D03*
X268799Y171299D02*
D03*
X266299Y166299D02*
D03*
X268799Y161299D02*
D03*
Y71299D02*
D03*
X266299Y66299D02*
D03*
X263799Y191299D02*
D03*
X261299Y186299D02*
D03*
X263799Y181299D02*
D03*
X261299Y176299D02*
D03*
X263799Y171299D02*
D03*
X261299Y166299D02*
D03*
X263799Y161299D02*
D03*
Y121299D02*
D03*
Y91299D02*
D03*
X261299Y86299D02*
D03*
Y66299D02*
D03*
X258799Y191299D02*
D03*
X256299Y186299D02*
D03*
X258799Y181299D02*
D03*
X256299Y176299D02*
D03*
X258799Y171299D02*
D03*
X256299Y166299D02*
D03*
X258799Y161299D02*
D03*
X256299Y156299D02*
D03*
X258799Y131299D02*
D03*
X256299Y126299D02*
D03*
Y116299D02*
D03*
X258799Y91299D02*
D03*
X253799Y191299D02*
D03*
X251299Y186299D02*
D03*
X253799Y181299D02*
D03*
X251299Y176299D02*
D03*
X253799Y171299D02*
D03*
X251299Y166299D02*
D03*
X253799Y161299D02*
D03*
Y91299D02*
D03*
Y81299D02*
D03*
X267521Y37339D02*
D03*
X237000Y29661D02*
D03*
Y49974D02*
D03*
X291780Y33500D02*
D03*
Y45500D02*
D03*
X265000Y117500D02*
D03*
X210348Y63890D02*
D03*
X204848D02*
D03*
X290900Y104815D02*
D03*
X287247Y105403D02*
D03*
X283547D02*
D03*
X279847D02*
D03*
X276147D02*
D03*
X270110Y113658D02*
D03*
X273677Y114639D02*
D03*
X277252Y113683D02*
D03*
X280952D02*
D03*
X284652D02*
D03*
X288352D02*
D03*
X291780Y115074D02*
D03*
X198997Y63890D02*
D03*
X227500Y132500D02*
D03*
X233500Y130000D02*
D03*
X236500Y134000D02*
D03*
X108000Y187500D02*
D03*
X123000D02*
D03*
X138500D02*
D03*
X152500D02*
D03*
X172000Y151500D02*
D03*
X153701Y35000D02*
D03*
X172201D02*
D03*
X190701D02*
D03*
X209201D02*
D03*
X160000Y46000D02*
D03*
X197000Y152000D02*
D03*
X202500D02*
D03*
X208000Y152000D02*
D03*
X213500D02*
D03*
X219000Y152000D02*
D03*
X224500D02*
D03*
X231000D02*
D03*
X236500D02*
D03*
X242000Y152000D02*
D03*
X248000D02*
D03*
X252500Y135000D02*
D03*
X262659Y127185D02*
D03*
X195000Y101620D02*
D03*
X197563Y107437D02*
D03*
X242500Y125000D02*
D03*
X190000Y96000D02*
D03*
X202500Y95000D02*
D03*
X172500Y112937D02*
D03*
Y107437D02*
D03*
Y101620D02*
D03*
Y95937D02*
D03*
Y90437D02*
D03*
Y85000D02*
D03*
X172563Y68500D02*
D03*
X176420Y64500D02*
D03*
X180581Y61000D02*
D03*
X249343Y95657D02*
D03*
X235489Y63890D02*
D03*
X240989Y63890D02*
D03*
X246489D02*
D03*
X282000Y95657D02*
D03*
Y90157D02*
D03*
Y84657D02*
D03*
Y132500D02*
D03*
Y127000D02*
D03*
Y121500D02*
D03*
X263500Y151378D02*
D03*
X267500Y147500D02*
D03*
X271500Y143822D02*
D03*
X218500Y171500D02*
D03*
X229500Y180000D02*
D03*
X207500D02*
D03*
X218500Y175500D02*
D03*
X234500Y168350D02*
D03*
X201500D02*
D03*
X220988Y134413D02*
D03*
X245000Y134980D02*
D03*
X247500Y130177D02*
D03*
D38*
X288000Y119500D02*
D03*
Y99500D02*
D03*
D39*
X226500Y113921D02*
D03*
Y104079D02*
D03*
Y108803D02*
D03*
X221776Y113528D02*
D03*
X231224D02*
D03*
X221776Y104079D02*
D03*
X231224Y108803D02*
D03*
Y104079D02*
D03*
X221776Y108803D02*
D03*
M02*
