G04 Layer_Physical_Order=2*
G04 Layer_Color=32768*
%FSLAX25Y25*%
%MOIN*%
G70*
G01*
G75*
%ADD40C,0.04000*%
%ADD41C,0.05400*%
G04:AMPARAMS|DCode=42|XSize=70mil|YSize=70mil|CornerRadius=0mil|HoleSize=0mil|Usage=FLASHONLY|Rotation=0.000|XOffset=0mil|YOffset=0mil|HoleType=Round|Shape=Relief|Width=8mil|Gap=10mil|Entries=4|*
%AMTHD42*
7,0,0,0.07000,0.05000,0.00800,45*
%
%ADD42THD42*%
G04:AMPARAMS|DCode=43|XSize=50mil|YSize=50mil|CornerRadius=0mil|HoleSize=0mil|Usage=FLASHONLY|Rotation=0.000|XOffset=0mil|YOffset=0mil|HoleType=Round|Shape=Relief|Width=8mil|Gap=10mil|Entries=4|*
%AMTHD43*
7,0,0,0.05000,0.03000,0.00800,45*
%
%ADD43THD43*%
G04:AMPARAMS|DCode=44|XSize=48mil|YSize=48mil|CornerRadius=0mil|HoleSize=0mil|Usage=FLASHONLY|Rotation=0.000|XOffset=0mil|YOffset=0mil|HoleType=Round|Shape=Relief|Width=8mil|Gap=10mil|Entries=4|*
%AMTHD44*
7,0,0,0.04800,0.02800,0.00800,45*
%
%ADD44THD44*%
%ADD45C,0.03200*%
G04:AMPARAMS|DCode=46|XSize=58mil|YSize=58mil|CornerRadius=0mil|HoleSize=0mil|Usage=FLASHONLY|Rotation=0.000|XOffset=0mil|YOffset=0mil|HoleType=Round|Shape=Relief|Width=8mil|Gap=10mil|Entries=4|*
%AMTHD46*
7,0,0,0.05800,0.03800,0.00800,45*
%
%ADD46THD46*%
G04:AMPARAMS|DCode=47|XSize=51.811mil|YSize=51.811mil|CornerRadius=0mil|HoleSize=0mil|Usage=FLASHONLY|Rotation=0.000|XOffset=0mil|YOffset=0mil|HoleType=Round|Shape=Relief|Width=8mil|Gap=10mil|Entries=4|*
%AMTHD47*
7,0,0,0.05181,0.03181,0.00800,45*
%
%ADD47THD47*%
D40*
X70866Y1873D02*
Y86000D01*
X78740D01*
Y152500D01*
X70866D02*
X78740D01*
X70866D02*
Y216914D01*
X311500D01*
Y1873D02*
Y216914D01*
X70866Y1873D02*
X311500D01*
D41*
X89383Y19381D02*
D03*
Y9381D02*
D03*
X179383Y19381D02*
D03*
X189383Y9381D02*
D03*
X179383D02*
D03*
X259383D02*
D03*
X189383Y19381D02*
D03*
X199383Y9381D02*
D03*
X169383Y19381D02*
D03*
X99383D02*
D03*
Y9381D02*
D03*
X229383Y19381D02*
D03*
Y9381D02*
D03*
X239383D02*
D03*
X249383D02*
D03*
X239383Y19381D02*
D03*
X249383D02*
D03*
X259383D02*
D03*
X269383D02*
D03*
Y9381D02*
D03*
X279383Y19381D02*
D03*
Y9381D02*
D03*
X219383Y19381D02*
D03*
Y9381D02*
D03*
X209383D02*
D03*
Y19381D02*
D03*
X119383D02*
D03*
X109383D02*
D03*
Y9381D02*
D03*
X119383D02*
D03*
X199383Y19381D02*
D03*
X159383D02*
D03*
X139383Y9381D02*
D03*
X169383D02*
D03*
X129383Y19381D02*
D03*
X139383D02*
D03*
X129383Y9381D02*
D03*
X149383D02*
D03*
Y19381D02*
D03*
X159383Y9381D02*
D03*
X89383Y209381D02*
D03*
Y199381D02*
D03*
X179383Y209381D02*
D03*
X189383Y199381D02*
D03*
X179383D02*
D03*
X289383D02*
D03*
X299383Y209381D02*
D03*
X259383Y199381D02*
D03*
X189383Y209381D02*
D03*
X199383Y199381D02*
D03*
X169383Y209381D02*
D03*
X99383D02*
D03*
Y199381D02*
D03*
X229383Y209381D02*
D03*
Y199381D02*
D03*
X239383D02*
D03*
X249383D02*
D03*
X239383Y209381D02*
D03*
X249383D02*
D03*
X259383D02*
D03*
X269383D02*
D03*
Y199381D02*
D03*
X279383Y209381D02*
D03*
Y199381D02*
D03*
X289383Y209381D02*
D03*
X299383Y199381D02*
D03*
X219383Y209381D02*
D03*
Y199381D02*
D03*
X209383D02*
D03*
Y209381D02*
D03*
X119383D02*
D03*
X109383D02*
D03*
Y199381D02*
D03*
X119383D02*
D03*
X199383Y209381D02*
D03*
X159383D02*
D03*
X139383Y199381D02*
D03*
X169383D02*
D03*
X129383Y209381D02*
D03*
X139383D02*
D03*
X129383Y199381D02*
D03*
X149383D02*
D03*
Y209381D02*
D03*
X159383Y199381D02*
D03*
D42*
X289383Y9381D02*
D03*
X299383Y19381D02*
D03*
X289383D02*
D03*
X299383Y9381D02*
D03*
X79383Y19381D02*
D03*
Y9381D02*
D03*
Y209381D02*
D03*
Y199381D02*
D03*
D43*
X303799Y191299D02*
D03*
X301299Y186299D02*
D03*
X303799Y181299D02*
D03*
X301299Y176299D02*
D03*
X303799Y171299D02*
D03*
X301299Y166299D02*
D03*
X303799Y161299D02*
D03*
X301299Y156299D02*
D03*
X303799Y151299D02*
D03*
X301299Y146299D02*
D03*
X303799Y141299D02*
D03*
X301299Y136299D02*
D03*
X303799Y131299D02*
D03*
X301299Y86299D02*
D03*
X303799Y81299D02*
D03*
X301299Y76299D02*
D03*
X303799Y71299D02*
D03*
X301299Y66299D02*
D03*
X298799Y191299D02*
D03*
X296299Y186299D02*
D03*
X298799Y181299D02*
D03*
X296299Y176299D02*
D03*
X298799Y171299D02*
D03*
X296299Y166299D02*
D03*
X298799Y161299D02*
D03*
X296299Y156299D02*
D03*
X298799Y151299D02*
D03*
X296299Y146299D02*
D03*
X298799Y141299D02*
D03*
X296299Y136299D02*
D03*
X298799Y131299D02*
D03*
X296299Y86299D02*
D03*
X298799Y81299D02*
D03*
X296299Y76299D02*
D03*
X298799Y71299D02*
D03*
X296299Y66299D02*
D03*
X293799Y191299D02*
D03*
X291299Y186299D02*
D03*
X293799Y181299D02*
D03*
X291299Y176299D02*
D03*
X293799Y171299D02*
D03*
X291299Y166299D02*
D03*
X293799Y161299D02*
D03*
X291299Y156299D02*
D03*
X293799Y151299D02*
D03*
X291299Y146299D02*
D03*
X293799Y141299D02*
D03*
X291299Y136299D02*
D03*
X293799Y131299D02*
D03*
X291299Y86299D02*
D03*
X293799Y81299D02*
D03*
X291299Y76299D02*
D03*
X293799Y71299D02*
D03*
X291299Y66299D02*
D03*
X288799Y191299D02*
D03*
X286299Y186299D02*
D03*
X288799Y181299D02*
D03*
X286299Y176299D02*
D03*
X288799Y171299D02*
D03*
X286299Y166299D02*
D03*
X288799Y161299D02*
D03*
X286299Y156299D02*
D03*
X288799Y151299D02*
D03*
X286299Y146299D02*
D03*
X288799Y141299D02*
D03*
Y81299D02*
D03*
X286299Y76299D02*
D03*
X288799Y71299D02*
D03*
X286299Y66299D02*
D03*
X283799Y191299D02*
D03*
X281299Y186299D02*
D03*
X283799Y181299D02*
D03*
X281299Y176299D02*
D03*
X283799Y171299D02*
D03*
X281299Y166299D02*
D03*
X283799Y161299D02*
D03*
X281299Y156299D02*
D03*
X283799Y151299D02*
D03*
X281299Y146299D02*
D03*
X283799Y141299D02*
D03*
X281299Y76299D02*
D03*
X283799Y71299D02*
D03*
X281299Y66299D02*
D03*
X278799Y191299D02*
D03*
X276299Y186299D02*
D03*
X278799Y181299D02*
D03*
X276299Y176299D02*
D03*
X278799Y171299D02*
D03*
X276299Y166299D02*
D03*
X278799Y161299D02*
D03*
X276299Y156299D02*
D03*
X278799Y151299D02*
D03*
Y141299D02*
D03*
X276299Y76299D02*
D03*
X278799Y71299D02*
D03*
X276299Y66299D02*
D03*
X273799Y191299D02*
D03*
X271299Y186299D02*
D03*
X273799Y181299D02*
D03*
X271299Y176299D02*
D03*
X273799Y171299D02*
D03*
X271299Y166299D02*
D03*
X273799Y161299D02*
D03*
X271299Y156299D02*
D03*
X273799Y151299D02*
D03*
X271299Y76299D02*
D03*
X273799Y71299D02*
D03*
X271299Y66299D02*
D03*
X268799Y191299D02*
D03*
X266299Y186299D02*
D03*
X268799Y181299D02*
D03*
X266299Y176299D02*
D03*
X268799Y171299D02*
D03*
X266299Y166299D02*
D03*
X268799Y161299D02*
D03*
Y71299D02*
D03*
X266299Y66299D02*
D03*
X263799Y191299D02*
D03*
X261299Y186299D02*
D03*
X263799Y181299D02*
D03*
X261299Y176299D02*
D03*
X263799Y171299D02*
D03*
X261299Y166299D02*
D03*
X263799Y161299D02*
D03*
Y121299D02*
D03*
Y91299D02*
D03*
X261299Y86299D02*
D03*
Y66299D02*
D03*
X258799Y191299D02*
D03*
X256299Y186299D02*
D03*
X258799Y181299D02*
D03*
X256299Y176299D02*
D03*
X258799Y171299D02*
D03*
X256299Y166299D02*
D03*
X258799Y161299D02*
D03*
X256299Y156299D02*
D03*
X258799Y131299D02*
D03*
X256299Y126299D02*
D03*
Y116299D02*
D03*
X258799Y91299D02*
D03*
X253799Y191299D02*
D03*
X251299Y186299D02*
D03*
X253799Y181299D02*
D03*
X251299Y176299D02*
D03*
X253799Y171299D02*
D03*
X251299Y166299D02*
D03*
X253799Y161299D02*
D03*
Y91299D02*
D03*
Y81299D02*
D03*
X290900Y104815D02*
D03*
X287247Y105403D02*
D03*
X283547D02*
D03*
X279847D02*
D03*
X276147D02*
D03*
X270110Y113658D02*
D03*
X273677Y114639D02*
D03*
X277252Y113683D02*
D03*
X280952D02*
D03*
X284652D02*
D03*
X288352D02*
D03*
X291780Y115074D02*
D03*
D44*
X267521Y37339D02*
D03*
X237000Y49974D02*
D03*
X291780Y33500D02*
D03*
Y45500D02*
D03*
X210348Y63890D02*
D03*
X204848D02*
D03*
X198997D02*
D03*
X172000Y151500D02*
D03*
X197000Y152000D02*
D03*
X202500D02*
D03*
X208000Y152000D02*
D03*
X213500D02*
D03*
X219000Y152000D02*
D03*
X224500D02*
D03*
X231000D02*
D03*
X236500D02*
D03*
X242000Y152000D02*
D03*
X248000D02*
D03*
X172500Y112937D02*
D03*
Y107437D02*
D03*
Y101620D02*
D03*
Y95937D02*
D03*
Y90437D02*
D03*
Y85000D02*
D03*
X172563Y68500D02*
D03*
X176420Y64500D02*
D03*
X180581Y61000D02*
D03*
X235489Y63890D02*
D03*
X240989Y63890D02*
D03*
X246489D02*
D03*
X282000Y95657D02*
D03*
Y90157D02*
D03*
Y84657D02*
D03*
Y132500D02*
D03*
Y127000D02*
D03*
Y121500D02*
D03*
X263500Y151378D02*
D03*
X267500Y147500D02*
D03*
X271500Y143822D02*
D03*
X218500Y171500D02*
D03*
X229500Y180000D02*
D03*
X207500D02*
D03*
D45*
X237000Y29661D02*
D03*
X265000Y117500D02*
D03*
X227500Y132500D02*
D03*
X233500Y130000D02*
D03*
X236500Y134000D02*
D03*
X108000Y187500D02*
D03*
X123000D02*
D03*
X138500D02*
D03*
X152500D02*
D03*
X153701Y35000D02*
D03*
X172201D02*
D03*
X190701D02*
D03*
X209201D02*
D03*
X160000Y46000D02*
D03*
X252500Y135000D02*
D03*
X262659Y127185D02*
D03*
X195000Y101620D02*
D03*
X197563Y107437D02*
D03*
X242500Y125000D02*
D03*
X190000Y96000D02*
D03*
X202500Y95000D02*
D03*
X249343Y95657D02*
D03*
X218500Y175500D02*
D03*
X234500Y168350D02*
D03*
X201500D02*
D03*
X220988Y134413D02*
D03*
X245000Y134980D02*
D03*
X247500Y130177D02*
D03*
D46*
X288000Y119500D02*
D03*
Y99500D02*
D03*
D47*
X226500Y113921D02*
D03*
Y104079D02*
D03*
Y108803D02*
D03*
X221776Y113528D02*
D03*
X231224D02*
D03*
X221776Y104079D02*
D03*
X231224Y108803D02*
D03*
Y104079D02*
D03*
X221776Y108803D02*
D03*
M02*
